<?xml version="1.0" encoding="UTF-8" standalone="no"?>
<svg
   width="600mm"
   height="600mm"
   viewBox="0 0 600 600"
   version="1.1"
   id="svg8"
   sodipodi:docname="console_60x60.svg"
   inkscape:version="1.1.1 (3bf5ae0d25, 2021-09-20)"
   xmlns:inkscape="http://www.inkscape.org/namespaces/inkscape"
   xmlns:sodipodi="http://sodipodi.sourceforge.net/DTD/sodipodi-0.dtd"
   xmlns="http://www.w3.org/2000/svg"
   xmlns:svg="http://www.w3.org/2000/svg"
   xmlns:rdf="http://www.w3.org/1999/02/22-rdf-syntax-ns#"
   xmlns:cc="http://creativecommons.org/ns#"
   xmlns:dc="http://purl.org/dc/elements/1.1/">
  <defs
     id="defs2" />
  <sodipodi:namedview
     id="base"
     pagecolor="#ffffff"
     bordercolor="#666666"
     borderopacity="1.0"
     inkscape:pageopacity="0.0"
     inkscape:pageshadow="2"
     inkscape:zoom="0.73739858"
     inkscape:cx="1399.5145"
     inkscape:cy="459.04618"
     inkscape:document-units="mm"
     inkscape:current-layer="layer1"
     inkscape:document-rotation="0"
     showgrid="false"
     inkscape:window-width="1920"
     inkscape:window-height="1016"
     inkscape:window-x="0"
     inkscape:window-y="0"
     inkscape:window-maximized="1"
     inkscape:pagecheckerboard="0" />
  <metadata
     id="metadata5">
    <rdf:RDF>
      <cc:Work
         rdf:about="">
        <dc:format>image/svg+xml</dc:format>
        <dc:type
           rdf:resource="http://purl.org/dc/dcmitype/StillImage" />
        <dc:title />
      </cc:Work>
    </rdf:RDF>
  </metadata>
  <g
     inkscape:label="Layer 1"
     inkscape:groupmode="layer"
     id="layer1">
    <g
       id="p-1"
       style="fill:none;stroke-linecap:round;stroke-linejoin:round"
       transform="translate(-3.7987539,284.95811)">
      <path
         d="m 22.1,301.1 h -2.9 c -0.1,0 0,0.1 0,0 v -2.8 c 0,-0.1 -0.1,0 0,0 H 25 c 0.1,0 0,-0.1 0,0 v 2.8 c 0,0.1 0.1,0 0,0 z"
         stroke="#0000ff"
         stroke-width="0.2"
         id="path5464" />
      <path
         d="m 34.1,301.1 h -2.9 c -0.1,0 0,0.1 0,0 v -2.8 c 0,-0.1 -0.1,0 0,0 H 37 c 0.1,0 0,-0.1 0,0 v 2.8 c 0,0.1 0.1,0 0,0 z"
         stroke="#0000ff"
         stroke-width="0.2"
         id="path5466" />
      <path
         d="m 46.1,301.1 h -2.9 c -0.1,0 0,0.1 0,0 v -2.8 c 0,-0.1 -0.1,0 0,0 H 49 c 0.1,0 0,-0.1 0,0 v 2.8 c 0,0.1 0.1,0 0,0 z"
         stroke="#0000ff"
         stroke-width="0.2"
         id="path5468" />
      <path
         d="m 58.1,301.1 h -2.9 c -0.1,0 0,0.1 0,0 v -2.8 c 0,-0.1 -0.1,0 0,0 H 61 c 0.1,0 0,-0.1 0,0 v 2.8 c 0,0.1 0.1,0 0,0 z"
         stroke="#0000ff"
         stroke-width="0.2"
         id="path5470" />
      <path
         d="m 70.1,301.1 h -2.9 c -0.1,0 0,0.1 0,0 v -2.8 c 0,-0.1 -0.1,0 0,0 H 73 c 0.1,0 0,-0.1 0,0 v 2.8 c 0,0.1 0.1,0 0,0 z"
         stroke="#0000ff"
         stroke-width="0.2"
         id="path5472" />
      <path
         d="m 82.1,301.1 h -2.9 c -0.1,0 0,0.1 0,0 v -2.8 c 0,-0.1 -0.1,0 0,0 H 85 c 0.1,0 0,-0.1 0,0 v 2.8 c 0,0.1 0.1,0 0,0 z"
         stroke="#0000ff"
         stroke-width="0.2"
         id="path5474" />
      <path
         d="m 94.1,301.1 h -2.9 c -0.1,0 0,0.1 0,0 v -2.8 c 0,-0.1 -0.1,0 0,0 H 97 c 0.1,0 0,-0.1 0,0 v 2.8 c 0,0.1 0.1,0 0,0 z"
         stroke="#0000ff"
         stroke-width="0.2"
         id="path5476" />
      <path
         d="m 106.1,301.1 h -2.9 c -0.1,0 0,0.1 0,0 v -2.8 c 0,-0.1 -0.1,0 0,0 h 5.8 c 0.1,0 0,-0.1 0,0 v 2.8 c 0,0.1 0.1,0 0,0 z"
         stroke="#0000ff"
         stroke-width="0.2"
         id="path5478" />
      <path
         d="m 118.1,301.1 h -2.9 c -0.1,0 0,0.1 0,0 v -2.8 c 0,-0.1 -0.1,0 0,0 h 5.8 c 0.1,0 0,-0.1 0,0 v 2.8 c 0,0.1 0.1,0 0,0 z"
         stroke="#0000ff"
         stroke-width="0.2"
         id="path5480" />
      <path
         d="m 130.1,301.1 h -2.9 c -0.1,0 0,0.1 0,0 v -2.8 c 0,-0.1 -0.1,0 0,0 h 5.8 c 0.1,0 0,-0.1 0,0 v 2.8 c 0,0.1 0.1,0 0,0 z"
         stroke="#0000ff"
         stroke-width="0.2"
         id="path5482" />
      <path
         d="m 142.1,301.1 h -2.9 c -0.1,0 0,0.1 0,0 v -2.8 c 0,-0.1 -0.1,0 0,0 h 5.8 c 0.1,0 0,-0.1 0,0 v 2.8 c 0,0.1 0.1,0 0,0 z"
         stroke="#0000ff"
         stroke-width="0.2"
         id="path5484" />
      <path
         d="m 154.1,301.1 h -2.9 c -0.1,0 0,0.1 0,0 v -2.8 c 0,-0.1 -0.1,0 0,0 h 5.8 c 0.1,0 0,-0.1 0,0 v 2.8 c 0,0.1 0.1,0 0,0 z"
         stroke="#0000ff"
         stroke-width="0.2"
         id="path5486" />
      <path
         d="m 166.1,301.1 h -2.9 c -0.1,0 0,0.1 0,0 v -2.8 c 0,-0.1 -0.1,0 0,0 h 5.8 c 0.1,0 0,-0.1 0,0 v 2.8 c 0,0.1 0.1,0 0,0 z"
         stroke="#0000ff"
         stroke-width="0.2"
         id="path5488" />
      <path
         d="m 178.1,301.1 h -2.9 c -0.1,0 0,0.1 0,0 v -2.8 c 0,-0.1 -0.1,0 0,0 h 5.8 c 0.1,0 0,-0.1 0,0 v 2.8 c 0,0.1 0.1,0 0,0 z"
         stroke="#0000ff"
         stroke-width="0.2"
         id="path5490" />
      <text
         alignment-baseline="hanging"
         font-size="4px"
         style="font-style:normal;font-weight:normal;font-family:sans-serif;fill:#ff0000"
         text-anchor="middle"
         transform="translate(100.1,158.2)"
         id="text5492">Left Side</text>
      <path
         d="m 13.1,310.2 h 12 c 1.071,0 2.123,-0.282 3.05,-0.817 0.927,-0.536 1.697,-1.306 2.233,-2.233 0.518,-0.897 1.262,-1.642 2.159,-2.16 0.897,-0.517 1.915,-0.79 2.95,-0.79 h 129.216 c 1.035,0 2.053,0.273 2.95,0.79 0.897,0.518 1.641,1.263 2.159,2.16 0.536,0.927 1.306,1.697 2.233,2.233 0.927,0.535 1.979,0.817 3.05,0.817 h 12 c 0.055,0 0.1,-0.045 0.1,-0.1 v -6.15 c 0,-0.1 -0.1,0 0,0 h 2.9 c 0.055,0 0.1,-0.045 0.1,-0.1 v -6 c 0,-0.055 -0.045,-0.1 -0.1,-0.1 h -2.9 c -0.1,0 0,0.1 0,0 v -5.8 c 0,-0.1 -0.1,0 0,0 h 2.9 c 0.055,0 0.1,-0.045 0.1,-0.1 v -6 c 0,-0.055 -0.045,-0.1 -0.1,-0.1 h -2.9 c -0.1,0 0,0.1 0,0 v -5.8 c 0,-0.1 -0.1,0 0,0 h 2.9 c 0.055,0 0.1,-0.045 0.1,-0.1 v -6 c 0,-0.055 -0.045,-0.1 -0.1,-0.1 h -2.9 c -0.1,0 0,0.1 0,0 v -5.8 c 0,-0.1 -0.1,0 0,0 h 2.9 c 0.055,0 0.1,-0.045 0.1,-0.1 v -6 c 0,-0.055 -0.045,-0.1 -0.1,-0.1 h -2.9 c -0.1,0 0,0.1 0,0 v -5.8 c 0,-0.1 -0.1,0 0,0 h 2.9 c 0.055,0 0.1,-0.045 0.1,-0.1 v -6 c 0,-0.055 -0.045,-0.1 -0.1,-0.1 h -2.9 c -0.1,0 0,0.1 0,0 v -5.8 c 0,-0.1 -0.1,0 0,0 h 2.9 c 0.055,0 0.1,-0.045 0.1,-0.1 v -6 c 0,-0.055 -0.045,-0.1 -0.1,-0.1 h -2.9 c -0.1,0 0,0.1 0,0 v -5.8 c 0,-0.1 -0.1,0 0,0 h 2.9 c 0.055,0 0.1,-0.045 0.1,-0.1 v -6 c 0,-0.055 -0.045,-0.1 -0.1,-0.1 h -2.9 c -0.1,0 0,0.1 0,0 v -6.15 -1.5 c 0,-0.018 -0.005,-0.035 -0.013,-0.05 L 68.83,13.05 C 68.812,13.019 68.779,13 68.743,13 h -2.598 -5.422 c -0.1,0 0,0.1 0,0 v -2.9 c 0,-0.055 -0.045,-0.1 -0.1,-0.1 h -6 c -0.056,0 -0.1,0.045 -0.1,0.1 V 13 c 0,0.1 0.1,0 0,0 h -5.8 c -0.1,0 0,0.1 0,0 v -2.9 c 0,-0.055 -0.045,-0.1 -0.1,-0.1 h -6 c -0.056,0 -0.1,0.045 -0.1,0.1 V 13 c 0,0.1 0.1,0 0,0 h -5.8 c -0.1,0 0,0.1 0,0 v -2.9 c 0,-0.055 -0.045,-0.1 -0.1,-0.1 h -6 c -0.056,0 -0.1,0.045 -0.1,0.1 V 13 c 0,0.1 0.1,0 0,0 h -5.8 c -0.1,0 0,0.1 0,0 v -2.9 c 0,-0.055 -0.045,-0.1 -0.1,-0.1 h -6 c -0.056,0 -0.1,0.045 -0.1,0.1 V 13 c 0,0.1 0.1,0 0,0 H 13.1 C 13.045,13 13,13.045 13,13.1 v 282 4.4 c 0,0.1 0.1,0 0,0 h -2.9 c -0.055,0 -0.1,0.045 -0.1,0.1 v 6 c 0,0.055 0.045,0.1 0.1,0.1 H 13 c 0.1,0 0,-0.1 0,0 v 4.4 c 0,0.055 0.045,0.1 0.1,0.1"
         stroke="#000000"
         stroke-width="0.2"
         id="path5494" />
      <path
         d="m 180.067,211.768 1.825,3.161 c 0.05,0.087 0.086,-0.05 0,0 l -2.555,1.475 c -0.087,0.05 0.05,0.087 0,0 l -3.65,-6.322 c -0.05,-0.086 -0.087,0.05 0,0 l 2.555,-1.475 c 0.086,-0.05 -0.05,-0.086 0,0 z"
         stroke="#0000ff"
         stroke-width="0.2"
         id="path5496" />
      <path
         d="m 70.71,22.357 1.825,3.161 c 0.05,0.086 0.087,-0.05 0,0 l -2.555,1.475 c -0.086,0.05 0.05,0.086 0,0 l -3.65,-6.322 c -0.05,-0.087 -0.086,0.05 0,0 l 2.555,-1.475 c 0.087,-0.05 -0.05,-0.087 0,0 z"
         stroke="#0000ff"
         stroke-width="0.2"
         id="path5498" />
      <path
         d="m 16.1,31.1 v -1.55 c 0,-0.1 -0.1,0 0,0 h 3.1 c 0.1,0 0,-0.1 0,0 v 3.1 c 0,0.1 0.1,0 0,0 h -3.1 c -0.1,0 0,0.1 0,0 z"
         stroke="#0000ff"
         stroke-width="0.2"
         id="path5500" />
    </g>
    <g
       id="p-2"
       style="fill:none;stroke-linecap:round;stroke-linejoin:round"
       transform="matrix(-1,0,0,1,785.24362,285.78198)">
      <path
         d="m 203.8,301.1 h -2.9 c -0.1,0 0,0.1 0,0 v -2.8 c 0,-0.1 -0.1,0 0,0 h 5.8 c 0.1,0 0,-0.1 0,0 v 2.8 c 0,0.1 0.1,0 0,0 z"
         stroke="#0000ff"
         stroke-width="0.2"
         id="path5503" />
      <path
         d="m 215.8,301.1 h -2.9 c -0.1,0 0,0.1 0,0 v -2.8 c 0,-0.1 -0.1,0 0,0 h 5.8 c 0.1,0 0,-0.1 0,0 v 2.8 c 0,0.1 0.1,0 0,0 z"
         stroke="#0000ff"
         stroke-width="0.2"
         id="path5505" />
      <path
         d="m 227.8,301.1 h -2.9 c -0.1,0 0,0.1 0,0 v -2.8 c 0,-0.1 -0.1,0 0,0 h 5.8 c 0.1,0 0,-0.1 0,0 v 2.8 c 0,0.1 0.1,0 0,0 z"
         stroke="#0000ff"
         stroke-width="0.2"
         id="path5507" />
      <path
         d="m 239.8,301.1 h -2.9 c -0.1,0 0,0.1 0,0 v -2.8 c 0,-0.1 -0.1,0 0,0 h 5.8 c 0.1,0 0,-0.1 0,0 v 2.8 c 0,0.1 0.1,0 0,0 z"
         stroke="#0000ff"
         stroke-width="0.2"
         id="path5509" />
      <path
         d="m 251.8,301.1 h -2.9 c -0.1,0 0,0.1 0,0 v -2.8 c 0,-0.1 -0.1,0 0,0 h 5.8 c 0.1,0 0,-0.1 0,0 v 2.8 c 0,0.1 0.1,0 0,0 z"
         stroke="#0000ff"
         stroke-width="0.2"
         id="path5511" />
      <path
         d="m 263.8,301.1 h -2.9 c -0.1,0 0,0.1 0,0 v -2.8 c 0,-0.1 -0.1,0 0,0 h 5.8 c 0.1,0 0,-0.1 0,0 v 2.8 c 0,0.1 0.1,0 0,0 z"
         stroke="#0000ff"
         stroke-width="0.2"
         id="path5513" />
      <path
         d="m 275.8,301.1 h -2.9 c -0.1,0 0,0.1 0,0 v -2.8 c 0,-0.1 -0.1,0 0,0 h 5.8 c 0.1,0 0,-0.1 0,0 v 2.8 c 0,0.1 0.1,0 0,0 z"
         stroke="#0000ff"
         stroke-width="0.2"
         id="path5515" />
      <path
         d="m 287.8,301.1 h -2.9 c -0.1,0 0,0.1 0,0 v -2.8 c 0,-0.1 -0.1,0 0,0 h 5.8 c 0.1,0 0,-0.1 0,0 v 2.8 c 0,0.1 0.1,0 0,0 z"
         stroke="#0000ff"
         stroke-width="0.2"
         id="path5517" />
      <path
         d="m 299.8,301.1 h -2.9 c -0.1,0 0,0.1 0,0 v -2.8 c 0,-0.1 -0.1,0 0,0 h 5.8 c 0.1,0 0,-0.1 0,0 v 2.8 c 0,0.1 0.1,0 0,0 z"
         stroke="#0000ff"
         stroke-width="0.2"
         id="path5519" />
      <path
         d="m 311.8,301.1 h -2.9 c -0.1,0 0,0.1 0,0 v -2.8 c 0,-0.1 -0.1,0 0,0 h 5.8 c 0.1,0 0,-0.1 0,0 v 2.8 c 0,0.1 0.1,0 0,0 z"
         stroke="#0000ff"
         stroke-width="0.2"
         id="path5521" />
      <path
         d="m 323.8,301.1 h -2.9 c -0.1,0 0,0.1 0,0 v -2.8 c 0,-0.1 -0.1,0 0,0 h 5.8 c 0.1,0 0,-0.1 0,0 v 2.8 c 0,0.1 0.1,0 0,0 z"
         stroke="#0000ff"
         stroke-width="0.2"
         id="path5523" />
      <path
         d="m 335.8,301.1 h -2.9 c -0.1,0 0,0.1 0,0 v -2.8 c 0,-0.1 -0.1,0 0,0 h 5.8 c 0.1,0 0,-0.1 0,0 v 2.8 c 0,0.1 0.1,0 0,0 z"
         stroke="#0000ff"
         stroke-width="0.2"
         id="path5525" />
      <path
         d="m 347.8,301.1 h -2.9 c -0.1,0 0,0.1 0,0 v -2.8 c 0,-0.1 -0.1,0 0,0 h 5.8 c 0.1,0 0,-0.1 0,0 v 2.8 c 0,0.1 0.1,0 0,0 z"
         stroke="#0000ff"
         stroke-width="0.2"
         id="path5527" />
      <path
         d="m 359.8,301.1 h -2.9 c -0.1,0 0,0.1 0,0 v -2.8 c 0,-0.1 -0.1,0 0,0 h 5.8 c 0.1,0 0,-0.1 0,0 v 2.8 c 0,0.1 0.1,0 0,0 z"
         stroke="#0000ff"
         stroke-width="0.2"
         id="path5529" />
      <text
         alignment-baseline="hanging"
         font-size="4px"
         style="font-style:normal;font-weight:normal;font-family:sans-serif;fill:#ff0000"
         text-anchor="middle"
         transform="translate(281.8,158.2)"
         id="text5531">Right Side</text>
      <path
         d="m 194.8,310.2 h 12 c 1.071,0 2.123,-0.282 3.05,-0.817 0.927,-0.536 1.697,-1.306 2.233,-2.233 0.518,-0.897 1.262,-1.642 2.159,-2.16 0.897,-0.517 1.915,-0.79 2.95,-0.79 h 129.216 c 1.035,0 2.053,0.273 2.95,0.79 0.897,0.518 1.641,1.263 2.159,2.16 0.536,0.927 1.306,1.697 2.233,2.233 0.927,0.535 1.979,0.817 3.05,0.817 h 12 c 0.055,0 0.1,-0.045 0.1,-0.1 v -6.15 c 0,-0.1 -0.1,0 0,0 h 2.9 c 0.055,0 0.1,-0.045 0.1,-0.1 v -6 c 0,-0.055 -0.045,-0.1 -0.1,-0.1 h -2.9 c -0.1,0 0,0.1 0,0 v -5.8 c 0,-0.1 -0.1,0 0,0 h 2.9 c 0.055,0 0.1,-0.045 0.1,-0.1 v -6 c 0,-0.055 -0.045,-0.1 -0.1,-0.1 h -2.9 c -0.1,0 0,0.1 0,0 v -5.8 c 0,-0.1 -0.1,0 0,0 h 2.9 c 0.055,0 0.1,-0.045 0.1,-0.1 v -6 c 0,-0.055 -0.045,-0.1 -0.1,-0.1 h -2.9 c -0.1,0 0,0.1 0,0 v -5.8 c 0,-0.1 -0.1,0 0,0 h 2.9 c 0.055,0 0.1,-0.045 0.1,-0.1 v -6 c 0,-0.055 -0.045,-0.1 -0.1,-0.1 h -2.9 c -0.1,0 0,0.1 0,0 v -5.8 c 0,-0.1 -0.1,0 0,0 h 2.9 c 0.055,0 0.1,-0.045 0.1,-0.1 v -6 c 0,-0.055 -0.045,-0.1 -0.1,-0.1 h -2.9 c -0.1,0 0,0.1 0,0 v -5.8 c 0,-0.1 -0.1,0 0,0 h 2.9 c 0.055,0 0.1,-0.045 0.1,-0.1 v -6 c 0,-0.055 -0.045,-0.1 -0.1,-0.1 h -2.9 c -0.1,0 0,0.1 0,0 v -5.8 c 0,-0.1 -0.1,0 0,0 h 2.9 c 0.055,0 0.1,-0.045 0.1,-0.1 v -6 c 0,-0.055 -0.045,-0.1 -0.1,-0.1 h -2.9 c -0.1,0 0,0.1 0,0 v -6.15 -1.5 c 0,-0.018 -0.005,-0.035 -0.013,-0.05 L 250.53,13.05 C 250.512,13.019 250.479,13 250.443,13 h -2.598 -5.422 c -0.1,0 0,0.1 0,0 v -2.9 c 0,-0.055 -0.045,-0.1 -0.1,-0.1 h -6 c -0.056,0 -0.1,0.045 -0.1,0.1 V 13 c 0,0.1 0.1,0 0,0 h -5.8 c -0.1,0 0,0.1 0,0 v -2.9 c 0,-0.055 -0.045,-0.1 -0.1,-0.1 h -6 c -0.056,0 -0.1,0.045 -0.1,0.1 V 13 c 0,0.1 0.1,0 0,0 h -5.8 c -0.1,0 0,0.1 0,0 v -2.9 c 0,-0.055 -0.045,-0.1 -0.1,-0.1 h -6 c -0.056,0 -0.1,0.045 -0.1,0.1 V 13 c 0,0.1 0.1,0 0,0 h -5.8 c -0.1,0 0,0.1 0,0 v -2.9 c 0,-0.055 -0.045,-0.1 -0.1,-0.1 h -6 c -0.056,0 -0.1,0.045 -0.1,0.1 V 13 c 0,0.1 0.1,0 0,0 H 194.8 c -0.055,0 -0.1,0.045 -0.1,0.1 v 282 4.4 c 0,0.1 0.1,0 0,0 h -2.9 c -0.055,0 -0.1,0.045 -0.1,0.1 v 6 c 0,0.055 0.045,0.1 0.1,0.1 h 2.9 c 0.1,0 0,-0.1 0,0 v 4.4 c 0,0.055 0.045,0.1 0.1,0.1"
         stroke="#000000"
         stroke-width="0.2"
         id="path5533" />
      <path
         d="m 361.767,211.768 1.825,3.161 c 0.05,0.087 0.086,-0.05 0,0 l -2.555,1.475 c -0.087,0.05 0.05,0.087 0,0 l -3.65,-6.322 c -0.05,-0.086 -0.087,0.05 0,0 l 2.555,-1.475 c 0.086,-0.05 -0.05,-0.086 0,0 z"
         stroke="#0000ff"
         stroke-width="0.2"
         id="path5535" />
      <path
         d="m 252.41,22.357 1.825,3.161 c 0.05,0.086 0.087,-0.05 0,0 l -2.555,1.475 c -0.086,0.05 0.05,0.086 0,0 l -3.65,-6.322 c -0.05,-0.087 -0.086,0.05 0,0 l 2.555,-1.475 c 0.087,-0.05 -0.05,-0.087 0,0 z"
         stroke="#0000ff"
         stroke-width="0.2"
         id="path5537" />
      <path
         d="m 197.8,31.1 v -1.55 c 0,-0.1 -0.1,0 0,0 h 3.1 c 0.1,0 0,-0.1 0,0 v 3.1 c 0,0.1 0.1,0 0,0 h -3.1 c -0.1,0 0,0.1 0,0 z"
         stroke="#0000ff"
         stroke-width="0.2"
         id="path5539" />
    </g>
    <g
       id="p-3"
       style="fill:none;stroke-linecap:round;stroke-linejoin:round"
       transform="translate(-181.72997,283.01988)">
      <text
         alignment-baseline="hanging"
         font-size="4px"
         style="font-style:normal;font-weight:normal;font-family:sans-serif;fill:#ff0000"
         text-anchor="middle"
         transform="translate(463.5,188.2)"
         id="text5542">Floor</text>
      <path
         d="m 376.5,307.2 h 5.9 c 0.1,0 0,-0.1 0,0 v 2.9 c 0,0.055 0.045,0.1 0.1,0.1 h 6 c 0.055,0 0.1,-0.045 0.1,-0.1 v -2.9 c 0,-0.1 -0.1,0 0,0 h 5.8 c 0.1,0 0,-0.1 0,0 v 2.9 c 0,0.055 0.045,0.1 0.1,0.1 h 6 c 0.055,0 0.1,-0.045 0.1,-0.1 v -2.9 c 0,-0.1 -0.1,0 0,0 h 5.8 c 0.1,0 0,-0.1 0,0 v 2.9 c 0,0.055 0.045,0.1 0.1,0.1 h 6 c 0.055,0 0.1,-0.045 0.1,-0.1 v -2.9 c 0,-0.1 -0.1,0 0,0 h 5.8 c 0.1,0 0,-0.1 0,0 v 2.9 c 0,0.055 0.045,0.1 0.1,0.1 h 6 c 0.055,0 0.1,-0.045 0.1,-0.1 v -2.9 c 0,-0.1 -0.1,0 0,0 h 5.8 c 0.1,0 0,-0.1 0,0 v 2.9 c 0,0.055 0.045,0.1 0.1,0.1 h 6 c 0.055,0 0.1,-0.045 0.1,-0.1 v -2.9 c 0,-0.1 -0.1,0 0,0 h 5.8 c 0.1,0 0,-0.1 0,0 v 2.9 c 0,0.055 0.045,0.1 0.1,0.1 h 6 c 0.055,0 0.1,-0.045 0.1,-0.1 v -2.9 c 0,-0.1 -0.1,0 0,0 h 5.8 c 0.1,0 0,-0.1 0,0 v 2.9 c 0,0.055 0.045,0.1 0.1,0.1 h 6 c 0.055,0 0.1,-0.045 0.1,-0.1 v -2.9 c 0,-0.1 -0.1,0 0,0 h 5.8 c 0.1,0 0,-0.1 0,0 v 2.9 c 0,0.055 0.045,0.1 0.1,0.1 h 6 c 0.055,0 0.1,-0.045 0.1,-0.1 v -2.9 c 0,-0.1 -0.1,0 0,0 h 5.8 c 0.1,0 0,-0.1 0,0 v 2.9 c 0,0.055 0.045,0.1 0.1,0.1 h 6 c 0.055,0 0.1,-0.045 0.1,-0.1 v -2.9 c 0,-0.1 -0.1,0 0,0 h 5.8 c 0.1,0 0,-0.1 0,0 v 2.9 c 0,0.055 0.045,0.1 0.1,0.1 h 6 c 0.055,0 0.1,-0.045 0.1,-0.1 v -2.9 c 0,-0.1 -0.1,0 0,0 h 5.8 c 0.1,0 0,-0.1 0,0 v 2.9 c 0,0.055 0.045,0.1 0.1,0.1 h 6 c 0.055,0 0.1,-0.045 0.1,-0.1 v -2.9 c 0,-0.1 -0.1,0 0,0 h 5.8 c 0.1,0 0,-0.1 0,0 v 2.9 c 0,0.055 0.045,0.1 0.1,0.1 h 6 c 0.055,0 0.1,-0.045 0.1,-0.1 v -2.9 c 0,-0.1 -0.1,0 0,0 h 5.8 c 0.1,0 0,-0.1 0,0 v 2.9 c 0,0.055 0.045,0.1 0.1,0.1 h 6 c 0.055,0 0.1,-0.045 0.1,-0.1 v -2.9 c 0,-0.1 -0.1,0 0,0 h 5.8 c 0.1,0 0,-0.1 0,0 v 2.9 c 0,0.055 0.045,0.1 0.1,0.1 h 6 c 0.055,0 0.1,-0.045 0.1,-0.1 v -2.9 c 0,-0.1 -0.1,0 0,0 h 5.9 c 0.055,0 0.1,-0.045 0.1,-0.1 v -5.9 c 0,-0.1 -0.1,0 0,0 h 2.9 c 0.055,0 0.1,-0.045 0.1,-0.1 v -6 c 0,-0.055 -0.045,-0.1 -0.1,-0.1 h -2.9 c -0.1,0 0,0.1 0,0 v -5.8 c 0,-0.1 -0.1,0 0,0 h 2.9 c 0.055,0 0.1,-0.045 0.1,-0.1 v -6 c 0,-0.055 -0.045,-0.1 -0.1,-0.1 h -2.9 c -0.1,0 0,0.1 0,0 v -5.8 c 0,-0.1 -0.1,0 0,0 h 2.9 c 0.055,0 0.1,-0.045 0.1,-0.1 v -6 c 0,-0.055 -0.045,-0.1 -0.1,-0.1 h -2.9 c -0.1,0 0,0.1 0,0 v -5.8 c 0,-0.1 -0.1,0 0,0 h 2.9 c 0.055,0 0.1,-0.045 0.1,-0.1 v -6 c 0,-0.055 -0.045,-0.1 -0.1,-0.1 h -2.9 c -0.1,0 0,0.1 0,0 v -5.8 c 0,-0.1 -0.1,0 0,0 h 2.9 c 0.055,0 0.1,-0.045 0.1,-0.1 v -6 c 0,-0.055 -0.045,-0.1 -0.1,-0.1 h -2.9 c -0.1,0 0,0.1 0,0 v -5.8 c 0,-0.1 -0.1,0 0,0 h 2.9 c 0.055,0 0.1,-0.045 0.1,-0.1 v -6 c 0,-0.055 -0.045,-0.1 -0.1,-0.1 h -2.9 c -0.1,0 0,0.1 0,0 v -5.8 c 0,-0.1 -0.1,0 0,0 h 2.9 c 0.055,0 0.1,-0.045 0.1,-0.1 v -6 c 0,-0.055 -0.045,-0.1 -0.1,-0.1 h -2.9 c -0.1,0 0,0.1 0,0 v -5.8 c 0,-0.1 -0.1,0 0,0 h 2.9 c 0.055,0 0.1,-0.045 0.1,-0.1 v -6 c 0,-0.055 -0.045,-0.1 -0.1,-0.1 h -2.9 c -0.1,0 0,0.1 0,0 v -5.8 c 0,-0.1 -0.1,0 0,0 h 2.9 c 0.055,0 0.1,-0.045 0.1,-0.1 v -6 c 0,-0.055 -0.045,-0.1 -0.1,-0.1 h -2.9 c -0.1,0 0,0.1 0,0 v -5.8 c 0,-0.1 -0.1,0 0,0 h 2.9 c 0.055,0 0.1,-0.045 0.1,-0.1 v -6 c 0,-0.055 -0.045,-0.1 -0.1,-0.1 h -2.9 c -0.1,0 0,0.1 0,0 v -5.8 c 0,-0.1 -0.1,0 0,0 h 2.9 c 0.055,0 0.1,-0.045 0.1,-0.1 v -6 c 0,-0.055 -0.045,-0.1 -0.1,-0.1 h -2.9 c -0.1,0 0,0.1 0,0 v -5.8 c 0,-0.1 -0.1,0 0,0 h 2.9 c 0.055,0 0.1,-0.045 0.1,-0.1 v -6 c 0,-0.055 -0.045,-0.1 -0.1,-0.1 h -2.9 c -0.1,0 0,0.1 0,0 v -5.8 c 0,-0.1 -0.1,0 0,0 h 2.9 c 0.055,0 0.1,-0.045 0.1,-0.1 v -6 c 0,-0.055 -0.045,-0.1 -0.1,-0.1 h -2.9 c -0.1,0 0,0.1 0,0 v -5.8 c 0,-0.1 -0.1,0 0,0 h 2.9 c 0.055,0 0.1,-0.045 0.1,-0.1 v -6 c 0,-0.055 -0.045,-0.1 -0.1,-0.1 h -2.9 c -0.1,0 0,0.1 0,0 v -5.8 c 0,-0.1 -0.1,0 0,0 h 2.9 c 0.055,0 0.1,-0.045 0.1,-0.1 v -6 c 0,-0.055 -0.045,-0.1 -0.1,-0.1 h -2.9 c -0.1,0 0,0.1 0,0 v -5.8 c 0,-0.1 -0.1,0 0,0 h 2.9 c 0.055,0 0.1,-0.045 0.1,-0.1 v -6 c 0,-0.055 -0.045,-0.1 -0.1,-0.1 h -2.9 c -0.1,0 0,0.1 0,0 v -5.8 c 0,-0.1 -0.1,0 0,0 h 2.9 c 0.055,0 0.1,-0.045 0.1,-0.1 v -6 c 0,-0.055 -0.045,-0.1 -0.1,-0.1 h -2.9 c -0.1,0 0,0.1 0,0 v -5.8 c 0,-0.1 -0.1,0 0,0 h 2.9 c 0.055,0 0.1,-0.045 0.1,-0.1 v -6 c 0,-0.055 -0.045,-0.1 -0.1,-0.1 h -2.9 c -0.1,0 0,0.1 0,0 v -5.8 c 0,-0.1 -0.1,0 0,0 h 2.9 c 0.055,0 0.1,-0.045 0.1,-0.1 v -6 c 0,-0.055 -0.045,-0.1 -0.1,-0.1 h -2.9 c -0.1,0 0,0.1 0,0 v -5.9 c 0,-0.055 -0.045,-0.1 -0.1,-0.1 h -5.9 c -0.1,0 0,0.1 0,0 v -2.9 c 0,-0.055 -0.045,-0.1 -0.1,-0.1 h -6 c -0.055,0 -0.1,0.045 -0.1,0.1 V 73 c 0,0.1 0.1,0 0,0 h -5.8 c -0.1,0 0,0.1 0,0 v -2.9 c 0,-0.055 -0.045,-0.1 -0.1,-0.1 h -6 c -0.055,0 -0.1,0.045 -0.1,0.1 V 73 c 0,0.1 0.1,0 0,0 h -5.8 c -0.1,0 0,0.1 0,0 v -2.9 c 0,-0.055 -0.045,-0.1 -0.1,-0.1 h -6 c -0.055,0 -0.1,0.045 -0.1,0.1 V 73 c 0,0.1 0.1,0 0,0 h -5.8 c -0.1,0 0,0.1 0,0 v -2.9 c 0,-0.055 -0.045,-0.1 -0.1,-0.1 h -6 c -0.055,0 -0.1,0.045 -0.1,0.1 V 73 c 0,0.1 0.1,0 0,0 h -5.8 c -0.1,0 0,0.1 0,0 v -2.9 c 0,-0.055 -0.045,-0.1 -0.1,-0.1 h -6 c -0.055,0 -0.1,0.045 -0.1,0.1 V 73 c 0,0.1 0.1,0 0,0 h -5.8 c -0.1,0 0,0.1 0,0 v -2.9 c 0,-0.055 -0.045,-0.1 -0.1,-0.1 h -6 c -0.055,0 -0.1,0.045 -0.1,0.1 V 73 c 0,0.1 0.1,0 0,0 h -5.8 c -0.1,0 0,0.1 0,0 v -2.9 c 0,-0.055 -0.045,-0.1 -0.1,-0.1 h -6 c -0.055,0 -0.1,0.045 -0.1,0.1 V 73 c 0,0.1 0.1,0 0,0 h -5.8 c -0.1,0 0,0.1 0,0 v -2.9 c 0,-0.055 -0.045,-0.1 -0.1,-0.1 h -6 c -0.055,0 -0.1,0.045 -0.1,0.1 V 73 c 0,0.1 0.1,0 0,0 h -5.8 c -0.1,0 0,0.1 0,0 v -2.9 c 0,-0.055 -0.045,-0.1 -0.1,-0.1 h -6 c -0.055,0 -0.1,0.045 -0.1,0.1 V 73 c 0,0.1 0.1,0 0,0 h -5.8 c -0.1,0 0,0.1 0,0 v -2.9 c 0,-0.055 -0.045,-0.1 -0.1,-0.1 h -6 c -0.055,0 -0.1,0.045 -0.1,0.1 V 73 c 0,0.1 0.1,0 0,0 h -5.8 c -0.1,0 0,0.1 0,0 v -2.9 c 0,-0.055 -0.045,-0.1 -0.1,-0.1 h -6 c -0.055,0 -0.1,0.045 -0.1,0.1 V 73 c 0,0.1 0.1,0 0,0 h -5.8 c -0.1,0 0,0.1 0,0 v -2.9 c 0,-0.055 -0.045,-0.1 -0.1,-0.1 h -6 c -0.055,0 -0.1,0.045 -0.1,0.1 V 73 c 0,0.1 0.1,0 0,0 h -5.8 c -0.1,0 0,0.1 0,0 v -2.9 c 0,-0.055 -0.045,-0.1 -0.1,-0.1 h -6 c -0.055,0 -0.1,0.045 -0.1,0.1 V 73 c 0,0.1 0.1,0 0,0 h -5.8 c -0.1,0 0,0.1 0,0 v -2.9 c 0,-0.055 -0.045,-0.1 -0.1,-0.1 h -6 c -0.055,0 -0.1,0.045 -0.1,0.1 V 73 c 0,0.1 0.1,0 0,0 h -5.9 c -0.055,0 -0.1,0.045 -0.1,0.1 V 79 c 0,0.1 0.1,0 0,0 h -2.9 c -0.055,0 -0.1,0.045 -0.1,0.1 v 6 c 0,0.055 0.045,0.1 0.1,0.1 h 2.9 c 0.1,0 0,-0.1 0,0 V 91 c 0,0.1 0.1,0 0,0 h -2.9 c -0.055,0 -0.1,0.045 -0.1,0.1 v 6 c 0,0.055 0.045,0.1 0.1,0.1 h 2.9 c 0.1,0 0,-0.1 0,0 v 5.8 c 0,0.1 0.1,0 0,0 h -2.9 c -0.055,0 -0.1,0.045 -0.1,0.1 v 6 c 0,0.055 0.045,0.1 0.1,0.1 h 2.9 c 0.1,0 0,-0.1 0,0 v 5.8 c 0,0.1 0.1,0 0,0 h -2.9 c -0.055,0 -0.1,0.045 -0.1,0.1 v 6 c 0,0.055 0.045,0.1 0.1,0.1 h 2.9 c 0.1,0 0,-0.1 0,0 v 5.8 c 0,0.1 0.1,0 0,0 h -2.9 c -0.055,0 -0.1,0.045 -0.1,0.1 v 6 c 0,0.055 0.045,0.1 0.1,0.1 h 2.9 c 0.1,0 0,-0.1 0,0 v 5.8 c 0,0.1 0.1,0 0,0 h -2.9 c -0.055,0 -0.1,0.045 -0.1,0.1 v 6 c 0,0.055 0.045,0.1 0.1,0.1 h 2.9 c 0.1,0 0,-0.1 0,0 v 5.8 c 0,0.1 0.1,0 0,0 h -2.9 c -0.055,0 -0.1,0.045 -0.1,0.1 v 6 c 0,0.055 0.045,0.1 0.1,0.1 h 2.9 c 0.1,0 0,-0.1 0,0 v 5.8 c 0,0.1 0.1,0 0,0 h -2.9 c -0.055,0 -0.1,0.045 -0.1,0.1 v 6 c 0,0.055 0.045,0.1 0.1,0.1 h 2.9 c 0.1,0 0,-0.1 0,0 v 5.8 c 0,0.1 0.1,0 0,0 h -2.9 c -0.055,0 -0.1,0.045 -0.1,0.1 v 6 c 0,0.055 0.045,0.1 0.1,0.1 h 2.9 c 0.1,0 0,-0.1 0,0 v 5.8 c 0,0.1 0.1,0 0,0 h -2.9 c -0.055,0 -0.1,0.045 -0.1,0.1 v 6 c 0,0.055 0.045,0.1 0.1,0.1 h 2.9 c 0.1,0 0,-0.1 0,0 v 5.8 c 0,0.1 0.1,0 0,0 h -2.9 c -0.055,0 -0.1,0.045 -0.1,0.1 v 6 c 0,0.055 0.045,0.1 0.1,0.1 h 2.9 c 0.1,0 0,-0.1 0,0 v 5.8 c 0,0.1 0.1,0 0,0 h -2.9 c -0.055,0 -0.1,0.045 -0.1,0.1 v 6 c 0,0.055 0.045,0.1 0.1,0.1 h 2.9 c 0.1,0 0,-0.1 0,0 v 5.8 c 0,0.1 0.1,0 0,0 h -2.9 c -0.055,0 -0.1,0.045 -0.1,0.1 v 6 c 0,0.055 0.045,0.1 0.1,0.1 h 2.9 c 0.1,0 0,-0.1 0,0 v 5.8 c 0,0.1 0.1,0 0,0 h -2.9 c -0.055,0 -0.1,0.045 -0.1,0.1 v 6 c 0,0.055 0.045,0.1 0.1,0.1 h 2.9 c 0.1,0 0,-0.1 0,0 v 5.8 c 0,0.1 0.1,0 0,0 h -2.9 c -0.055,0 -0.1,0.045 -0.1,0.1 v 6 c 0,0.055 0.045,0.1 0.1,0.1 h 2.9 c 0.1,0 0,-0.1 0,0 v 5.8 c 0,0.1 0.1,0 0,0 h -2.9 c -0.055,0 -0.1,0.045 -0.1,0.1 v 6 c 0,0.055 0.045,0.1 0.1,0.1 h 2.9 c 0.1,0 0,-0.1 0,0 v 5.8 c 0,0.1 0.1,0 0,0 h -2.9 c -0.055,0 -0.1,0.045 -0.1,0.1 v 6 c 0,0.055 0.045,0.1 0.1,0.1 h 2.9 c 0.1,0 0,-0.1 0,0 v 5.8 c 0,0.1 0.1,0 0,0 h -2.9 c -0.055,0 -0.1,0.045 -0.1,0.1 v 6 c 0,0.055 0.045,0.1 0.1,0.1 h 2.9 c 0.1,0 0,-0.1 0,0 v 5.8 c 0,0.1 0.1,0 0,0 h -2.9 c -0.055,0 -0.1,0.045 -0.1,0.1 v 6 c 0,0.055 0.045,0.1 0.1,0.1 h 2.9 c 0.1,0 0,-0.1 0,0 v 5.9 c 0,0.055 0.045,0.1 0.1,0.1"
         stroke="#000000"
         stroke-width="0.2"
         id="path5544" />
    </g>
    <g
       id="p-5"
       style="fill:none;stroke-linecap:round;stroke-linejoin:round"
       transform="translate(-398.24763,-64.738888)">
      <path
         d="m 660.757,307 h -2.9 c -0.1,0 0,0.1 0,0 v -2.8 c 0,-0.1 -0.1,0 0,0 h 5.8 c 0.1,0 0,-0.1 0,0 v 2.8 c 0,0.1 0.1,0 0,0 z"
         stroke="#0000ff"
         stroke-width="0.2"
         id="path5590" />
      <path
         d="m 672.757,307 h -2.9 c -0.1,0 0,0.1 0,0 v -2.8 c 0,-0.1 -0.1,0 0,0 h 5.8 c 0.1,0 0,-0.1 0,0 v 2.8 c 0,0.1 0.1,0 0,0 z"
         stroke="#0000ff"
         stroke-width="0.2"
         id="path5592" />
      <path
         d="m 684.757,307 h -2.9 c -0.1,0 0,0.1 0,0 v -2.8 c 0,-0.1 -0.1,0 0,0 h 5.8 c 0.1,0 0,-0.1 0,0 v 2.8 c 0,0.1 0.1,0 0,0 z"
         stroke="#0000ff"
         stroke-width="0.2"
         id="path5594" />
      <path
         d="m 696.757,307 h -2.9 c -0.1,0 0,0.1 0,0 v -2.8 c 0,-0.1 -0.1,0 0,0 h 5.8 c 0.1,0 0,-0.1 0,0 v 2.8 c 0,0.1 0.1,0 0,0 z"
         stroke="#0000ff"
         stroke-width="0.2"
         id="path5596" />
      <path
         d="m 708.757,307 h -2.9 c -0.1,0 0,0.1 0,0 v -2.8 c 0,-0.1 -0.1,0 0,0 h 5.8 c 0.1,0 0,-0.1 0,0 v 2.8 c 0,0.1 0.1,0 0,0 z"
         stroke="#0000ff"
         stroke-width="0.2"
         id="path5598" />
      <path
         d="m 720.757,307 h -2.9 c -0.1,0 0,0.1 0,0 v -2.8 c 0,-0.1 -0.1,0 0,0 h 5.8 c 0.1,0 0,-0.1 0,0 v 2.8 c 0,0.1 0.1,0 0,0 z"
         stroke="#0000ff"
         stroke-width="0.2"
         id="path5600" />
      <path
         d="m 732.757,307 h -2.9 c -0.1,0 0,0.1 0,0 v -2.8 c 0,-0.1 -0.1,0 0,0 h 5.8 c 0.1,0 0,-0.1 0,0 v 2.8 c 0,0.1 0.1,0 0,0 z"
         stroke="#0000ff"
         stroke-width="0.2"
         id="path5602" />
      <path
         d="m 744.757,307 h -2.9 c -0.1,0 0,0.1 0,0 v -2.8 c 0,-0.1 -0.1,0 0,0 h 5.8 c 0.1,0 0,-0.1 0,0 v 2.8 c 0,0.1 0.1,0 0,0 z"
         stroke="#0000ff"
         stroke-width="0.2"
         id="path5604" />
      <path
         d="m 756.757,307 h -2.9 c -0.1,0 0,0.1 0,0 v -2.8 c 0,-0.1 -0.1,0 0,0 h 5.8 c 0.1,0 0,-0.1 0,0 v 2.8 c 0,0.1 0.1,0 0,0 z"
         stroke="#0000ff"
         stroke-width="0.2"
         id="path5606" />
      <path
         d="m 768.757,307 h -2.9 c -0.1,0 0,0.1 0,0 v -2.8 c 0,-0.1 -0.1,0 0,0 h 5.8 c 0.1,0 0,-0.1 0,0 v 2.8 c 0,0.1 0.1,0 0,0 z"
         stroke="#0000ff"
         stroke-width="0.2"
         id="path5608" />
      <path
         d="m 780.757,307 h -2.9 c -0.1,0 0,0.1 0,0 v -2.8 c 0,-0.1 -0.1,0 0,0 h 5.8 c 0.1,0 0,-0.1 0,0 v 2.8 c 0,0.1 0.1,0 0,0 z"
         stroke="#0000ff"
         stroke-width="0.2"
         id="path5610" />
      <path
         d="m 792.757,307 h -2.9 c -0.1,0 0,0.1 0,0 v -2.8 c 0,-0.1 -0.1,0 0,0 h 5.8 c 0.1,0 0,-0.1 0,0 v 2.8 c 0,0.1 0.1,0 0,0 z"
         stroke="#0000ff"
         stroke-width="0.2"
         id="path5612" />
      <path
         d="m 804.757,307 h -2.9 c -0.1,0 0,0.1 0,0 v -2.8 c 0,-0.1 -0.1,0 0,0 h 5.8 c 0.1,0 0,-0.1 0,0 v 2.8 c 0,0.1 0.1,0 0,0 z"
         stroke="#0000ff"
         stroke-width="0.2"
         id="path5614" />
      <path
         d="m 816.757,307 h -2.9 c -0.1,0 0,0.1 0,0 v -2.8 c 0,-0.1 -0.1,0 0,0 h 5.8 c 0.1,0 0,-0.1 0,0 v 2.8 c 0,0.1 0.1,0 0,0 z"
         stroke="#0000ff"
         stroke-width="0.2"
         id="path5616" />
      <path
         d="m 828.757,307 h -2.9 c -0.1,0 0,0.1 0,0 v -2.8 c 0,-0.1 -0.1,0 0,0 h 5.8 c 0.1,0 0,-0.1 0,0 v 2.8 c 0,0.1 0.1,0 0,0 z"
         stroke="#0000ff"
         stroke-width="0.2"
         id="path5618" />
      <path
         d="m 840.757,307 h -2.9 c -0.1,0 0,0.1 0,0 v -2.8 c 0,-0.1 -0.1,0 0,0 h 5.8 c 0.1,0 0,-0.1 0,0 v 2.8 c 0,0.1 0.1,0 0,0 z"
         stroke="#0000ff"
         stroke-width="0.2"
         id="path5620" />
      <path
         d="m 852.757,307 h -2.9 c -0.1,0 0,0.1 0,0 v -2.8 c 0,-0.1 -0.1,0 0,0 h 5.8 c 0.1,0 0,-0.1 0,0 v 2.8 c 0,0.1 0.1,0 0,0 z"
         stroke="#0000ff"
         stroke-width="0.2"
         id="path5622" />
      <path
         d="m 864.757,307 h -2.9 c -0.1,0 0,0.1 0,0 v -2.8 c 0,-0.1 -0.1,0 0,0 h 5.8 c 0.1,0 0,-0.1 0,0 v 2.8 c 0,0.1 0.1,0 0,0 z"
         stroke="#0000ff"
         stroke-width="0.2"
         id="path5624" />
      <path
         d="m 876.757,307 h -2.9 c -0.1,0 0,0.1 0,0 v -2.8 c 0,-0.1 -0.1,0 0,0 h 5.8 c 0.1,0 0,-0.1 0,0 v 2.8 c 0,0.1 0.1,0 0,0 z"
         stroke="#0000ff"
         stroke-width="0.2"
         id="path5626" />
      <text
         alignment-baseline="hanging"
         font-size="4px"
         style="font-style:normal;font-weight:normal;font-family:sans-serif;fill:#ff0000"
         text-anchor="middle"
         transform="translate(768.757,188.2)"
         id="text5628">Panel</text>
      <path
         d="m 650.4,310.2 h 236.714 3 c 0.055,0 0.1,-0.045 0.1,-0.1 v -6 -228 -6 c 0,-0.055 -0.045,-0.1 -0.1,-0.1 h -3 -236.714 -3 c -0.055,0 -0.1,0.045 -0.1,0.1 v 6 228 6 c 0,0.055 0.045,0.1 0.1,0.1 h 3"
         stroke="#000000"
         stroke-width="0.2"
         id="path5630" />
      <path
         d="m 876.757,73.2 h 2.9 c 0.1,0 0,-0.1 0,0 V 76 c 0,0.1 0.1,0 0,0 h -5.8 c -0.1,0 0,0.1 0,0 v -2.8 c 0,-0.1 -0.1,0 0,0 z"
         stroke="#0000ff"
         stroke-width="0.2"
         id="path5632" />
      <path
         d="m 864.757,73.2 h 2.9 c 0.1,0 0,-0.1 0,0 V 76 c 0,0.1 0.1,0 0,0 h -5.8 c -0.1,0 0,0.1 0,0 v -2.8 c 0,-0.1 -0.1,0 0,0 z"
         stroke="#0000ff"
         stroke-width="0.2"
         id="path5634" />
      <path
         d="m 852.757,73.2 h 2.9 c 0.1,0 0,-0.1 0,0 V 76 c 0,0.1 0.1,0 0,0 h -5.8 c -0.1,0 0,0.1 0,0 v -2.8 c 0,-0.1 -0.1,0 0,0 z"
         stroke="#0000ff"
         stroke-width="0.2"
         id="path5636" />
      <path
         d="m 840.757,73.2 h 2.9 c 0.1,0 0,-0.1 0,0 V 76 c 0,0.1 0.1,0 0,0 h -5.8 c -0.1,0 0,0.1 0,0 v -2.8 c 0,-0.1 -0.1,0 0,0 z"
         stroke="#0000ff"
         stroke-width="0.2"
         id="path5638" />
      <path
         d="m 828.757,73.2 h 2.9 c 0.1,0 0,-0.1 0,0 V 76 c 0,0.1 0.1,0 0,0 h -5.8 c -0.1,0 0,0.1 0,0 v -2.8 c 0,-0.1 -0.1,0 0,0 z"
         stroke="#0000ff"
         stroke-width="0.2"
         id="path5640" />
      <path
         d="m 816.757,73.2 h 2.9 c 0.1,0 0,-0.1 0,0 V 76 c 0,0.1 0.1,0 0,0 h -5.8 c -0.1,0 0,0.1 0,0 v -2.8 c 0,-0.1 -0.1,0 0,0 z"
         stroke="#0000ff"
         stroke-width="0.2"
         id="path5642" />
      <path
         d="m 804.757,73.2 h 2.9 c 0.1,0 0,-0.1 0,0 V 76 c 0,0.1 0.1,0 0,0 h -5.8 c -0.1,0 0,0.1 0,0 v -2.8 c 0,-0.1 -0.1,0 0,0 z"
         stroke="#0000ff"
         stroke-width="0.2"
         id="path5644" />
      <path
         d="m 792.757,73.2 h 2.9 c 0.1,0 0,-0.1 0,0 V 76 c 0,0.1 0.1,0 0,0 h -5.8 c -0.1,0 0,0.1 0,0 v -2.8 c 0,-0.1 -0.1,0 0,0 z"
         stroke="#0000ff"
         stroke-width="0.2"
         id="path5646" />
      <path
         d="m 780.757,73.2 h 2.9 c 0.1,0 0,-0.1 0,0 V 76 c 0,0.1 0.1,0 0,0 h -5.8 c -0.1,0 0,0.1 0,0 v -2.8 c 0,-0.1 -0.1,0 0,0 z"
         stroke="#0000ff"
         stroke-width="0.2"
         id="path5648" />
      <path
         d="m 768.757,73.2 h 2.9 c 0.1,0 0,-0.1 0,0 V 76 c 0,0.1 0.1,0 0,0 h -5.8 c -0.1,0 0,0.1 0,0 v -2.8 c 0,-0.1 -0.1,0 0,0 z"
         stroke="#0000ff"
         stroke-width="0.2"
         id="path5650" />
      <path
         d="m 756.757,73.2 h 2.9 c 0.1,0 0,-0.1 0,0 V 76 c 0,0.1 0.1,0 0,0 h -5.8 c -0.1,0 0,0.1 0,0 v -2.8 c 0,-0.1 -0.1,0 0,0 z"
         stroke="#0000ff"
         stroke-width="0.2"
         id="path5652" />
      <path
         d="m 744.757,73.2 h 2.9 c 0.1,0 0,-0.1 0,0 V 76 c 0,0.1 0.1,0 0,0 h -5.8 c -0.1,0 0,0.1 0,0 v -2.8 c 0,-0.1 -0.1,0 0,0 z"
         stroke="#0000ff"
         stroke-width="0.2"
         id="path5654" />
      <path
         d="m 732.757,73.2 h 2.9 c 0.1,0 0,-0.1 0,0 V 76 c 0,0.1 0.1,0 0,0 h -5.8 c -0.1,0 0,0.1 0,0 v -2.8 c 0,-0.1 -0.1,0 0,0 z"
         stroke="#0000ff"
         stroke-width="0.2"
         id="path5656" />
      <path
         d="m 720.757,73.2 h 2.9 c 0.1,0 0,-0.1 0,0 V 76 c 0,0.1 0.1,0 0,0 h -5.8 c -0.1,0 0,0.1 0,0 v -2.8 c 0,-0.1 -0.1,0 0,0 z"
         stroke="#0000ff"
         stroke-width="0.2"
         id="path5658" />
      <path
         d="m 708.757,73.2 h 2.9 c 0.1,0 0,-0.1 0,0 V 76 c 0,0.1 0.1,0 0,0 h -5.8 c -0.1,0 0,0.1 0,0 v -2.8 c 0,-0.1 -0.1,0 0,0 z"
         stroke="#0000ff"
         stroke-width="0.2"
         id="path5660" />
      <path
         d="m 696.757,73.2 h 2.9 c 0.1,0 0,-0.1 0,0 V 76 c 0,0.1 0.1,0 0,0 h -5.8 c -0.1,0 0,0.1 0,0 v -2.8 c 0,-0.1 -0.1,0 0,0 z"
         stroke="#0000ff"
         stroke-width="0.2"
         id="path5662" />
      <path
         d="m 684.757,73.2 h 2.9 c 0.1,0 0,-0.1 0,0 V 76 c 0,0.1 0.1,0 0,0 h -5.8 c -0.1,0 0,0.1 0,0 v -2.8 c 0,-0.1 -0.1,0 0,0 z"
         stroke="#0000ff"
         stroke-width="0.2"
         id="path5664" />
      <path
         d="m 672.757,73.2 h 2.9 c 0.1,0 0,-0.1 0,0 V 76 c 0,0.1 0.1,0 0,0 h -5.8 c -0.1,0 0,0.1 0,0 v -2.8 c 0,-0.1 -0.1,0 0,0 z"
         stroke="#0000ff"
         stroke-width="0.2"
         id="path5666" />
      <path
         d="m 660.757,73.2 h 2.9 c 0.1,0 0,-0.1 0,0 V 76 c 0,0.1 0.1,0 0,0 h -5.8 c -0.1,0 0,0.1 0,0 v -2.8 c 0,-0.1 -0.1,0 0,0 z"
         stroke="#0000ff"
         stroke-width="0.2"
         id="path5668" />
    </g>
    <path
       d="m 277.03803,221.27176 h 186.94267 2.36923 c 0.0434,0 0.079,-0.0359 0.079,-0.0799 V 216.40032 34.321861 29.530323 c 0,-0.04392 -0.0355,-0.07986 -0.079,-0.07986 h -2.36923 -186.94267 -2.36922 c -0.0434,0 -0.079,0.03594 -0.079,0.07986 v 4.791538 182.078459 4.79154 c 0,0.0439 0.0355,0.0799 0.079,0.0799 h 2.36922"
       stroke="#000000"
       stroke-width="0.158831"
       id="path6493"
       style="fill:none;stroke:#0000ff;stroke-width:0.200025;stroke-linecap:round;stroke-linejoin:round;stroke-miterlimit:4;stroke-dasharray:none;stroke-opacity:1" />
    <path
       style="fill:none;stroke:#000000;stroke-width:0.2;stroke-linecap:butt;stroke-linejoin:miter;stroke-miterlimit:4;stroke-dasharray:none;stroke-opacity:1"
       d="m 277.54973,164.88534 v 54.26022 h 54.35878 z"
       id="path6615" />
    <path
       style="fill:none;stroke:#000000;stroke-width:0.2;stroke-linecap:butt;stroke-linejoin:miter;stroke-miterlimit:4;stroke-dasharray:none;stroke-opacity:1"
       d="m 462.43931,164.88534 v 54.26022 h -54.35878 z"
       id="path6615-6" />
    <path
       style="fill:none;stroke:#000000;stroke-width:0.2;stroke-linecap:butt;stroke-linejoin:miter;stroke-miterlimit:4;stroke-dasharray:none;stroke-opacity:1"
       d="m 408.17909,32.228398 h 54.26022 v 54.35878 z"
       id="path6615-6-2" />
    <path
       style="fill:none;stroke:#000000;stroke-width:0.2;stroke-linecap:butt;stroke-linejoin:miter;stroke-miterlimit:4;stroke-dasharray:none;stroke-opacity:1"
       d="m 331.80995,32.228398 h -54.26022 v 54.35878 z"
       id="path6615-9" />
    <g
       id="p-6"
       style="fill:none;stroke-linecap:round;stroke-linejoin:round"
       transform="rotate(-90,692.99736,509.52104)">
      <text
         alignment-baseline="hanging"
         font-size="4px"
         style="font-style:normal;font-weight:normal;font-family:sans-serif;fill:#ff0000"
         text-anchor="middle"
         transform="translate(919.836,188.2)"
         id="text5671">Top</text>
      <path
         d="m 891.814,310.2 h 5.522 c 0.055,0 0.1,-0.045 0.1,-0.1 v -2.9 c 0,-0.1 -0.1,0 0,0 h 5.8 c 0.1,0 0,-0.1 0,0 v 2.9 c 0,0.055 0.045,0.1 0.1,0.1 h 6 c 0.055,0 0.1,-0.045 0.1,-0.1 v -2.9 c 0,-0.1 -0.1,0 0,0 h 5.8 c 0.1,0 0,-0.1 0,0 v 2.9 c 0,0.055 0.045,0.1 0.1,0.1 h 6 c 0.055,0 0.1,-0.045 0.1,-0.1 v -2.9 c 0,-0.1 -0.1,0 0,0 h 5.8 c 0.1,0 0,-0.1 0,0 v 2.9 c 0,0.055 0.045,0.1 0.1,0.1 h 6 c 0.055,0 0.1,-0.045 0.1,-0.1 v -2.9 c 0,-0.1 -0.1,0 0,0 h 5.8 c 0.1,0 0,-0.1 0,0 v 2.9 c 0,0.055 0.045,0.1 0.1,0.1 h 5.523 3 c 0.055,0 0.1,-0.045 0.1,-0.1 v -3 -234 -3 c 0,-0.055 -0.045,-0.1 -0.1,-0.1 h -3 -5.523 c -0.055,0 -0.1,0.045 -0.1,0.1 V 73 c 0,0.1 0.1,0 0,0 h -5.8 c -0.1,0 0,0.1 0,0 v -2.9 c 0,-0.055 -0.045,-0.1 -0.1,-0.1 h -6 c -0.055,0 -0.1,0.045 -0.1,0.1 V 73 c 0,0.1 0.1,0 0,0 h -5.8 c -0.1,0 0,0.1 0,0 v -2.9 c 0,-0.055 -0.045,-0.1 -0.1,-0.1 h -6 c -0.055,0 -0.1,0.045 -0.1,0.1 V 73 c 0,0.1 0.1,0 0,0 h -5.8 c -0.1,0 0,0.1 0,0 v -2.9 c 0,-0.055 -0.045,-0.1 -0.1,-0.1 h -6 c -0.055,0 -0.1,0.045 -0.1,0.1 V 73 c 0,0.1 0.1,0 0,0 h -5.8 c -0.1,0 0,0.1 0,0 v -2.9 c 0,-0.055 -0.045,-0.1 -0.1,-0.1 h -5.522 c -0.056,0 -0.1,0.045 -0.1,0.1 v 3 234 3 c 0,0.055 0.044,0.1 0.1,0.1"
         stroke="#000000"
         stroke-width="0.2"
         id="path5673" />
    </g>
    <g
       id="g1208"
       transform="rotate(-90,587.8462,651.47183)">
      <path
         d="m 949.559,310.2 h 281.85 c 0.055,0 0.1,-0.045 0.1,-0.1 v -3 -234 -3 c 0,-0.055 -0.045,-0.1 -0.1,-0.1 h -281.85 c -0.055,0 -0.1,0.045 -0.1,0.1 v 3 234 3 c 0,0.055 0.045,0.1 0.1,0.1"
         stroke="#000000"
         stroke-width="0.2"
         id="path5680"
         style="fill:none;stroke-linecap:round;stroke-linejoin:round" />
      <g
         id="g1159">
        <path
           d="m 967.559,301.1 h -4.4 c -0.1,0 0,0.1 0,0 v -2.8 c 0,-0.1 -0.1,0 0,0 h 2.75 c 0.055,0 0.1,-0.045 0.1,-0.1 v -6 c 0,-0.055 -0.045,-0.1 -0.1,-0.1 h -2.75 c -0.1,0 0,0.1 0,0 v -2.8 c 0,-0.1 -0.1,0 0,0 h 8.8 c 0.1,0 0,-0.1 0,0 v 2.8 c 0,0.1 0.1,0 0,0 h -2.75 c -0.055,0 -0.1,0.045 -0.1,0.1 v 6 c 0,0.055 0.045,0.1 0.1,0.1 h 2.75 c 0.1,0 0,-0.1 0,0 v 2.8 c 0,0.1 0.1,0 0,0 z"
           stroke="#0000ff"
           stroke-width="0.2"
           id="path5676"
           style="fill:none;stroke-linecap:round;stroke-linejoin:round" />
        <text
           alignment-baseline="hanging"
           font-size="4px"
           style="font-style:normal;font-weight:normal;font-family:sans-serif;fill:#ff0000;stroke-linecap:round;stroke-linejoin:round"
           text-anchor="middle"
           id="text5678"
           x="1090.484"
           y="188.2">Back Wall</text>
        <path
           d="m 1223.984,304.2 h 2.9 c 0.1,0 0,-0.1 0,0 v 2.8 c 0,0.1 0.1,0 0,0 h -5.8 c -0.1,0 0,0.1 0,0 v -2.8 c 0,-0.1 -0.1,0 0,0 z"
           stroke="#0000ff"
           stroke-width="0.2"
           id="path5682"
           style="fill:none;stroke-linecap:round;stroke-linejoin:round" />
        <path
           d="m 1211.984,304.2 h 2.9 c 0.1,0 0,-0.1 0,0 v 2.8 c 0,0.1 0.1,0 0,0 h -5.8 c -0.1,0 0,0.1 0,0 v -2.8 c 0,-0.1 -0.1,0 0,0 z"
           stroke="#0000ff"
           stroke-width="0.2"
           id="path5684"
           style="fill:none;stroke-linecap:round;stroke-linejoin:round" />
        <path
           d="m 1199.984,304.2 h 2.9 c 0.1,0 0,-0.1 0,0 v 2.8 c 0,0.1 0.1,0 0,0 h -5.8 c -0.1,0 0,0.1 0,0 v -2.8 c 0,-0.1 -0.1,0 0,0 z"
           stroke="#0000ff"
           stroke-width="0.2"
           id="path5686"
           style="fill:none;stroke-linecap:round;stroke-linejoin:round" />
        <path
           d="m 1187.984,304.2 h 2.9 c 0.1,0 0,-0.1 0,0 v 2.8 c 0,0.1 0.1,0 0,0 h -5.8 c -0.1,0 0,0.1 0,0 v -2.8 c 0,-0.1 -0.1,0 0,0 z"
           stroke="#0000ff"
           stroke-width="0.2"
           id="path5688"
           style="fill:none;stroke-linecap:round;stroke-linejoin:round" />
        <path
           d="m 1175.984,304.2 h 2.9 c 0.1,0 0,-0.1 0,0 v 2.8 c 0,0.1 0.1,0 0,0 h -5.8 c -0.1,0 0,0.1 0,0 v -2.8 c 0,-0.1 -0.1,0 0,0 z"
           stroke="#0000ff"
           stroke-width="0.2"
           id="path5690"
           style="fill:none;stroke-linecap:round;stroke-linejoin:round" />
        <path
           d="m 1163.984,304.2 h 2.9 c 0.1,0 0,-0.1 0,0 v 2.8 c 0,0.1 0.1,0 0,0 h -5.8 c -0.1,0 0,0.1 0,0 v -2.8 c 0,-0.1 -0.1,0 0,0 z"
           stroke="#0000ff"
           stroke-width="0.2"
           id="path5692"
           style="fill:none;stroke-linecap:round;stroke-linejoin:round" />
        <path
           d="m 1151.984,304.2 h 2.9 c 0.1,0 0,-0.1 0,0 v 2.8 c 0,0.1 0.1,0 0,0 h -5.8 c -0.1,0 0,0.1 0,0 v -2.8 c 0,-0.1 -0.1,0 0,0 z"
           stroke="#0000ff"
           stroke-width="0.2"
           id="path5694"
           style="fill:none;stroke-linecap:round;stroke-linejoin:round" />
        <path
           d="m 1139.984,304.2 h 2.9 c 0.1,0 0,-0.1 0,0 v 2.8 c 0,0.1 0.1,0 0,0 h -5.8 c -0.1,0 0,0.1 0,0 v -2.8 c 0,-0.1 -0.1,0 0,0 z"
           stroke="#0000ff"
           stroke-width="0.2"
           id="path5696"
           style="fill:none;stroke-linecap:round;stroke-linejoin:round" />
        <path
           d="m 1127.984,304.2 h 2.9 c 0.1,0 0,-0.1 0,0 v 2.8 c 0,0.1 0.1,0 0,0 h -5.8 c -0.1,0 0,0.1 0,0 v -2.8 c 0,-0.1 -0.1,0 0,0 z"
           stroke="#0000ff"
           stroke-width="0.2"
           id="path5698"
           style="fill:none;stroke-linecap:round;stroke-linejoin:round" />
        <path
           d="m 1115.984,304.2 h 2.9 c 0.1,0 0,-0.1 0,0 v 2.8 c 0,0.1 0.1,0 0,0 h -5.8 c -0.1,0 0,0.1 0,0 v -2.8 c 0,-0.1 -0.1,0 0,0 z"
           stroke="#0000ff"
           stroke-width="0.2"
           id="path5700"
           style="fill:none;stroke-linecap:round;stroke-linejoin:round" />
        <path
           d="m 1103.984,304.2 h 2.9 c 0.1,0 0,-0.1 0,0 v 2.8 c 0,0.1 0.1,0 0,0 h -5.8 c -0.1,0 0,0.1 0,0 v -2.8 c 0,-0.1 -0.1,0 0,0 z"
           stroke="#0000ff"
           stroke-width="0.2"
           id="path5702"
           style="fill:none;stroke-linecap:round;stroke-linejoin:round" />
        <path
           d="m 1091.984,304.2 h 2.9 c 0.1,0 0,-0.1 0,0 v 2.8 c 0,0.1 0.1,0 0,0 h -5.8 c -0.1,0 0,0.1 0,0 v -2.8 c 0,-0.1 -0.1,0 0,0 z"
           stroke="#0000ff"
           stroke-width="0.2"
           id="path5704"
           style="fill:none;stroke-linecap:round;stroke-linejoin:round" />
        <path
           d="m 1079.984,304.2 h 2.9 c 0.1,0 0,-0.1 0,0 v 2.8 c 0,0.1 0.1,0 0,0 h -5.8 c -0.1,0 0,0.1 0,0 v -2.8 c 0,-0.1 -0.1,0 0,0 z"
           stroke="#0000ff"
           stroke-width="0.2"
           id="path5706"
           style="fill:none;stroke-linecap:round;stroke-linejoin:round" />
        <path
           d="m 1067.984,304.2 h 2.9 c 0.1,0 0,-0.1 0,0 v 2.8 c 0,0.1 0.1,0 0,0 h -5.8 c -0.1,0 0,0.1 0,0 v -2.8 c 0,-0.1 -0.1,0 0,0 z"
           stroke="#0000ff"
           stroke-width="0.2"
           id="path5708"
           style="fill:none;stroke-linecap:round;stroke-linejoin:round" />
        <path
           d="m 1055.984,304.2 h 2.9 c 0.1,0 0,-0.1 0,0 v 2.8 c 0,0.1 0.1,0 0,0 h -5.8 c -0.1,0 0,0.1 0,0 v -2.8 c 0,-0.1 -0.1,0 0,0 z"
           stroke="#0000ff"
           stroke-width="0.2"
           id="path5710"
           style="fill:none;stroke-linecap:round;stroke-linejoin:round" />
        <path
           d="m 1043.984,304.2 h 2.9 c 0.1,0 0,-0.1 0,0 v 2.8 c 0,0.1 0.1,0 0,0 h -5.8 c -0.1,0 0,0.1 0,0 v -2.8 c 0,-0.1 -0.1,0 0,0 z"
           stroke="#0000ff"
           stroke-width="0.2"
           id="path5712"
           style="fill:none;stroke-linecap:round;stroke-linejoin:round" />
        <path
           d="m 1031.984,304.2 h 2.9 c 0.1,0 0,-0.1 0,0 v 2.8 c 0,0.1 0.1,0 0,0 h -5.8 c -0.1,0 0,0.1 0,0 v -2.8 c 0,-0.1 -0.1,0 0,0 z"
           stroke="#0000ff"
           stroke-width="0.2"
           id="path5714"
           style="fill:none;stroke-linecap:round;stroke-linejoin:round" />
        <path
           d="m 1019.984,304.2 h 2.9 c 0.1,0 0,-0.1 0,0 v 2.8 c 0,0.1 0.1,0 0,0 h -5.8 c -0.1,0 0,0.1 0,0 v -2.8 c 0,-0.1 -0.1,0 0,0 z"
           stroke="#0000ff"
           stroke-width="0.2"
           id="path5716"
           style="fill:none;stroke-linecap:round;stroke-linejoin:round" />
        <path
           d="m 1007.984,304.2 h 2.9 c 0.1,0 0,-0.1 0,0 v 2.8 c 0,0.1 0.1,0 0,0 h -5.8 c -0.1,0 0,0.1 0,0 v -2.8 c 0,-0.1 -0.1,0 0,0 z"
           stroke="#0000ff"
           stroke-width="0.2"
           id="path5718"
           style="fill:none;stroke-linecap:round;stroke-linejoin:round" />
        <path
           d="m 995.984,304.2 h 2.9 c 0.1,0 0,-0.1 0,0 v 2.8 c 0,0.1 0.1,0 0,0 h -5.8 c -0.1,0 0,0.1 0,0 v -2.8 c 0,-0.1 -0.1,0 0,0 z"
           stroke="#0000ff"
           stroke-width="0.2"
           id="path5720"
           style="fill:none;stroke-linecap:round;stroke-linejoin:round" />
        <path
           d="m 983.984,304.2 h 2.9 c 0.1,0 0,-0.1 0,0 v 2.8 c 0,0.1 0.1,0 0,0 h -5.8 c -0.1,0 0,0.1 0,0 v -2.8 c 0,-0.1 -0.1,0 0,0 z"
           stroke="#0000ff"
           stroke-width="0.2"
           id="path5722"
           style="fill:none;stroke-linecap:round;stroke-linejoin:round" />
        <path
           d="m 968.009,79.1 h 4.4 c 0.1,0 0,-0.1 0,0 v 2.8 c 0,0.1 0.1,0 0,0 h -2.75 c -0.055,0 -0.1,0.045 -0.1,0.1 v 6 c 0,0.055 0.045,0.1 0.1,0.1 h 2.75 c 0.1,0 0,-0.1 0,0 v 2.8 c 0,0.1 0.1,0 0,0 h -8.8 c -0.1,0 0,0.1 0,0 v -2.8 c 0,-0.1 -0.1,0 0,0 h 2.75 c 0.055,0 0.1,-0.045 0.1,-0.1 v -6 c 0,-0.055 -0.045,-0.1 -0.1,-0.1 h -2.75 c -0.1,0 0,0.1 0,0 v -2.8 c 0,-0.1 -0.1,0 0,0 z"
           stroke="#0000ff"
           stroke-width="0.2"
           id="path5724"
           style="fill:none;stroke-linecap:round;stroke-linejoin:round" />
        <path
           d="m 984.134,76 h -2.9 c -0.1,0 0,0.1 0,0 v -2.8 c 0,-0.1 -0.1,0 0,0 h 5.8 c 0.1,0 0,-0.1 0,0 V 76 c 0,0.1 0.1,0 0,0 z"
           stroke="#0000ff"
           stroke-width="0.2"
           id="path5726"
           style="fill:none;stroke-linecap:round;stroke-linejoin:round" />
        <path
           d="m 996.134,76 h -2.9 c -0.1,0 0,0.1 0,0 v -2.8 c 0,-0.1 -0.1,0 0,0 h 5.8 c 0.1,0 0,-0.1 0,0 V 76 c 0,0.1 0.1,0 0,0 z"
           stroke="#0000ff"
           stroke-width="0.2"
           id="path5728"
           style="fill:none;stroke-width:0.200025;stroke-linecap:round;stroke-linejoin:round;stroke-miterlimit:4;stroke-dasharray:none" />
        <path
           d="m 1008.134,76 h -2.9 c -0.1,0 0,0.1 0,0 v -2.8 c 0,-0.1 -0.1,0 0,0 h 5.8 c 0.1,0 0,-0.1 0,0 V 76 c 0,0.1 0.1,0 0,0 z"
           stroke="#0000ff"
           stroke-width="0.2"
           id="path5730"
           style="fill:none;stroke-linecap:round;stroke-linejoin:round" />
        <path
           d="m 1020.134,76 h -2.9 c -0.1,0 0,0.1 0,0 v -2.8 c 0,-0.1 -0.1,0 0,0 h 5.8 c 0.1,0 0,-0.1 0,0 V 76 c 0,0.1 0.1,0 0,0 z"
           stroke="#0000ff"
           stroke-width="0.2"
           id="path5732"
           style="fill:none;stroke-linecap:round;stroke-linejoin:round" />
        <path
           d="m 1032.134,76 h -2.9 c -0.1,0 0,0.1 0,0 v -2.8 c 0,-0.1 -0.1,0 0,0 h 5.8 c 0.1,0 0,-0.1 0,0 V 76 c 0,0.1 0.1,0 0,0 z"
           stroke="#0000ff"
           stroke-width="0.2"
           id="path5734"
           style="fill:none;stroke-linecap:round;stroke-linejoin:round" />
        <path
           d="m 1044.134,76 h -2.9 c -0.1,0 0,0.1 0,0 v -2.8 c 0,-0.1 -0.1,0 0,0 h 5.8 c 0.1,0 0,-0.1 0,0 V 76 c 0,0.1 0.1,0 0,0 z"
           stroke="#0000ff"
           stroke-width="0.2"
           id="path5736"
           style="fill:none;stroke-linecap:round;stroke-linejoin:round" />
        <path
           d="m 1056.134,76 h -2.9 c -0.1,0 0,0.1 0,0 v -2.8 c 0,-0.1 -0.1,0 0,0 h 5.8 c 0.1,0 0,-0.1 0,0 V 76 c 0,0.1 0.1,0 0,0 z"
           stroke="#0000ff"
           stroke-width="0.2"
           id="path5738"
           style="fill:none;stroke-linecap:round;stroke-linejoin:round" />
        <path
           d="m 1068.134,76 h -2.9 c -0.1,0 0,0.1 0,0 v -2.8 c 0,-0.1 -0.1,0 0,0 h 5.8 c 0.1,0 0,-0.1 0,0 V 76 c 0,0.1 0.1,0 0,0 z"
           stroke="#0000ff"
           stroke-width="0.2"
           id="path5740"
           style="fill:none;stroke-linecap:round;stroke-linejoin:round" />
        <path
           d="m 1080.134,76 h -2.9 c -0.1,0 0,0.1 0,0 v -2.8 c 0,-0.1 -0.1,0 0,0 h 5.8 c 0.1,0 0,-0.1 0,0 V 76 c 0,0.1 0.1,0 0,0 z"
           stroke="#0000ff"
           stroke-width="0.2"
           id="path5742"
           style="fill:none;stroke-linecap:round;stroke-linejoin:round" />
        <path
           d="m 1092.134,76 h -2.9 c -0.1,0 0,0.1 0,0 v -2.8 c 0,-0.1 -0.1,0 0,0 h 5.8 c 0.1,0 0,-0.1 0,0 V 76 c 0,0.1 0.1,0 0,0 z"
           stroke="#0000ff"
           stroke-width="0.2"
           id="path5744"
           style="fill:none;stroke-linecap:round;stroke-linejoin:round" />
        <path
           d="m 1104.134,76 h -2.9 c -0.1,0 0,0.1 0,0 v -2.8 c 0,-0.1 -0.1,0 0,0 h 5.8 c 0.1,0 0,-0.1 0,0 V 76 c 0,0.1 0.1,0 0,0 z"
           stroke="#0000ff"
           stroke-width="0.2"
           id="path5746"
           style="fill:none;stroke-linecap:round;stroke-linejoin:round" />
        <path
           d="m 1116.134,76 h -2.9 c -0.1,0 0,0.1 0,0 v -2.8 c 0,-0.1 -0.1,0 0,0 h 5.8 c 0.1,0 0,-0.1 0,0 V 76 c 0,0.1 0.1,0 0,0 z"
           stroke="#0000ff"
           stroke-width="0.2"
           id="path5748"
           style="fill:none;stroke-linecap:round;stroke-linejoin:round" />
        <path
           d="m 1128.134,76 h -2.9 c -0.1,0 0,0.1 0,0 v -2.8 c 0,-0.1 -0.1,0 0,0 h 5.8 c 0.1,0 0,-0.1 0,0 V 76 c 0,0.1 0.1,0 0,0 z"
           stroke="#0000ff"
           stroke-width="0.2"
           id="path5750"
           style="fill:none;stroke-linecap:round;stroke-linejoin:round" />
        <path
           d="m 1140.134,76 h -2.9 c -0.1,0 0,0.1 0,0 v -2.8 c 0,-0.1 -0.1,0 0,0 h 5.8 c 0.1,0 0,-0.1 0,0 V 76 c 0,0.1 0.1,0 0,0 z"
           stroke="#0000ff"
           stroke-width="0.2"
           id="path5752"
           style="fill:none;stroke-linecap:round;stroke-linejoin:round" />
        <path
           d="m 1152.134,76 h -2.9 c -0.1,0 0,0.1 0,0 v -2.8 c 0,-0.1 -0.1,0 0,0 h 5.8 c 0.1,0 0,-0.1 0,0 V 76 c 0,0.1 0.1,0 0,0 z"
           stroke="#0000ff"
           stroke-width="0.2"
           id="path5754"
           style="fill:none;stroke-linecap:round;stroke-linejoin:round" />
        <path
           d="m 1164.134,76 h -2.9 c -0.1,0 0,0.1 0,0 v -2.8 c 0,-0.1 -0.1,0 0,0 h 5.8 c 0.1,0 0,-0.1 0,0 V 76 c 0,0.1 0.1,0 0,0 z"
           stroke="#0000ff"
           stroke-width="0.2"
           id="path5756"
           style="fill:none;stroke-linecap:round;stroke-linejoin:round" />
        <path
           d="m 1176.134,76 h -2.9 c -0.1,0 0,0.1 0,0 v -2.8 c 0,-0.1 -0.1,0 0,0 h 5.8 c 0.1,0 0,-0.1 0,0 V 76 c 0,0.1 0.1,0 0,0 z"
           stroke="#0000ff"
           stroke-width="0.2"
           id="path5758"
           style="fill:none;stroke-linecap:round;stroke-linejoin:round" />
        <path
           d="m 1188.134,76 h -2.9 c -0.1,0 0,0.1 0,0 v -2.8 c 0,-0.1 -0.1,0 0,0 h 5.8 c 0.1,0 0,-0.1 0,0 V 76 c 0,0.1 0.1,0 0,0 z"
           stroke="#0000ff"
           stroke-width="0.2"
           id="path5760"
           style="fill:none;stroke-linecap:round;stroke-linejoin:round" />
        <path
           d="m 1200.134,76 h -2.9 c -0.1,0 0,0.1 0,0 v -2.8 c 0,-0.1 -0.1,0 0,0 h 5.8 c 0.1,0 0,-0.1 0,0 V 76 c 0,0.1 0.1,0 0,0 z"
           stroke="#0000ff"
           stroke-width="0.2"
           id="path5762"
           style="fill:none;stroke-linecap:round;stroke-linejoin:round" />
        <path
           d="m 1212.134,76 h -2.9 c -0.1,0 0,0.1 0,0 v -2.8 c 0,-0.1 -0.1,0 0,0 h 5.8 c 0.1,0 0,-0.1 0,0 V 76 c 0,0.1 0.1,0 0,0 z"
           stroke="#0000ff"
           stroke-width="0.2"
           id="path5764"
           style="fill:none;stroke-linecap:round;stroke-linejoin:round" />
        <path
           d="m 1224.134,76 h -2.9 c -0.1,0 0,0.1 0,0 v -2.8 c 0,-0.1 -0.1,0 0,0 h 5.8 c 0.1,0 0,-0.1 0,0 V 76 c 0,0.1 0.1,0 0,0 z"
           stroke="#0000ff"
           stroke-width="0.2"
           id="path5766"
           style="fill:none;stroke-linecap:round;stroke-linejoin:round" />
      </g>
    </g>
    <g
       id="p-8"
       style="fill:none;stroke-linecap:round;stroke-linejoin:round"
       transform="rotate(-90,816.13381,767.0832)">
      <text
         alignment-baseline="hanging"
         font-size="4px"
         style="font-style:normal;font-weight:normal;font-family:sans-serif;fill:#ff0000"
         text-anchor="middle"
         transform="translate(1237.609,177.775)"
         id="text5769">Guide</text>
      <path
         d="m 1236.109,310.2 h 6 c 0.055,0 0.1,-0.045 0.1,-0.1 v -3 -254.85 -3 c 0,-0.055 -0.045,-0.1 -0.1,-0.1 h -6 c -0.055,0 -0.1,0.045 -0.1,0.1 v 3 4.325 c 0,0.1 0.1,0 0,0 h -2.9 c -0.055,0 -0.1,0.045 -0.1,0.1 v 6 c 0,0.055 0.045,0.1 0.1,0.1 h 2.9 c 0.1,0 0,-0.1 0,0 v 5.8 c 0,0.1 0.1,0 0,0 h -2.9 c -0.055,0 -0.1,0.045 -0.1,0.1 v 6 c 0,0.055 0.045,0.1 0.1,0.1 h 2.9 c 0.1,0 0,-0.1 0,0 v 5.8 c 0,0.1 0.1,0 0,0 h -2.9 c -0.055,0 -0.1,0.045 -0.1,0.1 v 6 c 0,0.055 0.045,0.1 0.1,0.1 h 2.9 c 0.1,0 0,-0.1 0,0 v 5.8 c 0,0.1 0.1,0 0,0 h -2.9 c -0.055,0 -0.1,0.045 -0.1,0.1 v 6 c 0,0.055 0.045,0.1 0.1,0.1 h 2.9 c 0.1,0 0,-0.1 0,0 v 5.8 c 0,0.1 0.1,0 0,0 h -2.9 c -0.055,0 -0.1,0.045 -0.1,0.1 v 6 c 0,0.055 0.045,0.1 0.1,0.1 h 2.9 c 0.1,0 0,-0.1 0,0 v 5.8 c 0,0.1 0.1,0 0,0 h -2.9 c -0.055,0 -0.1,0.045 -0.1,0.1 v 6 c 0,0.055 0.045,0.1 0.1,0.1 h 2.9 c 0.1,0 0,-0.1 0,0 v 5.8 c 0,0.1 0.1,0 0,0 h -2.9 c -0.055,0 -0.1,0.045 -0.1,0.1 v 6 c 0,0.055 0.045,0.1 0.1,0.1 h 2.9 c 0.1,0 0,-0.1 0,0 v 5.8 c 0,0.1 0.1,0 0,0 h -2.9 c -0.055,0 -0.1,0.045 -0.1,0.1 v 6 c 0,0.055 0.045,0.1 0.1,0.1 h 2.9 c 0.1,0 0,-0.1 0,0 v 5.8 c 0,0.1 0.1,0 0,0 h -2.9 c -0.055,0 -0.1,0.045 -0.1,0.1 v 6 c 0,0.055 0.045,0.1 0.1,0.1 h 2.9 c 0.1,0 0,-0.1 0,0 v 5.8 c 0,0.1 0.1,0 0,0 h -2.9 c -0.055,0 -0.1,0.045 -0.1,0.1 v 6 c 0,0.055 0.045,0.1 0.1,0.1 h 2.9 c 0.1,0 0,-0.1 0,0 v 5.8 c 0,0.1 0.1,0 0,0 h -2.9 c -0.055,0 -0.1,0.045 -0.1,0.1 v 6 c 0,0.055 0.045,0.1 0.1,0.1 h 2.9 c 0.1,0 0,-0.1 0,0 v 5.8 c 0,0.1 0.1,0 0,0 h -2.9 c -0.055,0 -0.1,0.045 -0.1,0.1 v 6 c 0,0.055 0.045,0.1 0.1,0.1 h 2.9 c 0.1,0 0,-0.1 0,0 v 5.8 c 0,0.1 0.1,0 0,0 h -2.9 c -0.055,0 -0.1,0.045 -0.1,0.1 v 6 c 0,0.055 0.045,0.1 0.1,0.1 h 2.9 c 0.1,0 0,-0.1 0,0 v 5.8 c 0,0.1 0.1,0 0,0 h -2.9 c -0.055,0 -0.1,0.045 -0.1,0.1 v 6 c 0,0.055 0.045,0.1 0.1,0.1 h 2.9 c 0.1,0 0,-0.1 0,0 v 5.8 c 0,0.1 0.1,0 0,0 h -2.9 c -0.055,0 -0.1,0.045 -0.1,0.1 v 6 c 0,0.055 0.045,0.1 0.1,0.1 h 2.9 c 0.1,0 0,-0.1 0,0 v 5.8 c 0,0.1 0.1,0 0,0 h -2.9 c -0.055,0 -0.1,0.045 -0.1,0.1 v 6 c 0,0.055 0.045,0.1 0.1,0.1 h 2.9 c 0.1,0 0,-0.1 0,0 v 5.8 c 0,0.1 0.1,0 0,0 h -2.9 c -0.055,0 -0.1,0.045 -0.1,0.1 v 6 c 0,0.055 0.045,0.1 0.1,0.1 h 2.9 c 0.1,0 0,-0.1 0,0 v 5.8 c 0,0.1 0.1,0 0,0 h -2.9 c -0.055,0 -0.1,0.045 -0.1,0.1 v 6 c 0,0.055 0.045,0.1 0.1,0.1 h 2.9 c 0.1,0 0,-0.1 0,0 v 5.8 c 0,0.1 0.1,0 0,0 h -2.9 c -0.055,0 -0.1,0.045 -0.1,0.1 v 6 c 0,0.055 0.045,0.1 0.1,0.1 h 2.9 c 0.1,0 0,-0.1 0,0 v 5.8 c 0,0.1 0.1,0 0,0 h -2.9 c -0.055,0 -0.1,0.045 -0.1,0.1 v 6 c 0,0.055 0.045,0.1 0.1,0.1 h 2.9 c 0.1,0 0,-0.1 0,0 v 5.8 c 0,0.1 0.1,0 0,0 h -2.9 c -0.055,0 -0.1,0.045 -0.1,0.1 v 6 c 0,0.055 0.045,0.1 0.1,0.1 h 2.9 c 0.1,0 0,-0.1 0,0 v 4.325 3 c 0,0.055 0.045,0.1 0.1,0.1"
         stroke="#000000"
         stroke-width="0.2"
         id="path5771" />
    </g>
    <g
       id="p-9"
       style="fill:none;stroke-linecap:round;stroke-linejoin:round"
       transform="rotate(-90,811.48506,770.64321)">
      <text
         alignment-baseline="hanging"
         font-size="4px"
         style="font-style:normal;font-weight:normal;font-family:sans-serif;fill:#ff0000"
         text-anchor="middle"
         transform="translate(1248.309,177.775)"
         id="text5774">Guide</text>
      <path
         d="m 1246.809,310.2 h 6 c 0.055,0 0.1,-0.045 0.1,-0.1 v -3 -254.85 -3 c 0,-0.055 -0.045,-0.1 -0.1,-0.1 h -6 c -0.055,0 -0.1,0.045 -0.1,0.1 v 3 4.325 c 0,0.1 0.1,0 0,0 h -2.9 c -0.055,0 -0.1,0.045 -0.1,0.1 v 6 c 0,0.055 0.045,0.1 0.1,0.1 h 2.9 c 0.1,0 0,-0.1 0,0 v 5.8 c 0,0.1 0.1,0 0,0 h -2.9 c -0.055,0 -0.1,0.045 -0.1,0.1 v 6 c 0,0.055 0.045,0.1 0.1,0.1 h 2.9 c 0.1,0 0,-0.1 0,0 v 5.8 c 0,0.1 0.1,0 0,0 h -2.9 c -0.055,0 -0.1,0.045 -0.1,0.1 v 6 c 0,0.055 0.045,0.1 0.1,0.1 h 2.9 c 0.1,0 0,-0.1 0,0 v 5.8 c 0,0.1 0.1,0 0,0 h -2.9 c -0.055,0 -0.1,0.045 -0.1,0.1 v 6 c 0,0.055 0.045,0.1 0.1,0.1 h 2.9 c 0.1,0 0,-0.1 0,0 v 5.8 c 0,0.1 0.1,0 0,0 h -2.9 c -0.055,0 -0.1,0.045 -0.1,0.1 v 6 c 0,0.055 0.045,0.1 0.1,0.1 h 2.9 c 0.1,0 0,-0.1 0,0 v 5.8 c 0,0.1 0.1,0 0,0 h -2.9 c -0.055,0 -0.1,0.045 -0.1,0.1 v 6 c 0,0.055 0.045,0.1 0.1,0.1 h 2.9 c 0.1,0 0,-0.1 0,0 v 5.8 c 0,0.1 0.1,0 0,0 h -2.9 c -0.055,0 -0.1,0.045 -0.1,0.1 v 6 c 0,0.055 0.045,0.1 0.1,0.1 h 2.9 c 0.1,0 0,-0.1 0,0 v 5.8 c 0,0.1 0.1,0 0,0 h -2.9 c -0.055,0 -0.1,0.045 -0.1,0.1 v 6 c 0,0.055 0.045,0.1 0.1,0.1 h 2.9 c 0.1,0 0,-0.1 0,0 v 5.8 c 0,0.1 0.1,0 0,0 h -2.9 c -0.055,0 -0.1,0.045 -0.1,0.1 v 6 c 0,0.055 0.045,0.1 0.1,0.1 h 2.9 c 0.1,0 0,-0.1 0,0 v 5.8 c 0,0.1 0.1,0 0,0 h -2.9 c -0.055,0 -0.1,0.045 -0.1,0.1 v 6 c 0,0.055 0.045,0.1 0.1,0.1 h 2.9 c 0.1,0 0,-0.1 0,0 v 5.8 c 0,0.1 0.1,0 0,0 h -2.9 c -0.055,0 -0.1,0.045 -0.1,0.1 v 6 c 0,0.055 0.045,0.1 0.1,0.1 h 2.9 c 0.1,0 0,-0.1 0,0 v 5.8 c 0,0.1 0.1,0 0,0 h -2.9 c -0.055,0 -0.1,0.045 -0.1,0.1 v 6 c 0,0.055 0.045,0.1 0.1,0.1 h 2.9 c 0.1,0 0,-0.1 0,0 v 5.8 c 0,0.1 0.1,0 0,0 h -2.9 c -0.055,0 -0.1,0.045 -0.1,0.1 v 6 c 0,0.055 0.045,0.1 0.1,0.1 h 2.9 c 0.1,0 0,-0.1 0,0 v 5.8 c 0,0.1 0.1,0 0,0 h -2.9 c -0.055,0 -0.1,0.045 -0.1,0.1 v 6 c 0,0.055 0.045,0.1 0.1,0.1 h 2.9 c 0.1,0 0,-0.1 0,0 v 5.8 c 0,0.1 0.1,0 0,0 h -2.9 c -0.055,0 -0.1,0.045 -0.1,0.1 v 6 c 0,0.055 0.045,0.1 0.1,0.1 h 2.9 c 0.1,0 0,-0.1 0,0 v 5.8 c 0,0.1 0.1,0 0,0 h -2.9 c -0.055,0 -0.1,0.045 -0.1,0.1 v 6 c 0,0.055 0.045,0.1 0.1,0.1 h 2.9 c 0.1,0 0,-0.1 0,0 v 5.8 c 0,0.1 0.1,0 0,0 h -2.9 c -0.055,0 -0.1,0.045 -0.1,0.1 v 6 c 0,0.055 0.045,0.1 0.1,0.1 h 2.9 c 0.1,0 0,-0.1 0,0 v 5.8 c 0,0.1 0.1,0 0,0 h -2.9 c -0.055,0 -0.1,0.045 -0.1,0.1 v 6 c 0,0.055 0.045,0.1 0.1,0.1 h 2.9 c 0.1,0 0,-0.1 0,0 v 5.8 c 0,0.1 0.1,0 0,0 h -2.9 c -0.055,0 -0.1,0.045 -0.1,0.1 v 6 c 0,0.055 0.045,0.1 0.1,0.1 h 2.9 c 0.1,0 0,-0.1 0,0 v 5.8 c 0,0.1 0.1,0 0,0 h -2.9 c -0.055,0 -0.1,0.045 -0.1,0.1 v 6 c 0,0.055 0.045,0.1 0.1,0.1 h 2.9 c 0.1,0 0,-0.1 0,0 v 5.8 c 0,0.1 0.1,0 0,0 h -2.9 c -0.055,0 -0.1,0.045 -0.1,0.1 v 6 c 0,0.055 0.045,0.1 0.1,0.1 h 2.9 c 0.1,0 0,-0.1 0,0 v 4.325 3 c 0,0.055 0.045,0.1 0.1,0.1"
         stroke="#000000"
         stroke-width="0.2"
         id="path5776" />
    </g>
    <g
       id="p-10"
       style="fill:none;stroke-linecap:round;stroke-linejoin:round"
       transform="translate(-876.15676,282.49538)">
      <text
         alignment-baseline="hanging"
         font-size="4px"
         style="font-style:normal;font-weight:normal;font-family:sans-serif;fill:#ff0000"
         text-anchor="middle"
         transform="translate(1262.009,188.2)"
         id="text5779">Bottom Back</text>
      <path
         d="m 1254.509,310.2 h 4.5 c 0.055,0 0.1,-0.045 0.1,-0.1 v -2.9 c 0,-0.1 -0.1,0 0,0 h 5.8 c 0.1,0 0,-0.1 0,0 v 2.9 c 0,0.055 0.045,0.1 0.1,0.1 h 4.5 c 0.055,0 0.1,-0.045 0.1,-0.1 v -3 -12 c 0,-1.071 -0.282,-2.123 -0.818,-3.05 -0.535,-0.927 -1.305,-1.697 -2.232,-2.233 -0.897,-0.518 -1.642,-1.262 -2.16,-2.159 -0.518,-0.897 -0.79,-1.915 -0.79,-2.95 V 95.492 c 0,-1.035 0.272,-2.053 0.79,-2.95 0.518,-0.897 1.263,-1.641 2.16,-2.159 0.927,-0.536 1.697,-1.306 2.232,-2.233 0.536,-0.927 0.818,-1.979 0.818,-3.05 v -12 -3 c 0,-0.055 -0.045,-0.1 -0.1,-0.1 h -4.5 c -0.055,0 -0.1,0.045 -0.1,0.1 V 73 c 0,0.1 0.1,0 0,0 h -5.8 c -0.1,0 0,0.1 0,0 v -2.9 c 0,-0.055 -0.045,-0.1 -0.1,-0.1 h -4.5 c -0.055,0 -0.1,0.045 -0.1,0.1 v 3 234 3 c 0,0.055 0.045,0.1 0.1,0.1"
         stroke="#000000"
         stroke-width="0.2"
         id="path5781" />
      <path
         d="m 1260.509,298.1 v 2.9 c 0,0.1 0.1,0 0,0 h -2.8 c -0.1,0 0,0.1 0,0 v -5.8 c 0,-0.1 -0.1,0 0,0 h 2.8 c 0.1,0 0,-0.1 0,0 z"
         stroke="#0000ff"
         stroke-width="0.2"
         id="path5783" />
      <path
         d="m 1260.509,286.1 v 2.9 c 0,0.1 0.1,0 0,0 h -2.8 c -0.1,0 0,0.1 0,0 v -5.8 c 0,-0.1 -0.1,0 0,0 h 2.8 c 0.1,0 0,-0.1 0,0 z"
         stroke="#0000ff"
         stroke-width="0.2"
         id="path5785" />
      <path
         d="m 1260.509,274.1 v 2.9 c 0,0.1 0.1,0 0,0 h -2.8 c -0.1,0 0,0.1 0,0 v -5.8 c 0,-0.1 -0.1,0 0,0 h 2.8 c 0.1,0 0,-0.1 0,0 z"
         stroke="#0000ff"
         stroke-width="0.2"
         id="path5787" />
      <path
         d="m 1260.509,262.1 v 2.9 c 0,0.1 0.1,0 0,0 h -2.8 c -0.1,0 0,0.1 0,0 v -5.8 c 0,-0.1 -0.1,0 0,0 h 2.8 c 0.1,0 0,-0.1 0,0 z"
         stroke="#0000ff"
         stroke-width="0.2"
         id="path5789" />
      <path
         d="m 1260.509,250.1 v 2.9 c 0,0.1 0.1,0 0,0 h -2.8 c -0.1,0 0,0.1 0,0 v -5.8 c 0,-0.1 -0.1,0 0,0 h 2.8 c 0.1,0 0,-0.1 0,0 z"
         stroke="#0000ff"
         stroke-width="0.2"
         id="path5791" />
      <path
         d="m 1260.509,238.1 v 2.9 c 0,0.1 0.1,0 0,0 h -2.8 c -0.1,0 0,0.1 0,0 v -5.8 c 0,-0.1 -0.1,0 0,0 h 2.8 c 0.1,0 0,-0.1 0,0 z"
         stroke="#0000ff"
         stroke-width="0.2"
         id="path5793" />
      <path
         d="m 1260.509,226.1 v 2.9 c 0,0.1 0.1,0 0,0 h -2.8 c -0.1,0 0,0.1 0,0 v -5.8 c 0,-0.1 -0.1,0 0,0 h 2.8 c 0.1,0 0,-0.1 0,0 z"
         stroke="#0000ff"
         stroke-width="0.2"
         id="path5795" />
      <path
         d="m 1260.509,214.1 v 2.9 c 0,0.1 0.1,0 0,0 h -2.8 c -0.1,0 0,0.1 0,0 v -5.8 c 0,-0.1 -0.1,0 0,0 h 2.8 c 0.1,0 0,-0.1 0,0 z"
         stroke="#0000ff"
         stroke-width="0.2"
         id="path5797" />
      <path
         d="m 1260.509,202.1 v 2.9 c 0,0.1 0.1,0 0,0 h -2.8 c -0.1,0 0,0.1 0,0 v -5.8 c 0,-0.1 -0.1,0 0,0 h 2.8 c 0.1,0 0,-0.1 0,0 z"
         stroke="#0000ff"
         stroke-width="0.2"
         id="path5799" />
      <path
         d="m 1260.509,190.1 v 2.9 c 0,0.1 0.1,0 0,0 h -2.8 c -0.1,0 0,0.1 0,0 v -5.8 c 0,-0.1 -0.1,0 0,0 h 2.8 c 0.1,0 0,-0.1 0,0 z"
         stroke="#0000ff"
         stroke-width="0.2"
         id="path5801" />
      <path
         d="m 1260.509,178.1 v 2.9 c 0,0.1 0.1,0 0,0 h -2.8 c -0.1,0 0,0.1 0,0 v -5.8 c 0,-0.1 -0.1,0 0,0 h 2.8 c 0.1,0 0,-0.1 0,0 z"
         stroke="#0000ff"
         stroke-width="0.2"
         id="path5803" />
      <path
         d="m 1260.509,166.1 v 2.9 c 0,0.1 0.1,0 0,0 h -2.8 c -0.1,0 0,0.1 0,0 v -5.8 c 0,-0.1 -0.1,0 0,0 h 2.8 c 0.1,0 0,-0.1 0,0 z"
         stroke="#0000ff"
         stroke-width="0.2"
         id="path5805" />
      <path
         d="m 1260.509,154.1 v 2.9 c 0,0.1 0.1,0 0,0 h -2.8 c -0.1,0 0,0.1 0,0 v -5.8 c 0,-0.1 -0.1,0 0,0 h 2.8 c 0.1,0 0,-0.1 0,0 z"
         stroke="#0000ff"
         stroke-width="0.2"
         id="path5807" />
      <path
         d="m 1260.509,142.1 v 2.9 c 0,0.1 0.1,0 0,0 h -2.8 c -0.1,0 0,0.1 0,0 v -5.8 c 0,-0.1 -0.1,0 0,0 h 2.8 c 0.1,0 0,-0.1 0,0 z"
         stroke="#0000ff"
         stroke-width="0.2"
         id="path5809" />
      <path
         d="m 1260.509,130.1 v 2.9 c 0,0.1 0.1,0 0,0 h -2.8 c -0.1,0 0,0.1 0,0 v -5.8 c 0,-0.1 -0.1,0 0,0 h 2.8 c 0.1,0 0,-0.1 0,0 z"
         stroke="#0000ff"
         stroke-width="0.2"
         id="path5811" />
      <path
         d="m 1260.509,118.1 v 2.9 c 0,0.1 0.1,0 0,0 h -2.8 c -0.1,0 0,0.1 0,0 v -5.8 c 0,-0.1 -0.1,0 0,0 h 2.8 c 0.1,0 0,-0.1 0,0 z"
         stroke="#0000ff"
         stroke-width="0.2"
         id="path5813" />
      <path
         d="m 1260.509,106.1 v 2.9 c 0,0.1 0.1,0 0,0 h -2.8 c -0.1,0 0,0.1 0,0 v -5.8 c 0,-0.1 -0.1,0 0,0 h 2.8 c 0.1,0 0,-0.1 0,0 z"
         stroke="#0000ff"
         stroke-width="0.2"
         id="path5815" />
      <path
         d="M 1260.509,94.1 V 97 c 0,0.1 0.1,0 0,0 h -2.8 c -0.1,0 0,0.1 0,0 v -5.8 c 0,-0.1 -0.1,0 0,0 h 2.8 c 0.1,0 0,-0.1 0,0 z"
         stroke="#0000ff"
         stroke-width="0.2"
         id="path5817" />
      <path
         d="M 1260.509,82.1 V 85 c 0,0.1 0.1,0 0,0 h -2.8 c -0.1,0 0,0.1 0,0 v -5.8 c 0,-0.1 -0.1,0 0,0 h 2.8 c 0.1,0 0,-0.1 0,0 z"
         stroke="#0000ff"
         stroke-width="0.2"
         id="path5819" />
    </g>
    <g
       id="g483"
       transform="translate(-62.959972,419.84893)">
      <g
         id="p-15"
         style="fill:none;stroke-linecap:round;stroke-linejoin:round"
         transform="translate(-1063.6025,-282.27238)">
        <text
           alignment-baseline="hanging"
           font-size="4px"
           style="font-style:normal;font-weight:normal;font-family:sans-serif;fill:#ff0000"
           text-anchor="middle"
           transform="translate(1283.209,257.9)"
           id="text5854" />
        <path
           d="m 1271.209,260.8 h 2.9 c 0.1,0 0,-0.1 0,0 v 0.5 c 0,0.055 0.045,0.1 0.1,0.1 h 5.9 c 0.1,0 0,-0.1 0,0 v 2.9 c 0,0.055 0.045,0.1 0.1,0.1 h 3 c 0.055,0 0.1,-0.045 0.1,-0.1 v -2.9 c 0,-0.1 -0.1,0 0,0 h 8.9 c 0.055,0 0.1,-0.045 0.1,-0.1 v -2.9 c 0,-0.1 -0.1,0 0,0 h 2.9 c 0.055,0 0.1,-0.045 0.1,-0.1 v -3 c 0,-0.055 -0.045,-0.1 -0.1,-0.1 h -6 c -0.055,0 -0.1,0.045 -0.1,0.1 v 1.393 c 0,0.107 0.107,0.007 0,0 l -14.557,-1.018 c -0.058,-0.004 -0.107,0.042 -0.107,0.1 v 1.5 c 0,0.052 0.04,0.096 0.093,0.099 l 14.664,1.026 c -0.021,-0.002 -0.04,-0.009 -0.056,-0.023 -0.016,-0.013 -0.028,-0.03 -0.034,-0.05 -0.01,-0.02 0,-0.041 0,-0.061 0.01,-0.019 0.019,-0.036 0.036,-0.048 0.017,-0.012 0.037,-0.018 0.058,-0.018 h -14.9 c -0.1,0 0,0.1 0,0 v -2.9 c 0,-0.055 -0.045,-0.1 -0.1,-0.1 h -3 c -0.055,0 -0.1,0.045 -0.1,0.1 v 5.4 c 0,0.055 0.045,0.1 0.1,0.1"
           stroke="#000000"
           stroke-width="0.2"
           id="path5856" />
      </g>
      <g
         id="p-16"
         style="fill:none;stroke-linecap:round;stroke-linejoin:round"
         transform="translate(-1063.8875,-260.77242)">
        <text
           alignment-baseline="hanging"
           font-size="4px"
           style="font-style:normal;font-weight:normal;font-family:sans-serif;fill:#ff0000"
           text-anchor="middle"
           transform="translate(1283.209,247.2)"
           id="text5859" />
        <path
           d="m 1271.209,250.1 h 2.9 c 0.1,0 0,-0.1 0,0 v 0.5 c 0,0.055 0.045,0.1 0.1,0.1 h 5.9 c 0.1,0 0,-0.1 0,0 v 2.9 c 0,0.055 0.045,0.1 0.1,0.1 h 3 c 0.055,0 0.1,-0.045 0.1,-0.1 v -2.9 c 0,-0.1 -0.1,0 0,0 h 8.9 c 0.055,0 0.1,-0.045 0.1,-0.1 v -2.9 c 0,-0.1 -0.1,0 0,0 h 2.9 c 0.055,0 0.1,-0.045 0.1,-0.1 v -3 c 0,-0.055 -0.045,-0.1 -0.1,-0.1 h -6 c -0.055,0 -0.1,0.045 -0.1,0.1 v 1.393 c 0,0.107 0.107,0.007 0,0 l -14.557,-1.018 c -0.058,-0.004 -0.107,0.042 -0.107,0.1 v 1.5 c 0,0.052 0.04,0.096 0.093,0.099 l 14.664,1.026 c -0.021,-0.002 -0.04,-0.009 -0.056,-0.023 -0.016,-0.013 -0.028,-0.03 -0.034,-0.05 -0.01,-0.02 0,-0.041 0,-0.061 0.01,-0.019 0.019,-0.036 0.036,-0.048 0.017,-0.012 0.037,-0.018 0.058,-0.018 h -14.9 c -0.1,0 0,0.1 0,0 v -2.9 c 0,-0.055 -0.045,-0.1 -0.1,-0.1 h -3 c -0.055,0 -0.1,0.045 -0.1,0.1 v 5.4 c 0,0.055 0.045,0.1 0.1,0.1"
           stroke="#000000"
           stroke-width="0.2"
           id="path5861" />
      </g>
      <g
         id="p-17"
         style="fill:none;stroke-linecap:round;stroke-linejoin:round"
         transform="translate(-1066.6281,-273.70393)">
        <text
           alignment-baseline="hanging"
           font-size="4px"
           style="font-style:normal;font-weight:normal;font-family:sans-serif;fill:#ff0000"
           text-anchor="middle"
           transform="translate(1277.209,235)"
           id="text5864" />
        <path
           d="m 1272.709,243 h 2.85 c 0.055,0 0.1,-0.045 0.1,-0.1 v -7.55 c 0,-0.1 -0.1,0 0,0 h 3.1 c 0.1,0 0,-0.1 0,0 v 7.55 c 0,0.055 0.045,0.1 0.1,0.1 h 2.85 c 0.055,0 0.1,-0.045 0.1,-0.1 V 240 c 0,-0.1 -0.1,0 0,0 h 1.4 c 0.055,0 0.1,-0.045 0.1,-0.1 v -6 c 0,-0.027 -0.011,-0.052 -0.03,-0.071 l -3,-3 c -0.018,-0.018 -0.044,-0.029 -0.07,-0.029 h -6 c -0.027,0 -0.052,0.011 -0.071,0.029 l -3,3 c -0.019,0.019 -0.029,0.044 -0.029,0.071 v 6 c 0,0.055 0.045,0.1 0.1,0.1 h 1.4 c 0.1,0 0,-0.1 0,0 v 2.9 c 0,0.055 0.045,0.1 0.1,0.1"
           stroke="#000000"
           stroke-width="0.2"
           id="path5866" />
      </g>
      <g
         id="p-18"
         style="fill:none;stroke-linecap:round;stroke-linejoin:round"
         transform="translate(-1062.8437,-273.20508)">
        <text
           alignment-baseline="hanging"
           font-size="4px"
           style="font-style:normal;font-weight:normal;font-family:sans-serif;fill:#ff0000"
           text-anchor="middle"
           transform="translate(1290.909,235)"
           id="text5869" />
        <path
           d="m 1286.409,243 h 2.85 c 0.055,0 0.1,-0.045 0.1,-0.1 v -7.55 c 0,-0.1 -0.1,0 0,0 h 3.1 c 0.1,0 0,-0.1 0,0 v 7.55 c 0,0.055 0.045,0.1 0.1,0.1 h 2.85 c 0.055,0 0.1,-0.045 0.1,-0.1 V 240 c 0,-0.1 -0.1,0 0,0 h 1.4 c 0.055,0 0.1,-0.045 0.1,-0.1 v -6 c 0,-0.027 -0.011,-0.052 -0.03,-0.071 l -3,-3 c -0.018,-0.018 -0.044,-0.029 -0.07,-0.029 h -6 c -0.027,0 -0.052,0.011 -0.071,0.029 l -3,3 c -0.019,0.019 -0.029,0.044 -0.029,0.071 v 6 c 0,0.055 0.045,0.1 0.1,0.1 h 1.4 c 0.1,0 0,-0.1 0,0 v 2.9 c 0,0.055 0.045,0.1 0.1,0.1"
           stroke="#000000"
           stroke-width="0.2"
           id="path5871" />
      </g>
      <g
         id="p-19"
         style="fill:none;stroke-linecap:round;stroke-linejoin:round"
         transform="translate(-1066.0297,-274.15037)">
        <text
           alignment-baseline="hanging"
           font-size="4px"
           style="font-style:normal;font-weight:normal;font-family:sans-serif;fill:#ff0000"
           text-anchor="middle"
           transform="translate(1277.209,221.3)"
           id="text5874" />
        <path
           d="m 1272.709,229.3 h 2.85 c 0.055,0 0.1,-0.045 0.1,-0.1 v -7.55 c 0,-0.1 -0.1,0 0,0 h 3.1 c 0.1,0 0,-0.1 0,0 v 7.55 c 0,0.055 0.045,0.1 0.1,0.1 h 2.85 c 0.055,0 0.1,-0.045 0.1,-0.1 v -2.9 c 0,-0.1 -0.1,0 0,0 h 1.4 c 0.055,0 0.1,-0.045 0.1,-0.1 v -6 c 0,-0.027 -0.011,-0.052 -0.03,-0.071 l -3,-3 c -0.018,-0.018 -0.044,-0.029 -0.07,-0.029 h -6 c -0.027,0 -0.052,0.011 -0.071,0.029 l -3,3 c -0.019,0.019 -0.029,0.044 -0.029,0.071 v 6 c 0,0.055 0.045,0.1 0.1,0.1 h 1.4 c 0.1,0 0,-0.1 0,0 v 2.9 c 0,0.055 0.045,0.1 0.1,0.1"
           stroke="#000000"
           stroke-width="0.2"
           id="path5876" />
      </g>
      <g
         id="p-20"
         style="fill:none;stroke-linecap:round;stroke-linejoin:round"
         transform="translate(-1062.3656,-274.15037)">
        <text
           alignment-baseline="hanging"
           font-size="4px"
           style="font-style:normal;font-weight:normal;font-family:sans-serif;fill:#ff0000"
           text-anchor="middle"
           transform="translate(1290.909,221.3)"
           id="text5879" />
        <path
           d="m 1286.409,229.3 h 2.85 c 0.055,0 0.1,-0.045 0.1,-0.1 v -7.55 c 0,-0.1 -0.1,0 0,0 h 3.1 c 0.1,0 0,-0.1 0,0 v 7.55 c 0,0.055 0.045,0.1 0.1,0.1 h 2.85 c 0.055,0 0.1,-0.045 0.1,-0.1 v -2.9 c 0,-0.1 -0.1,0 0,0 h 1.4 c 0.055,0 0.1,-0.045 0.1,-0.1 v -6 c 0,-0.027 -0.011,-0.052 -0.03,-0.071 l -3,-3 c -0.018,-0.018 -0.044,-0.029 -0.07,-0.029 h -6 c -0.027,0 -0.052,0.011 -0.071,0.029 l -3,3 c -0.019,0.019 -0.029,0.044 -0.029,0.071 v 6 c 0,0.055 0.045,0.1 0.1,0.1 h 1.4 c 0.1,0 0,-0.1 0,0 v 2.9 c 0,0.055 0.045,0.1 0.1,0.1"
           stroke="#000000"
           stroke-width="0.2"
           id="path5881" />
      </g>
    </g>
    <g
       id="p-11"
       style="fill:none;stroke-linecap:round;stroke-linejoin:round"
       transform="rotate(-60.152961,982.51013,1108.7522)">
      <text
         alignment-baseline="hanging"
         font-size="4px"
         style="font-style:normal;font-weight:normal;font-family:sans-serif;fill:#ff0000"
         text-anchor="middle"
         transform="translate(1383.566,304.45)"
         id="text5822" />
      <path
         d="m 1380.566,304.2 v 3 c 0,0.055 0.044,0.1 0.1,0.1 h 6 c 0.055,0 0.1,-0.045 0.1,-0.1 v -2.9 c 0,-0.1 -0.1,0 0,0 h 103.156 c 0.1,0 0,-0.1 0,0 v 4.4 c 0,0.281 0.074,0.557 0.215,0.8 0.14,0.243 0.342,0.445 0.585,0.586 0.244,0.14 0.519,0.214 0.8,0.214 h 3 c 0.281,0 0.557,-0.074 0.8,-0.214 0.244,-0.141 0.446,-0.343 0.586,-0.586 0.14,-0.243 0.214,-0.519 0.214,-0.8 v -3 c 0,-0.055 -0.044,-0.1 -0.1,-0.1 h -1.4 c -0.1,0 0,0.1 0,0 v -1.4 c 0,0.055 -0.044,0.1 -0.1,0.1 0.281,0 0.557,-0.074 0.8,-0.214 0.244,-0.141 0.446,-0.343 0.586,-0.586 0.14,-0.243 0.214,-0.519 0.214,-0.8 0,-0.055 -0.044,-0.1 -0.1,-0.1 h -224.713 c -0.055,0 -0.1,0.045 -0.1,0.1 0,0.281 0.074,0.557 0.214,0.8 0.141,0.243 0.342,0.445 0.586,0.586 0.243,0.14 0.519,0.214 0.8,0.214 -0.055,0 -0.1,-0.045 -0.1,-0.1 v 1.4 c 0,0.1 0.1,0 0,0 h -1.4 c -0.055,0 -0.1,0.045 -0.1,0.1 v 3 c 0,0.281 0.074,0.557 0.214,0.8 0.141,0.243 0.342,0.445 0.586,0.586 0.243,0.14 0.519,0.214 0.8,0.214 h 3 c 0.281,0 0.556,-0.074 0.8,-0.214 0.243,-0.141 0.445,-0.343 0.585,-0.586 0.141,-0.243 0.215,-0.519 0.215,-0.8 v -4.4 c 0,-0.1 -0.1,0 0,0 h 103.257"
         stroke="#000000"
         stroke-width="0.2"
         id="path5824" />
    </g>
    <g
       id="p-12"
       style="fill:none;stroke-linecap:round;stroke-linejoin:round"
       transform="rotate(90,1031.1118,-235.43268)">
      <text
         alignment-baseline="hanging"
         font-size="4px"
         style="font-style:normal;font-weight:normal;font-family:sans-serif;fill:#ff0000"
         text-anchor="middle"
         transform="translate(1383.566,295.25)"
         id="text5827" />
      <path
         d="m 1380.566,295 v 3 c 0,0.055 0.044,0.1 0.1,0.1 h 6 c 0.055,0 0.1,-0.045 0.1,-0.1 v -2.9 c 0,-0.1 -0.1,0 0,0 h 103.156 c 0.1,0 0,-0.1 0,0 v 4.4 c 0,0.281 0.074,0.557 0.215,0.8 0.14,0.243 0.342,0.445 0.585,0.586 0.244,0.14 0.519,0.214 0.8,0.214 h 3 c 0.281,0 0.557,-0.074 0.8,-0.214 0.244,-0.141 0.446,-0.343 0.586,-0.586 0.14,-0.243 0.214,-0.519 0.214,-0.8 v -3 c 0,-0.055 -0.044,-0.1 -0.1,-0.1 h -1.4 c -0.1,0 0,0.1 0,0 V 295 c 0,0.055 -0.044,0.1 -0.1,0.1 0.281,0 0.557,-0.074 0.8,-0.214 0.244,-0.141 0.446,-0.343 0.586,-0.586 0.14,-0.243 0.214,-0.519 0.214,-0.8 0,-0.055 -0.044,-0.1 -0.1,-0.1 h -224.713 c -0.055,0 -0.1,0.045 -0.1,0.1 0,0.281 0.074,0.557 0.214,0.8 0.141,0.243 0.342,0.445 0.586,0.586 0.243,0.14 0.519,0.214 0.8,0.214 -0.055,0 -0.1,-0.045 -0.1,-0.1 v 1.4 c 0,0.1 0.1,0 0,0 h -1.4 c -0.055,0 -0.1,0.045 -0.1,0.1 v 3 c 0,0.281 0.074,0.557 0.214,0.8 0.141,0.243 0.342,0.445 0.586,0.586 0.243,0.14 0.519,0.214 0.8,0.214 h 3 c 0.281,0 0.556,-0.074 0.8,-0.214 0.243,-0.141 0.445,-0.343 0.585,-0.586 0.141,-0.243 0.215,-0.519 0.215,-0.8 v -4.4 c 0,-0.1 -0.1,0 0,0 h 103.257"
         stroke="#000000"
         stroke-width="0.2"
         id="path5829" />
    </g>
    <g
       id="p-14"
       style="fill:none;stroke-linecap:round;stroke-linejoin:round"
       transform="rotate(90,796.49669,-120.75159)">
      <path
         d="m 1280.209,275.075 h -4.4 c -0.1,0 0,0.1 0,0 v -2.95 c 0,-0.1 -0.1,0 0,0 h 8.8 c 0.1,0 0,-0.1 0,0 v 2.95 c 0,0.1 0.1,0 0,0 z"
         stroke="#0000ff"
         stroke-width="0.2"
         id="path5843" />
      <path
         d="m 1498.922,275.075 h -4.4 c -0.1,0 0,0.1 0,0 v -2.95 c 0,-0.1 -0.1,0 0,0 h 8.8 c 0.1,0 0,-0.1 0,0 v 2.95 c 0,0.1 0.1,0 0,0 z"
         stroke="#0000ff"
         stroke-width="0.2"
         id="path5845" />
      <path
         d="m 1389.566,275 h -2.9 c -0.1,0 0,0.1 0,0 v -2.8 c 0,-0.1 -0.1,0 0,0 h 5.8 c 0.1,0 0,-0.1 0,0 v 2.8 c 0,0.1 0.1,0 0,0 z"
         stroke="#0000ff"
         stroke-width="0.2"
         id="path5847" />
      <text
         alignment-baseline="hanging"
         font-size="4px"
         style="font-style:normal;font-weight:normal;font-family:sans-serif;fill:#ff0000"
         text-anchor="middle"
         transform="translate(1389.566,270.1)"
         id="text5849" />
      <path
         d="m 1271.209,278.1 h 236.713 c 0.056,0 0.1,-0.045 0.1,-0.1 v -9 c 0,-0.055 -0.044,-0.1 -0.1,-0.1 h -7.256 c -0.1,0 0,0.1 0,0 V 266 c 0,-0.055 -0.045,-0.1 -0.1,-0.1 h -6 c -0.056,0 -0.1,0.045 -0.1,0.1 v 2.9 c 0,0.1 0.1,0 0,0 h -5.8 c -0.1,0 0,0.1 0,0 V 266 c 0,-0.055 -0.045,-0.1 -0.1,-0.1 h -6 c -0.056,0 -0.1,0.045 -0.1,0.1 v 2.9 c 0,0.1 0.1,0 0,0 h -5.8 c -0.1,0 0,0.1 0,0 V 266 c 0,-0.055 -0.045,-0.1 -0.1,-0.1 h -6 c -0.056,0 -0.1,0.045 -0.1,0.1 v 2.9 c 0,0.1 0.1,0 0,0 h -5.8 c -0.1,0 0,0.1 0,0 V 266 c 0,-0.055 -0.045,-0.1 -0.1,-0.1 h -6 c -0.056,0 -0.1,0.045 -0.1,0.1 v 2.9 c 0,0.1 0.1,0 0,0 h -5.8 c -0.1,0 0,0.1 0,0 V 266 c 0,-0.055 -0.045,-0.1 -0.1,-0.1 h -6 c -0.056,0 -0.1,0.045 -0.1,0.1 v 2.9 c 0,0.1 0.1,0 0,0 h -5.8 c -0.1,0 0,0.1 0,0 V 266 c 0,-0.055 -0.045,-0.1 -0.1,-0.1 h -6 c -0.056,0 -0.1,0.045 -0.1,0.1 v 2.9 c 0,0.1 0.1,0 0,0 h -5.8 c -0.1,0 0,0.1 0,0 V 266 c 0,-0.055 -0.045,-0.1 -0.1,-0.1 h -6 c -0.056,0 -0.1,0.045 -0.1,0.1 v 2.9 c 0,0.1 0.1,0 0,0 h -5.8 c -0.1,0 0,0.1 0,0 V 266 c 0,-0.055 -0.045,-0.1 -0.1,-0.1 h -6 c -0.056,0 -0.1,0.045 -0.1,0.1 v 2.9 c 0,0.1 0.1,0 0,0 h -5.8 c -0.1,0 0,0.1 0,0 V 266 c 0,-0.055 -0.045,-0.1 -0.1,-0.1 h -6 c -0.056,0 -0.1,0.045 -0.1,0.1 v 2.9 c 0,0.1 0.1,0 0,0 h -5.8 c -0.1,0 0,0.1 0,0 V 266 c 0,-0.055 -0.045,-0.1 -0.1,-0.1 h -6 c -0.056,0 -0.1,0.045 -0.1,0.1 v 2.9 c 0,0.1 0.1,0 0,0 h -5.8 c -0.1,0 0,0.1 0,0 V 266 c 0,-0.055 -0.045,-0.1 -0.1,-0.1 h -6 c -0.056,0 -0.1,0.045 -0.1,0.1 v 2.9 c 0,0.1 0.1,0 0,0 h -5.8 c -0.1,0 0,0.1 0,0 V 266 c 0,-0.055 -0.045,-0.1 -0.1,-0.1 h -6 c -0.056,0 -0.1,0.045 -0.1,0.1 v 2.9 c 0,0.1 0.1,0 0,0 h -5.8 c -0.1,0 0,0.1 0,0 V 266 c 0,-0.055 -0.045,-0.1 -0.1,-0.1 h -6 c -0.056,0 -0.1,0.045 -0.1,0.1 v 2.9 c 0,0.1 0.1,0 0,0 h -5.8 c -0.1,0 0,0.1 0,0 V 266 c 0,-0.055 -0.045,-0.1 -0.1,-0.1 h -6 c -0.056,0 -0.1,0.045 -0.1,0.1 v 2.9 c 0,0.1 0.1,0 0,0 h -5.8 c -0.1,0 0,0.1 0,0 V 266 c 0,-0.055 -0.045,-0.1 -0.1,-0.1 h -6 c -0.056,0 -0.1,0.045 -0.1,0.1 v 2.9 c 0,0.1 0.1,0 0,0 h -5.8 c -0.1,0 0,0.1 0,0 V 266 c 0,-0.055 -0.045,-0.1 -0.1,-0.1 h -6 c -0.056,0 -0.1,0.045 -0.1,0.1 v 2.9 c 0,0.1 0.1,0 0,0 h -5.8 c -0.1,0 0,0.1 0,0 V 266 c 0,-0.055 -0.045,-0.1 -0.1,-0.1 h -6 c -0.056,0 -0.1,0.045 -0.1,0.1 v 2.9 c 0,0.1 0.1,0 0,0 h -5.8 c -0.1,0 0,0.1 0,0 V 266 c 0,-0.055 -0.045,-0.1 -0.1,-0.1 h -6 c -0.056,0 -0.1,0.045 -0.1,0.1 v 2.9 c 0,0.1 0.1,0 0,0 h -5.8 c -0.1,0 0,0.1 0,0 V 266 c 0,-0.055 -0.045,-0.1 -0.1,-0.1 h -6 c -0.056,0 -0.1,0.045 -0.1,0.1 v 2.9 c 0,0.1 0.1,0 0,0 h -7.257 c -0.055,0 -0.1,0.045 -0.1,0.1 v 9 c 0,0.055 0.045,0.1 0.1,0.1"
         stroke="#000000"
         stroke-width="0.2"
         id="path5851" />
    </g>
    <g
       id="p-13"
       style="fill:none;stroke-linecap:round;stroke-linejoin:round"
       transform="translate(-1183.3569,33.889698)">
      <path
         d="m 1280.209,288.775 h -4.4 c -0.1,0 0,0.1 0,0 v -2.95 c 0,-0.1 -0.1,0 0,0 h 8.8 c 0.1,0 0,-0.1 0,0 v 2.95 c 0,0.1 0.1,0 0,0 z"
         stroke="#0000ff"
         stroke-width="0.2"
         id="path5832" />
      <path
         d="m 1498.922,288.775 h -4.4 c -0.1,0 0,0.1 0,0 v -2.95 c 0,-0.1 -0.1,0 0,0 h 8.8 c 0.1,0 0,-0.1 0,0 v 2.95 c 0,0.1 0.1,0 0,0 z"
         stroke="#0000ff"
         stroke-width="0.2"
         id="path5834" />
      <path
         d="m 1389.566,288.7 h -2.9 c -0.1,0 0,0.1 0,0 v -2.8 c 0,-0.1 -0.1,0 0,0 h 5.8 c 0.1,0 0,-0.1 0,0 v 2.8 c 0,0.1 0.1,0 0,0 z"
         stroke="#0000ff"
         stroke-width="0.2"
         id="path5836" />
      <text
         alignment-baseline="hanging"
         font-size="4px"
         style="font-style:normal;font-weight:normal;font-family:sans-serif;fill:#ff0000"
         text-anchor="middle"
         transform="translate(1389.566,283.8)"
         id="text5838" />
      <path
         d="m 1271.209,291.8 h 236.713 c 0.056,0 0.1,-0.045 0.1,-0.1 v -9 c 0,-0.055 -0.044,-0.1 -0.1,-0.1 h -7.256 c -0.1,0 0,0.1 0,0 v -2.9 c 0,-0.055 -0.045,-0.1 -0.1,-0.1 h -6 c -0.056,0 -0.1,0.045 -0.1,0.1 v 2.9 c 0,0.1 0.1,0 0,0 h -5.8 c -0.1,0 0,0.1 0,0 v -2.9 c 0,-0.055 -0.045,-0.1 -0.1,-0.1 h -6 c -0.056,0 -0.1,0.045 -0.1,0.1 v 2.9 c 0,0.1 0.1,0 0,0 h -5.8 c -0.1,0 0,0.1 0,0 v -2.9 c 0,-0.055 -0.045,-0.1 -0.1,-0.1 h -6 c -0.056,0 -0.1,0.045 -0.1,0.1 v 2.9 c 0,0.1 0.1,0 0,0 h -5.8 c -0.1,0 0,0.1 0,0 v -2.9 c 0,-0.055 -0.045,-0.1 -0.1,-0.1 h -6 c -0.056,0 -0.1,0.045 -0.1,0.1 v 2.9 c 0,0.1 0.1,0 0,0 h -5.8 c -0.1,0 0,0.1 0,0 v -2.9 c 0,-0.055 -0.045,-0.1 -0.1,-0.1 h -6 c -0.056,0 -0.1,0.045 -0.1,0.1 v 2.9 c 0,0.1 0.1,0 0,0 h -5.8 c -0.1,0 0,0.1 0,0 v -2.9 c 0,-0.055 -0.045,-0.1 -0.1,-0.1 h -6 c -0.056,0 -0.1,0.045 -0.1,0.1 v 2.9 c 0,0.1 0.1,0 0,0 h -5.8 c -0.1,0 0,0.1 0,0 v -2.9 c 0,-0.055 -0.045,-0.1 -0.1,-0.1 h -6 c -0.056,0 -0.1,0.045 -0.1,0.1 v 2.9 c 0,0.1 0.1,0 0,0 h -5.8 c -0.1,0 0,0.1 0,0 v -2.9 c 0,-0.055 -0.045,-0.1 -0.1,-0.1 h -6 c -0.056,0 -0.1,0.045 -0.1,0.1 v 2.9 c 0,0.1 0.1,0 0,0 h -5.8 c -0.1,0 0,0.1 0,0 v -2.9 c 0,-0.055 -0.045,-0.1 -0.1,-0.1 h -6 c -0.056,0 -0.1,0.045 -0.1,0.1 v 2.9 c 0,0.1 0.1,0 0,0 h -5.8 c -0.1,0 0,0.1 0,0 v -2.9 c 0,-0.055 -0.045,-0.1 -0.1,-0.1 h -6 c -0.056,0 -0.1,0.045 -0.1,0.1 v 2.9 c 0,0.1 0.1,0 0,0 h -5.8 c -0.1,0 0,0.1 0,0 v -2.9 c 0,-0.055 -0.045,-0.1 -0.1,-0.1 h -6 c -0.056,0 -0.1,0.045 -0.1,0.1 v 2.9 c 0,0.1 0.1,0 0,0 h -5.8 c -0.1,0 0,0.1 0,0 v -2.9 c 0,-0.055 -0.045,-0.1 -0.1,-0.1 h -6 c -0.056,0 -0.1,0.045 -0.1,0.1 v 2.9 c 0,0.1 0.1,0 0,0 h -5.8 c -0.1,0 0,0.1 0,0 v -2.9 c 0,-0.055 -0.045,-0.1 -0.1,-0.1 h -6 c -0.056,0 -0.1,0.045 -0.1,0.1 v 2.9 c 0,0.1 0.1,0 0,0 h -5.8 c -0.1,0 0,0.1 0,0 v -2.9 c 0,-0.055 -0.045,-0.1 -0.1,-0.1 h -6 c -0.056,0 -0.1,0.045 -0.1,0.1 v 2.9 c 0,0.1 0.1,0 0,0 h -5.8 c -0.1,0 0,0.1 0,0 v -2.9 c 0,-0.055 -0.045,-0.1 -0.1,-0.1 h -6 c -0.056,0 -0.1,0.045 -0.1,0.1 v 2.9 c 0,0.1 0.1,0 0,0 h -5.8 c -0.1,0 0,0.1 0,0 v -2.9 c 0,-0.055 -0.045,-0.1 -0.1,-0.1 h -6 c -0.056,0 -0.1,0.045 -0.1,0.1 v 2.9 c 0,0.1 0.1,0 0,0 h -5.8 c -0.1,0 0,0.1 0,0 v -2.9 c 0,-0.055 -0.045,-0.1 -0.1,-0.1 h -6 c -0.056,0 -0.1,0.045 -0.1,0.1 v 2.9 c 0,0.1 0.1,0 0,0 h -5.8 c -0.1,0 0,0.1 0,0 v -2.9 c 0,-0.055 -0.045,-0.1 -0.1,-0.1 h -6 c -0.056,0 -0.1,0.045 -0.1,0.1 v 2.9 c 0,0.1 0.1,0 0,0 h -5.8 c -0.1,0 0,0.1 0,0 v -2.9 c 0,-0.055 -0.045,-0.1 -0.1,-0.1 h -6 c -0.056,0 -0.1,0.045 -0.1,0.1 v 2.9 c 0,0.1 0.1,0 0,0 h -7.257 c -0.055,0 -0.1,0.045 -0.1,0.1 v 9 c 0,0.055 0.045,0.1 0.1,0.1"
         stroke="#000000"
         stroke-width="0.2"
         id="path5840" />
    </g>
    <path
       id="path6615-9-3"
       style="fill:none;stroke:#000000;stroke-width:0.2;stroke-linecap:butt;stroke-linejoin:miter;stroke-miterlimit:4;stroke-dasharray:none;stroke-opacity:1"
       d="M 342.83035,40.126618 V 94.485057 L 353.52222,83.774083 V 50.717188 h 32.99695 l 10.57145,-10.59057 z" />
    <path
       id="path6615-9-3-5"
       style="fill:none;stroke:#000000;stroke-width:0.2;stroke-linecap:butt;stroke-linejoin:miter;stroke-miterlimit:4;stroke-dasharray:none;stroke-opacity:1"
       d="M 342.83035,94.485057 V 40.126616 l -10.69187,10.71098 v 33.056891 h -32.99695 l -10.57146,10.59057 z" />
    <path
       id="path6615-9-3-3"
       style="fill:none;stroke:#000000;stroke-width:0.2;stroke-linecap:butt;stroke-linejoin:miter;stroke-miterlimit:4;stroke-dasharray:none;stroke-opacity:1"
       d="m 288.57013,94.485398 v 54.358432 l 10.69186,-10.71097 v -33.05689 h 32.99696 L 342.8304,94.485398 Z" />
    <path
       id="path6615-9-3-56"
       style="fill:none;stroke:#000000;stroke-width:0.2;stroke-linecap:butt;stroke-linejoin:miter;stroke-miterlimit:4;stroke-dasharray:none;stroke-opacity:1"
       d="m 343.02981,94.406008 v 54.358432 l 10.69187,-10.71097 v -33.05689 h 32.99695 l 10.57145,-10.590572 z" />
    <path
       id="path6615-9-3-5-2"
       style="fill:none;stroke:#000000;stroke-width:0.2;stroke-linecap:butt;stroke-linejoin:miter;stroke-miterlimit:4;stroke-dasharray:none;stroke-opacity:1"
       d="M 397.4105,148.64404 V 94.2856 l -10.69187,10.71098 v 33.05689 h -32.99695 l -10.57146,10.59057 z" />
    <path
       id="path6615-9-3-3-9"
       style="fill:none;stroke:#000000;stroke-width:0.2;stroke-linecap:butt;stroke-linejoin:miter;stroke-miterlimit:4;stroke-dasharray:none;stroke-opacity:1"
       d="M 397.4105,94.2856 V 39.92717 L 386.71864,50.63814 V 83.69503 H 353.72168 L 343.15023,94.2856 Z" />
    <path
       id="path6615-9-3-1"
       style="fill:none;stroke:#000000;stroke-width:0.2;stroke-linecap:butt;stroke-linejoin:miter;stroke-miterlimit:4;stroke-dasharray:none;stroke-opacity:1"
       d="m 397.29009,94.406002 v 54.358438 l 10.69187,-10.71097 v -33.0569 h 32.99695 l 10.57145,-10.590568 z" />
    <path
       id="path6615-9-3-5-27"
       style="fill:none;stroke:#000000;stroke-width:0.2;stroke-linecap:butt;stroke-linejoin:miter;stroke-miterlimit:4;stroke-dasharray:none;stroke-opacity:1"
       d="M 451.67078,148.64404 V 94.2856 l -10.69187,10.71098 v 33.05689 h -32.99695 l -10.57146,10.59057 z" />
    <path
       id="path6615-9-3-3-0"
       style="fill:none;stroke:#000000;stroke-width:0.2;stroke-linecap:butt;stroke-linejoin:miter;stroke-miterlimit:4;stroke-dasharray:none;stroke-opacity:1"
       d="M 343.15022,148.64404 V 94.285611 l -10.69186,10.710969 v 33.05689 H 299.4614 l -10.57145,10.59057 z" />
    <path
       id="path6615-9-3-9"
       style="fill:none;stroke:#000000;stroke-width:0.2;stroke-linecap:butt;stroke-linejoin:miter;stroke-miterlimit:4;stroke-dasharray:none;stroke-opacity:1"
       d="m 343.02981,148.76444 v 54.35844 l 10.69187,-10.71097 v -33.0569 h 32.99695 l 10.57145,-10.59057 z" />
    <path
       id="path6615-9-3-5-3"
       style="fill:none;stroke:#000000;stroke-width:0.2;stroke-linecap:butt;stroke-linejoin:miter;stroke-miterlimit:4;stroke-dasharray:none;stroke-opacity:1"
       d="m 397.4105,203.00248 v -54.35844 l -10.69187,10.71098 v 33.05689 h -32.99695 l -10.57146,10.59057 z" />
    <path
       id="path6615-9-3-3-6"
       style="fill:none;stroke:#000000;stroke-width:0.2;stroke-linecap:butt;stroke-linejoin:miter;stroke-miterlimit:4;stroke-dasharray:none;stroke-opacity:1"
       d="m 397.4105,148.64405 v 54.35843 l 10.69186,-10.71097 v -33.05689 h 32.99696 l 10.57145,-10.59057 z" />
    <g
       id="g1687"
       transform="translate(0.07007938,20.247333)">
      <g
         id="p-4"
         style="fill:none;stroke-linecap:round;stroke-linejoin:round"
         transform="translate(-49.611115,-84.92268)">
        <text
           alignment-baseline="hanging"
           font-size="4px"
           style="font-style:normal;font-weight:normal;font-family:sans-serif;fill:#ff0000"
           text-anchor="middle"
           transform="translate(600.45,188.2)"
           id="text5547">Front</text>
        <path
           d="m 555.2,310.2 h 6.25 c 0.055,0 0.1,-0.045 0.1,-0.1 v -2.9 c 0,-0.1 -0.1,0 0,0 h 5.8 c 0.1,0 0,-0.1 0,0 v 2.9 c 0,0.055 0.045,0.1 0.1,0.1 h 6 c 0.055,0 0.1,-0.045 0.1,-0.1 v -2.9 c 0,-0.1 -0.1,0 0,0 h 5.8 c 0.1,0 0,-0.1 0,0 v 2.9 c 0,0.055 0.045,0.1 0.1,0.1 h 6 c 0.055,0 0.1,-0.045 0.1,-0.1 v -2.9 c 0,-0.1 -0.1,0 0,0 h 5.8 c 0.1,0 0,-0.1 0,0 v 2.9 c 0,0.055 0.045,0.1 0.1,0.1 h 6 c 0.055,0 0.1,-0.045 0.1,-0.1 v -2.9 c 0,-0.1 -0.1,0 0,0 h 5.8 c 0.1,0 0,-0.1 0,0 v 2.9 c 0,0.055 0.045,0.1 0.1,0.1 h 6 c 0.055,0 0.1,-0.045 0.1,-0.1 v -2.9 c 0,-0.1 -0.1,0 0,0 h 5.8 c 0.1,0 0,-0.1 0,0 v 2.9 c 0,0.055 0.045,0.1 0.1,0.1 h 6 c 0.055,0 0.1,-0.045 0.1,-0.1 v -2.9 c 0,-0.1 -0.1,0 0,0 h 5.8 c 0.1,0 0,-0.1 0,0 v 2.9 c 0,0.055 0.045,0.1 0.1,0.1 h 6 c 0.055,0 0.1,-0.045 0.1,-0.1 v -2.9 c 0,-0.1 -0.1,0 0,0 h 5.8 c 0.1,0 0,-0.1 0,0 v 2.9 c 0,0.055 0.045,0.1 0.1,0.1 h 6.25 c 0.055,0 0.1,-0.045 0.1,-0.1 v -3 -234 -3 c 0,-0.055 -0.045,-0.1 -0.1,-0.1 h -6.25 c -0.055,0 -0.1,0.045 -0.1,0.1 V 73 c 0,0.1 0.1,0 0,0 h -5.8 c -0.1,0 0,0.1 0,0 v -2.9 c 0,-0.055 -0.045,-0.1 -0.1,-0.1 h -6 c -0.055,0 -0.1,0.045 -0.1,0.1 V 73 c 0,0.1 0.1,0 0,0 h -5.8 c -0.1,0 0,0.1 0,0 v -2.9 c 0,-0.055 -0.045,-0.1 -0.1,-0.1 h -6 c -0.055,0 -0.1,0.045 -0.1,0.1 V 73 c 0,0.1 0.1,0 0,0 h -5.8 c -0.1,0 0,0.1 0,0 v -2.9 c 0,-0.055 -0.045,-0.1 -0.1,-0.1 h -6 c -0.055,0 -0.1,0.045 -0.1,0.1 V 73 c 0,0.1 0.1,0 0,0 h -5.8 c -0.1,0 0,0.1 0,0 v -2.9 c 0,-0.055 -0.045,-0.1 -0.1,-0.1 h -6 c -0.055,0 -0.1,0.045 -0.1,0.1 V 73 c 0,0.1 0.1,0 0,0 h -5.8 c -0.1,0 0,0.1 0,0 v -2.9 c 0,-0.055 -0.045,-0.1 -0.1,-0.1 h -6 c -0.055,0 -0.1,0.045 -0.1,0.1 V 73 c 0,0.1 0.1,0 0,0 h -5.8 c -0.1,0 0,0.1 0,0 v -2.9 c 0,-0.055 -0.045,-0.1 -0.1,-0.1 h -6 c -0.055,0 -0.1,0.045 -0.1,0.1 V 73 c 0,0.1 0.1,0 0,0 h -5.8 c -0.1,0 0,0.1 0,0 v -2.9 c 0,-0.055 -0.045,-0.1 -0.1,-0.1 h -6.25 c -0.055,0 -0.1,0.045 -0.1,0.1 v 3 12 c 0,1.071 0.282,2.123 0.817,3.05 0.536,0.927 1.306,1.697 2.233,2.233 0.897,0.518 1.642,1.262 2.16,2.159 0.517,0.897 0.79,1.915 0.79,2.95 v 189.216 c 0,1.035 -0.273,2.053 -0.79,2.95 -0.518,0.897 -1.263,1.641 -2.16,2.159 -0.927,0.536 -1.697,1.306 -2.233,2.233 -0.535,0.927 -0.817,1.979 -0.817,3.05 v 12 3 c 0,0.055 0.045,0.1 0.1,0.1"
           stroke="#000000"
           stroke-width="0.2"
           id="path5549" />
        <path
           d="m 564.2,82.1 v -2.9 c 0,-0.1 -0.1,0 0,0 h 2.8 c 0.1,0 0,-0.1 0,0 V 85 c 0,0.1 0.1,0 0,0 h -2.8 c -0.1,0 0,0.1 0,0 z"
           stroke="#0000ff"
           stroke-width="0.2"
           id="path5551" />
        <path
           d="m 564.2,94.1 v -2.9 c 0,-0.1 -0.1,0 0,0 h 2.8 c 0.1,0 0,-0.1 0,0 V 97 c 0,0.1 0.1,0 0,0 h -2.8 c -0.1,0 0,0.1 0,0 z"
           stroke="#0000ff"
           stroke-width="0.2"
           id="path5553" />
        <path
           d="m 564.2,106.1 v -2.9 c 0,-0.1 -0.1,0 0,0 h 2.8 c 0.1,0 0,-0.1 0,0 v 5.8 c 0,0.1 0.1,0 0,0 h -2.8 c -0.1,0 0,0.1 0,0 z"
           stroke="#0000ff"
           stroke-width="0.2"
           id="path5555" />
        <path
           d="m 564.2,118.1 v -2.9 c 0,-0.1 -0.1,0 0,0 h 2.8 c 0.1,0 0,-0.1 0,0 v 5.8 c 0,0.1 0.1,0 0,0 h -2.8 c -0.1,0 0,0.1 0,0 z"
           stroke="#0000ff"
           stroke-width="0.2"
           id="path5557" />
        <path
           d="m 564.2,130.1 v -2.9 c 0,-0.1 -0.1,0 0,0 h 2.8 c 0.1,0 0,-0.1 0,0 v 5.8 c 0,0.1 0.1,0 0,0 h -2.8 c -0.1,0 0,0.1 0,0 z"
           stroke="#0000ff"
           stroke-width="0.2"
           id="path5559" />
        <path
           d="m 564.2,142.1 v -2.9 c 0,-0.1 -0.1,0 0,0 h 2.8 c 0.1,0 0,-0.1 0,0 v 5.8 c 0,0.1 0.1,0 0,0 h -2.8 c -0.1,0 0,0.1 0,0 z"
           stroke="#0000ff"
           stroke-width="0.2"
           id="path5561" />
        <path
           d="m 564.2,154.1 v -2.9 c 0,-0.1 -0.1,0 0,0 h 2.8 c 0.1,0 0,-0.1 0,0 v 5.8 c 0,0.1 0.1,0 0,0 h -2.8 c -0.1,0 0,0.1 0,0 z"
           stroke="#0000ff"
           stroke-width="0.2"
           id="path5563" />
        <path
           d="m 564.2,166.1 v -2.9 c 0,-0.1 -0.1,0 0,0 h 2.8 c 0.1,0 0,-0.1 0,0 v 5.8 c 0,0.1 0.1,0 0,0 h -2.8 c -0.1,0 0,0.1 0,0 z"
           stroke="#0000ff"
           stroke-width="0.2"
           id="path5565" />
        <path
           d="m 564.2,178.1 v -2.9 c 0,-0.1 -0.1,0 0,0 h 2.8 c 0.1,0 0,-0.1 0,0 v 5.8 c 0,0.1 0.1,0 0,0 h -2.8 c -0.1,0 0,0.1 0,0 z"
           stroke="#0000ff"
           stroke-width="0.2"
           id="path5567" />
        <path
           d="m 564.2,190.1 v -2.9 c 0,-0.1 -0.1,0 0,0 h 2.8 c 0.1,0 0,-0.1 0,0 v 5.8 c 0,0.1 0.1,0 0,0 h -2.8 c -0.1,0 0,0.1 0,0 z"
           stroke="#0000ff"
           stroke-width="0.2"
           id="path5569" />
        <path
           d="m 564.2,202.1 v -2.9 c 0,-0.1 -0.1,0 0,0 h 2.8 c 0.1,0 0,-0.1 0,0 v 5.8 c 0,0.1 0.1,0 0,0 h -2.8 c -0.1,0 0,0.1 0,0 z"
           stroke="#0000ff"
           stroke-width="0.2"
           id="path5571" />
        <path
           d="m 564.2,214.1 v -2.9 c 0,-0.1 -0.1,0 0,0 h 2.8 c 0.1,0 0,-0.1 0,0 v 5.8 c 0,0.1 0.1,0 0,0 h -2.8 c -0.1,0 0,0.1 0,0 z"
           stroke="#0000ff"
           stroke-width="0.2"
           id="path5573" />
        <path
           d="m 564.2,226.1 v -2.9 c 0,-0.1 -0.1,0 0,0 h 2.8 c 0.1,0 0,-0.1 0,0 v 5.8 c 0,0.1 0.1,0 0,0 h -2.8 c -0.1,0 0,0.1 0,0 z"
           stroke="#0000ff"
           stroke-width="0.2"
           id="path5575" />
        <path
           d="m 564.2,238.1 v -2.9 c 0,-0.1 -0.1,0 0,0 h 2.8 c 0.1,0 0,-0.1 0,0 v 5.8 c 0,0.1 0.1,0 0,0 h -2.8 c -0.1,0 0,0.1 0,0 z"
           stroke="#0000ff"
           stroke-width="0.2"
           id="path5577" />
        <path
           d="m 564.2,250.1 v -2.9 c 0,-0.1 -0.1,0 0,0 h 2.8 c 0.1,0 0,-0.1 0,0 v 5.8 c 0,0.1 0.1,0 0,0 h -2.8 c -0.1,0 0,0.1 0,0 z"
           stroke="#0000ff"
           stroke-width="0.2"
           id="path5579" />
        <path
           d="m 564.2,262.1 v -2.9 c 0,-0.1 -0.1,0 0,0 h 2.8 c 0.1,0 0,-0.1 0,0 v 5.8 c 0,0.1 0.1,0 0,0 h -2.8 c -0.1,0 0,0.1 0,0 z"
           stroke="#0000ff"
           stroke-width="0.2"
           id="path5581" />
        <path
           d="m 564.2,274.1 v -2.9 c 0,-0.1 -0.1,0 0,0 h 2.8 c 0.1,0 0,-0.1 0,0 v 5.8 c 0,0.1 0.1,0 0,0 h -2.8 c -0.1,0 0,0.1 0,0 z"
           stroke="#0000ff"
           stroke-width="0.2"
           id="path5583" />
        <path
           d="m 564.2,286.1 v -2.9 c 0,-0.1 -0.1,0 0,0 h 2.8 c 0.1,0 0,-0.1 0,0 v 5.8 c 0,0.1 0.1,0 0,0 h -2.8 c -0.1,0 0,0.1 0,0 z"
           stroke="#0000ff"
           stroke-width="0.2"
           id="path5585" />
        <path
           d="m 564.2,298.1 v -2.9 c 0,-0.1 -0.1,0 0,0 h 2.8 c 0.1,0 0,-0.1 0,0 v 5.8 c 0,0.1 0.1,0 0,0 h -2.8 c -0.1,0 0,0.1 0,0 z"
           stroke="#0000ff"
           stroke-width="0.2"
           id="path5587" />
      </g>
      <circle
         style="fill:none;stroke:#000000;stroke-width:0.261831;stroke-miterlimit:4;stroke-dasharray:none;stroke-opacity:1;paint-order:markers fill stroke"
         id="path631"
         cx="558.24731"
         cy="51.038288"
         r="14.869084" />
      <circle
         style="fill:none;stroke:#000000;stroke-width:0.261831;stroke-miterlimit:4;stroke-dasharray:none;stroke-opacity:1;paint-order:markers fill stroke"
         id="path631-3"
         cx="558.24731"
         cy="159.31635"
         r="14.869084" />
    </g>
  </g>
</svg>
