<?xml version="1.0" encoding="UTF-8" standalone="no"?>
<svg
   xmlns:dc="http://purl.org/dc/elements/1.1/"
   xmlns:cc="http://creativecommons.org/ns#"
   xmlns:rdf="http://www.w3.org/1999/02/22-rdf-syntax-ns#"
   xmlns:svg="http://www.w3.org/2000/svg"
   xmlns="http://www.w3.org/2000/svg"
   xmlns:sodipodi="http://sodipodi.sourceforge.net/DTD/sodipodi-0.dtd"
   xmlns:inkscape="http://www.inkscape.org/namespaces/inkscape"
   id="svg8"
   version="1.1"
   viewBox="0 0 600 300"
   height="300mm"
   width="600mm"
   sodipodi:docname="caja.svg"
   inkscape:version="1.0.2 (e86c870879, 2021-01-15)">
  <defs
     id="defs2" />
  <sodipodi:namedview
     id="base"
     pagecolor="#ffffff"
     bordercolor="#666666"
     borderopacity="1.0"
     inkscape:pageopacity="0.0"
     inkscape:pageshadow="2"
     inkscape:zoom="0.70710678"
     inkscape:cx="336.9207"
     inkscape:cy="-274.81855"
     inkscape:document-units="mm"
     inkscape:current-layer="layer1"
     inkscape:document-rotation="0"
     showgrid="false"
     inkscape:window-width="1920"
     inkscape:window-height="1016"
     inkscape:window-x="0"
     inkscape:window-y="0"
     inkscape:window-maximized="1" />
  <metadata
     id="metadata5">
    <rdf:RDF>
      <cc:Work
         rdf:about="">
        <dc:format>image/svg+xml</dc:format>
        <dc:type
           rdf:resource="http://purl.org/dc/dcmitype/StillImage" />
        <dc:title></dc:title>
      </cc:Work>
    </rdf:RDF>
  </metadata>
  <g
     inkscape:label="Capa 1"
     inkscape:groupmode="layer"
     id="layer1">
    <g
       id="panel9157">
      <path
         style="fill:none;stroke:#000000;stroke-width:1"
         d="M 4 85.1 L 7.11154 85.1 L 7.11154 82.1 L 13.3731 82.1 L 13.3731 85.1 L 19.4346 85.1 L 19.4346 82.1 L 25.6962 82.1 L 25.6962 85.1 L 31.7577 85.1 L 31.7577 82.1 L 38.0192 82.1 L 38.0192 85.1 L 44.0808 85.1 L 44.0808 82.1 L 50.3423 82.1 L 50.3423 85.1 L 56.4038 85.1 L 56.4038 82.1 L 62.6654 82.1 L 62.6654 85.1 L 68.7269 85.1 L 68.7269 82.1 L 74.9885 82.1 L 74.9885 85.1 L 78.1 85.1"
         id="path1070" />
      <path
         style="fill:none;stroke:#000000;stroke-width:1"
         d="M 78.1 85.1 L 78.1 88.2064 L 81.1 88.2064 L 81.1 94.4628 L 78.1 94.4628 L 78.1 100.519 L 81.1 100.519 L 81.1 106.776 L 78.1 106.776 L 78.1 112.832 L 81.1 112.832 L 81.1 119.088 L 78.1 119.088 L 78.1 125.145 L 81.1 125.145 L 81.1 131.401 L 78.1 131.401 L 78.1 137.458 L 81.1 137.458 L 81.1 143.714 L 78.1 143.714 L 78.1 149.771 L 81.1 149.771 L 81.1 156.027 L 78.1 156.027 L 78.1 162.083 L 81.1 162.083 L 81.1 168.34 L 78.1 168.34 L 78.1 174.396 L 81.1 174.396 L 81.1 180.653 L 78.1 180.653 L 78.1 186.709 L 81.1 186.709 L 81.1 192.965 L 78.1 192.965 L 78.1 199.022 L 81.1 199.022 L 81.1 205.278 L 78.1 205.278 L 78.1 211.335 L 81.1 211.335 L 81.1 217.591 L 78.1 217.591 L 78.1 223.647 L 81.1 223.647 L 81.1 229.904 L 78.1 229.904 L 78.1 235.96 L 81.1 235.96 L 81.1 242.217 L 78.1 242.217 L 78.1 248.273 L 81.1 248.273 L 81.1 254.529 L 78.1 254.529 L 78.1 260.586 L 81.1 260.586 L 81.1 266.842 L 78.1 266.842 L 78.1 272.899 L 81.1 272.899 L 81.1 279.155 L 78.1 279.155 L 78.1 285.212 L 81.1 285.212 L 81.1 291.468 L 78.1 291.468 L 78.1 297.524 L 81.1 297.524 L 81.1 303.781 L 78.1 303.781 L 78.1 309.837 L 81.1 309.837 L 81.1 316.094 L 78.1 316.094 L 78.1 319.2"
         id="path1072" />
      <path
         style="fill:none;stroke:#000000;stroke-width:1"
         d="M 78.1 319.2 L 74.9885 319.2 L 74.9885 322.2 L 68.7269 322.2 L 68.7269 319.2 L 62.6654 319.2 L 62.6654 322.2 L 56.4038 322.2 L 56.4038 319.2 L 50.3423 319.2 L 50.3423 322.2 L 44.0808 322.2 L 44.0808 319.2 L 38.0192 319.2 L 38.0192 322.2 L 31.7577 322.2 L 31.7577 319.2 L 25.6962 319.2 L 25.6962 322.2 L 19.4346 322.2 L 19.4346 319.2 L 13.3731 319.2 L 13.3731 322.2 L 7.11154 322.2 L 7.11154 319.2 L 4 319.2"
         id="path1074" />
      <path
         style="fill:none;stroke:#000000;stroke-width:1"
         d="M 4 319.2 L 4 316.094 L 1 316.094 L 1 309.837 L 4 309.837 L 4 303.781 L 1 303.781 L 1 297.524 L 4 297.524 L 4 291.468 L 1 291.468 L 1 285.212 L 4 285.212 L 4 279.155 L 1 279.155 L 1 272.899 L 4 272.899 L 4 266.842 L 1 266.842 L 1 260.586 L 4 260.586 L 4 254.529 L 1 254.529 L 1 248.273 L 4 248.273 L 4 242.217 L 1 242.217 L 1 235.96 L 4 235.96 L 4 229.904 L 1 229.904 L 1 223.647 L 4 223.647 L 4 217.591 L 1 217.591 L 1 211.335 L 4 211.335 L 4 205.278 L 1 205.278 L 1 199.022 L 4 199.022 L 4 192.965 L 1 192.965 L 1 186.709 L 4 186.709 L 4 180.653 L 1 180.653 L 1 174.396 L 4 174.396 L 4 168.34 L 1 168.34 L 1 162.083 L 4 162.083 L 4 156.027 L 1 156.027 L 1 149.771 L 4 149.771 L 4 143.714 L 1 143.714 L 1 137.458 L 4 137.458 L 4 131.401 L 1 131.401 L 1 125.145 L 4 125.145 L 4 119.088 L 1 119.088 L 1 112.832 L 4 112.832 L 4 106.776 L 1 106.776 L 1 100.519 L 4 100.519 L 4 94.4628 L 1 94.4628 L 1 88.2064 L 4 88.2064 L 4 85.1"
         id="path1076" />
    </g>
    <g
       id="panel3726">
      <path
         style="fill:none;stroke:#000000;stroke-width:1"
         d="M 82.1 82.1 L 88.4711 82.1 L 88.4711 85.1 L 94.6921 85.1 L 94.6921 82.1 L 101.113 82.1 L 101.113 85.1 L 107.334 85.1 L 107.334 82.1 L 113.755 82.1 L 113.755 85.1 L 119.976 85.1 L 119.976 82.1 L 126.397 82.1 L 126.397 85.1 L 132.618 85.1 L 132.618 82.1 L 139.039 82.1 L 139.039 85.1 L 145.261 85.1 L 145.261 82.1 L 151.682 82.1 L 151.682 85.1 L 157.903 85.1 L 157.903 82.1 L 164.324 82.1 L 164.324 85.1 L 170.545 85.1 L 170.545 82.1 L 176.966 82.1 L 176.966 85.1 L 183.187 85.1 L 183.187 82.1 L 189.608 82.1 L 189.608 85.1 L 195.829 85.1 L 195.829 82.1 L 202.2 82.1"
         id="path1118" />
      <path
         style="fill:none;stroke:#000000;stroke-width:1"
         d="M 202.2 82.1 L 202.2 88.3064 L 199.2 88.3064 L 199.2 94.3628 L 202.2 94.3628 L 202.2 100.619 L 199.2 100.619 L 199.2 106.676 L 202.2 106.676 L 202.2 112.932 L 199.2 112.932 L 199.2 118.988 L 202.2 118.988 L 202.2 125.245 L 199.2 125.245 L 199.2 131.301 L 202.2 131.301 L 202.2 137.558 L 199.2 137.558 L 199.2 143.614 L 202.2 143.614 L 202.2 149.871 L 199.2 149.871 L 199.2 155.927 L 202.2 155.927 L 202.2 162.183 L 199.2 162.183 L 199.2 168.24 L 202.2 168.24 L 202.2 174.496 L 199.2 174.496 L 199.2 180.553 L 202.2 180.553 L 202.2 186.809 L 199.2 186.809 L 199.2 192.865 L 202.2 192.865 L 202.2 199.122 L 199.2 199.122 L 199.2 205.178 L 202.2 205.178 L 202.2 211.435 L 199.2 211.435 L 199.2 217.491 L 202.2 217.491 L 202.2 223.747 L 199.2 223.747 L 199.2 229.804 L 202.2 229.804 L 202.2 236.06 L 199.2 236.06 L 199.2 242.117 L 202.2 242.117 L 202.2 248.373 L 199.2 248.373 L 199.2 254.429 L 202.2 254.429 L 202.2 260.686 L 199.2 260.686 L 199.2 266.742 L 202.2 266.742 L 202.2 272.999 L 199.2 272.999 L 199.2 279.055 L 202.2 279.055 L 202.2 285.312 L 199.2 285.312 L 199.2 291.368 L 202.2 291.368 L 202.2 297.624 L 199.2 297.624 L 199.2 303.681 L 202.2 303.681 L 202.2 309.937 L 199.2 309.937 L 199.2 315.994 L 202.2 315.994 L 202.2 322.2"
         id="path1120" />
      <path
         style="fill:none;stroke:#000000;stroke-width:1"
         d="M 202.2 322.2 L 195.829 322.2 L 195.829 319.2 L 189.608 319.2 L 189.608 322.2 L 183.187 322.2 L 183.187 319.2 L 176.966 319.2 L 176.966 322.2 L 170.545 322.2 L 170.545 319.2 L 164.324 319.2 L 164.324 322.2 L 157.903 322.2 L 157.903 319.2 L 151.682 319.2 L 151.682 322.2 L 145.261 322.2 L 145.261 319.2 L 139.039 319.2 L 139.039 322.2 L 132.618 322.2 L 132.618 319.2 L 126.397 319.2 L 126.397 322.2 L 119.976 322.2 L 119.976 319.2 L 113.755 319.2 L 113.755 322.2 L 107.334 322.2 L 107.334 319.2 L 101.113 319.2 L 101.113 322.2 L 94.6921 322.2 L 94.6921 319.2 L 88.4711 319.2 L 88.4711 322.2 L 82.1 322.2"
         id="path1122" />
      <path
         style="fill:none;stroke:#000000;stroke-width:1"
         d="M 82.1 322.2 L 82.1 315.994 L 85.1 315.994 L 85.1 309.937 L 82.1 309.937 L 82.1 303.681 L 85.1 303.681 L 85.1 297.624 L 82.1 297.624 L 82.1 291.368 L 85.1 291.368 L 85.1 285.312 L 82.1 285.312 L 82.1 279.055 L 85.1 279.055 L 85.1 272.999 L 82.1 272.999 L 82.1 266.742 L 85.1 266.742 L 85.1 260.686 L 82.1 260.686 L 82.1 254.429 L 85.1 254.429 L 85.1 248.373 L 82.1 248.373 L 82.1 242.117 L 85.1 242.117 L 85.1 236.06 L 82.1 236.06 L 82.1 229.804 L 85.1 229.804 L 85.1 223.747 L 82.1 223.747 L 82.1 217.491 L 85.1 217.491 L 85.1 211.435 L 82.1 211.435 L 82.1 205.178 L 85.1 205.178 L 85.1 199.122 L 82.1 199.122 L 82.1 192.865 L 85.1 192.865 L 85.1 186.809 L 82.1 186.809 L 82.1 180.553 L 85.1 180.553 L 85.1 174.496 L 82.1 174.496 L 82.1 168.24 L 85.1 168.24 L 85.1 162.183 L 82.1 162.183 L 82.1 155.927 L 85.1 155.927 L 85.1 149.871 L 82.1 149.871 L 82.1 143.614 L 85.1 143.614 L 85.1 137.558 L 82.1 137.558 L 82.1 131.301 L 85.1 131.301 L 85.1 125.245 L 82.1 125.245 L 82.1 118.988 L 85.1 118.988 L 85.1 112.932 L 82.1 112.932 L 82.1 106.676 L 85.1 106.676 L 85.1 100.619 L 82.1 100.619 L 82.1 94.3628 L 85.1 94.3628 L 85.1 88.3064 L 82.1 88.3064 L 82.1 82.1"
         id="path1124" />
    </g>
    <g
       id="panel4352"
       transform="translate(-136.0999,-137)">
      <path
         style="fill:none;stroke:#000000;stroke-width:1"
         d="m 218.1,462.2 h 6.271 v -3 h 6.421 v 3 h 6.221 v -3 h 6.421 v 3 h 6.221 v -3 h 6.421 v 3 h 6.221 v -3 h 6.421 v 3 h 6.221 v -3 h 6.422 v 3 h 6.221 v -3 h 6.421 v 3 h 6.221 v -3 h 6.421 v 3 h 6.221 v -3 h 6.421 v 3 h 6.221 v -3 h 6.421 v 3 h 6.271"
         id="path1236" />
      <path
         style="fill:none;stroke:#000000;stroke-width:1"
         d="m 338.2,462.2 v 3.224 h -3 v 6.075 h 3 v 6.274 h -3 v 6.074 h 3 v 6.274 h -3 v 6.075 h 3 v 6.274 h -3 v 6.074 h 3 v 6.275 h -3 v 6.074 h 3 v 6.274 h -3 v 6.074 h 3 v 6.275 h -3 v 6.074 h 3 v 6.274 h -3 v 6.075 h 3 v 6.274 h -3 v 6.074 h 3 v 6.274 h -3 v 6.075 h 3 v 6.274 h -3 v 6.074 h 3 v 6.275 h -3 v 6.074 h 3 v 6.274 h -3 v 6.074 h 3 v 6.275 h -3 v 6.074 h 3 v 6.274 h -3 v 6.075 h 3 v 6.274 h -3 v 6.074 h 3 v 6.274 h -3 v 6.075 h 3 v 3.224"
         id="path1238" />
      <path
         style="fill:none;stroke:#000000;stroke-width:1"
         d="m 338.2,672.3 h -6.271 v 3 h -6.421 v -3 h -6.221 v 3 h -6.421 v -3 h -6.221 v 3 h -6.421 v -3 h -6.221 v 3 h -6.421 v -3 h -6.221 v 3 h -6.422 v -3 h -6.221 v 3 h -6.421 v -3 h -6.221 v 3 h -6.421 v -3 h -6.221 v 3 h -6.421 v -3 h -6.221 v 3 h -6.421 v -3 H 218.1"
         id="path1240" />
      <path
         style="fill:none;stroke:#000000;stroke-width:1"
         d="m 218.1,672.3 v -3.224 h 3 v -6.075 h -3 v -6.274 h 3 v -6.074 h -3 v -6.274 h 3 v -6.075 h -3 v -6.274 h 3 v -6.074 h -3 v -6.275 h 3 v -6.074 h -3 v -6.274 h 3 v -6.074 h -3 v -6.275 h 3 v -6.074 h -3 v -6.274 h 3 v -6.075 h -3 v -6.274 h 3 v -6.074 h -3 v -6.274 h 3 v -6.075 h -3 v -6.274 h 3 v -6.074 h -3 v -6.275 h 3 v -6.074 h -3 v -6.274 h 3 v -6.074 h -3 v -6.275 h 3 v -6.074 h -3 v -6.274 h 3 v -6.075 h -3 v -6.274 h 3 v -6.074 h -3 v -6.274 h 3 v -6.075 h -3 V 462.2"
         id="path1242" />
    </g>
    <g
       id="panel7442">
      <path
         style="fill:none;stroke:#000000;stroke-width:1"
         d="M 3 679.3 L 6.27105 679.3 L 6.27105 679.3 L 12.6921 679.3 L 12.6921 679.3 L 18.9132 679.3 L 18.9132 679.3 L 25.3342 679.3 L 25.3342 679.3 L 31.5553 679.3 L 31.5553 679.3 L 37.9763 679.3 L 37.9763 679.3 L 44.1974 679.3 L 44.1974 679.3 L 50.6184 679.3 L 50.6184 679.3 L 56.8395 679.3 L 56.8395 679.3 L 63.2605 679.3 L 63.2605 679.3 L 69.4816 679.3 L 69.4816 679.3 L 75.9026 679.3 L 75.9026 679.3 L 82.1237 679.3 L 82.1237 679.3 L 88.5447 679.3 L 88.5447 679.3 L 94.7658 679.3 L 94.7658 679.3 L 101.187 679.3 L 101.187 679.3 L 107.408 679.3 L 107.408 679.3 L 113.829 679.3 L 113.829 679.3 L 117.1 679.3"
         id="path1245" />
      <path
         style="fill:none;stroke:#000000;stroke-width:1"
         d="M 84.875 676.3 L 84.875 784.4 L 87.775 784.4 L 87.775 676.3 L 84.875 676.3"
         id="path1247" />
      <path
         style="fill:none;stroke:#000000;stroke-width:1"
         d="M 55.6 676.3 L 55.6 784.4 L 58.5 784.4 L 58.5 676.3 L 55.6 676.3"
         id="path1249" />
      <path
         style="fill:none;stroke:#000000;stroke-width:1"
         d="M 26.325 676.3 L 26.325 784.4 L 29.225 784.4 L 29.225 676.3 L 26.325 676.3"
         id="path1251" />
      <path
         style="fill:none;stroke:#000000;stroke-width:1"
         d="M 117.1 679.3 L 117.1 682.424 L 117.1 682.424 L 117.1 688.699 L 117.1 688.699 L 117.1 694.773 L 117.1 694.773 L 117.1 701.047 L 117.1 701.047 L 117.1 707.121 L 117.1 707.121 L 117.1 713.396 L 117.1 713.396 L 117.1 719.47 L 117.1 719.47 L 117.1 725.744 L 117.1 725.744 L 117.1 731.819 L 117.1 731.819 L 117.1 738.093 L 117.1 738.093 L 117.1 744.167 L 117.1 744.167 L 117.1 750.441 L 117.1 750.441 L 117.1 756.516 L 117.1 756.516 L 117.1 762.79 L 117.1 762.79 L 117.1 768.864 L 117.1 768.864 L 117.1 775.139 L 117.1 775.139 L 117.1 781.213 L 117.1 781.213 L 117.1 787.487 L 117.1 787.487 L 117.1 793.561 L 117.1 793.561 L 117.1 799.836 L 117.1 799.836 L 117.1 805.91 L 117.1 805.91 L 117.1 812.184 L 117.1 812.184 L 117.1 818.259 L 117.1 818.259 L 117.1 824.533 L 117.1 824.533 L 117.1 830.607 L 117.1 830.607 L 117.1 836.881 L 117.1 836.881 L 117.1 842.956 L 117.1 842.956 L 117.1 849.23 L 117.1 849.23 L 117.1 855.304 L 117.1 855.304 L 117.1 861.579 L 117.1 861.579 L 117.1 867.653 L 117.1 867.653 L 117.1 873.927 L 117.1 873.927 L 117.1 880.001 L 117.1 880.001 L 117.1 886.276 L 117.1 886.276 L 117.1 889.4"
         id="path1253" />
      <path
         style="fill:none;stroke:#000000;stroke-width:1"
         d="M 117.1 889.4 L 113.829 889.4 L 113.829 889.4 L 107.408 889.4 L 107.408 889.4 L 101.187 889.4 L 101.187 889.4 L 94.7658 889.4 L 94.7658 889.4 L 88.5447 889.4 L 88.5447 889.4 L 82.1237 889.4 L 82.1237 889.4 L 75.9026 889.4 L 75.9026 889.4 L 69.4816 889.4 L 69.4816 889.4 L 63.2605 889.4 L 63.2605 889.4 L 56.8395 889.4 L 56.8395 889.4 L 50.6184 889.4 L 50.6184 889.4 L 44.1974 889.4 L 44.1974 889.4 L 37.9763 889.4 L 37.9763 889.4 L 31.5553 889.4 L 31.5553 889.4 L 25.3342 889.4 L 25.3342 889.4 L 18.9132 889.4 L 18.9132 889.4 L 12.6921 889.4 L 12.6921 889.4 L 6.27105 889.4 L 6.27105 889.4 L 3 889.4"
         id="path1255" />
      <path
         style="fill:none;stroke:#000000;stroke-width:1"
         d="M 3 889.4 L 3 886.276 L 3 886.276 L 3 880.001 L 3 880.001 L 3 873.927 L 3 873.927 L 3 867.653 L 3 867.653 L 3 861.579 L 3 861.579 L 3 855.304 L 3 855.304 L 3 849.23 L 3 849.23 L 3 842.956 L 3 842.956 L 3 836.881 L 3 836.881 L 3 830.607 L 3 830.607 L 3 824.533 L 3 824.533 L 3 818.259 L 3 818.259 L 3 812.184 L 3 812.184 L 3 805.91 L 3 805.91 L 3 799.836 L 3 799.836 L 3 793.561 L 3 793.561 L 3 787.487 L 3 787.487 L 3 781.213 L 3 781.213 L 3 775.139 L 3 775.139 L 3 768.864 L 3 768.864 L 3 762.79 L 3 762.79 L 3 756.516 L 3 756.516 L 3 750.441 L 3 750.441 L 3 744.167 L 3 744.167 L 3 738.093 L 3 738.093 L 3 731.819 L 3 731.819 L 3 725.744 L 3 725.744 L 3 719.47 L 3 719.47 L 3 713.396 L 3 713.396 L 3 707.121 L 3 707.121 L 3 701.047 L 3 701.047 L 3 694.773 L 3 694.773 L 3 688.699 L 3 688.699 L 3 682.424 L 3 682.424 L 3 679.3"
         id="path1257" />
    </g>
    <g
       id="panel1043">
      <path
         style="fill:none;stroke:#000000;stroke-width:1"
         d="M 124.1 679.3 L 127.371 679.3 L 127.371 679.3 L 133.792 679.3 L 133.792 679.3 L 140.013 679.3 L 140.013 679.3 L 146.434 679.3 L 146.434 679.3 L 152.655 679.3 L 152.655 679.3 L 159.076 679.3 L 159.076 679.3 L 165.297 679.3 L 165.297 679.3 L 171.718 679.3 L 171.718 679.3 L 177.939 679.3 L 177.939 679.3 L 184.361 679.3 L 184.361 679.3 L 190.582 679.3 L 190.582 679.3 L 197.003 679.3 L 197.003 679.3 L 203.224 679.3 L 203.224 679.3 L 209.645 679.3 L 209.645 679.3 L 215.866 679.3 L 215.866 679.3 L 222.287 679.3 L 222.287 679.3 L 228.508 679.3 L 228.508 679.3 L 234.929 679.3 L 234.929 679.3 L 238.2 679.3"
         id="path1260" />
      <path
         style="fill:none;stroke:#000000;stroke-width:1"
         d="M 205.975 676.3 L 205.975 784.4 L 208.875 784.4 L 208.875 676.3 L 205.975 676.3"
         id="path1262" />
      <path
         style="fill:none;stroke:#000000;stroke-width:1"
         d="M 176.7 676.3 L 176.7 784.4 L 179.6 784.4 L 179.6 676.3 L 176.7 676.3"
         id="path1264" />
      <path
         style="fill:none;stroke:#000000;stroke-width:1"
         d="M 147.425 676.3 L 147.425 784.4 L 150.325 784.4 L 150.325 676.3 L 147.425 676.3"
         id="path1266" />
      <path
         style="fill:none;stroke:#000000;stroke-width:1"
         d="M 238.2 679.3 L 238.2 682.424 L 238.2 682.424 L 238.2 688.699 L 238.2 688.699 L 238.2 694.773 L 238.2 694.773 L 238.2 701.047 L 238.2 701.047 L 238.2 707.121 L 238.2 707.121 L 238.2 713.396 L 238.2 713.396 L 238.2 719.47 L 238.2 719.47 L 238.2 725.744 L 238.2 725.744 L 238.2 731.819 L 238.2 731.819 L 238.2 738.093 L 238.2 738.093 L 238.2 744.167 L 238.2 744.167 L 238.2 750.441 L 238.2 750.441 L 238.2 756.516 L 238.2 756.516 L 238.2 762.79 L 238.2 762.79 L 238.2 768.864 L 238.2 768.864 L 238.2 775.139 L 238.2 775.139 L 238.2 781.213 L 238.2 781.213 L 238.2 787.487 L 238.2 787.487 L 238.2 793.561 L 238.2 793.561 L 238.2 799.836 L 238.2 799.836 L 238.2 805.91 L 238.2 805.91 L 238.2 812.184 L 238.2 812.184 L 238.2 818.259 L 238.2 818.259 L 238.2 824.533 L 238.2 824.533 L 238.2 830.607 L 238.2 830.607 L 238.2 836.881 L 238.2 836.881 L 238.2 842.956 L 238.2 842.956 L 238.2 849.23 L 238.2 849.23 L 238.2 855.304 L 238.2 855.304 L 238.2 861.579 L 238.2 861.579 L 238.2 867.653 L 238.2 867.653 L 238.2 873.927 L 238.2 873.927 L 238.2 880.001 L 238.2 880.001 L 238.2 886.276 L 238.2 886.276 L 238.2 889.4"
         id="path1268" />
      <path
         style="fill:none;stroke:#000000;stroke-width:1"
         d="M 238.2 889.4 L 234.929 889.4 L 234.929 889.4 L 228.508 889.4 L 228.508 889.4 L 222.287 889.4 L 222.287 889.4 L 215.866 889.4 L 215.866 889.4 L 209.645 889.4 L 209.645 889.4 L 203.224 889.4 L 203.224 889.4 L 197.003 889.4 L 197.003 889.4 L 190.582 889.4 L 190.582 889.4 L 184.361 889.4 L 184.361 889.4 L 177.939 889.4 L 177.939 889.4 L 171.718 889.4 L 171.718 889.4 L 165.297 889.4 L 165.297 889.4 L 159.076 889.4 L 159.076 889.4 L 152.655 889.4 L 152.655 889.4 L 146.434 889.4 L 146.434 889.4 L 140.013 889.4 L 140.013 889.4 L 133.792 889.4 L 133.792 889.4 L 127.371 889.4 L 127.371 889.4 L 124.1 889.4"
         id="path1270" />
      <path
         style="fill:none;stroke:#000000;stroke-width:1"
         d="M 124.1 889.4 L 124.1 886.276 L 124.1 886.276 L 124.1 880.001 L 124.1 880.001 L 124.1 873.927 L 124.1 873.927 L 124.1 867.653 L 124.1 867.653 L 124.1 861.579 L 124.1 861.579 L 124.1 855.304 L 124.1 855.304 L 124.1 849.23 L 124.1 849.23 L 124.1 842.956 L 124.1 842.956 L 124.1 836.881 L 124.1 836.881 L 124.1 830.607 L 124.1 830.607 L 124.1 824.533 L 124.1 824.533 L 124.1 818.259 L 124.1 818.259 L 124.1 812.184 L 124.1 812.184 L 124.1 805.91 L 124.1 805.91 L 124.1 799.836 L 124.1 799.836 L 124.1 793.561 L 124.1 793.561 L 124.1 787.487 L 124.1 787.487 L 124.1 781.213 L 124.1 781.213 L 124.1 775.139 L 124.1 775.139 L 124.1 768.864 L 124.1 768.864 L 124.1 762.79 L 124.1 762.79 L 124.1 756.516 L 124.1 756.516 L 124.1 750.441 L 124.1 750.441 L 124.1 744.167 L 124.1 744.167 L 124.1 738.093 L 124.1 738.093 L 124.1 731.819 L 124.1 731.819 L 124.1 725.744 L 124.1 725.744 L 124.1 719.47 L 124.1 719.47 L 124.1 713.396 L 124.1 713.396 L 124.1 707.121 L 124.1 707.121 L 124.1 701.047 L 124.1 701.047 L 124.1 694.773 L 124.1 694.773 L 124.1 688.699 L 124.1 688.699 L 124.1 682.424 L 124.1 682.424 L 124.1 679.3"
         id="path1272" />
    </g>
    <g
       id="panel189"
       transform="translate(-216.1,-136)">
      <path
         style="fill:none;stroke:#000000;stroke-width:1"
         d="m 4,221.1 h 3.12429 v -3 h 6.27431 v 3 h 6.0743 v -3 h 6.2742 v 3 h 6.0743 v -3 h 6.2743 v 3 H 44.17 v -3 h 6.2743 v 3 h 6.0743 v -3 h 6.2743 v 3 h 6.0742 v -3 h 6.2743 v 3 h 6.0743 v -3 H 87.49 v 3 h 6.0743 v -3 h 6.2743 v 3 h 6.0744 v -3 h 6.274 v 3 h 6.074 v -3 h 6.275 v 3 h 6.074 v -3 h 6.274 v 3 h 6.075 v -3 h 6.274 v 3 h 6.074 v -3 h 6.274 v 3 h 6.075 v -3 h 6.274 v 3 h 6.074 v -3 h 6.275 v 3 h 6.074 v -3 h 6.274 v 3 h 6.074 v -3 h 6.275 v 3 h 3.124"
         id="path1275" />
      <path
         style="fill:none;stroke:#000000;stroke-width:1"
         d="m 214.1,221.1 v 3.106 h 3 v 6.257 h -3 v 6.056 h 3 v 6.257 h -3 v 6.056 h 3 v 6.256 h -3 v 6.057 h 3 v 6.256 h -3 v 6.057 h 3 v 6.256 h -3 v 6.057 h 3 v 6.256 h -3 v 6.056 h 3 v 6.257 h -3 v 6.056 h 3 v 6.257 h -3 v 6.056 h 3 v 6.256 h -3 v 6.057 h 3 v 6.256 h -3 v 6.057 h 3 v 6.256 h -3 v 6.056 h 3 v 6.257 h -3 v 6.056 h 3 v 6.257 h -3 v 6.056 h 3 v 6.256 h -3 v 6.057 h 3 v 6.256 h -3 v 6.057 h 3 v 6.256 h -3 v 6.057 h 3 v 6.256 h -3 v 6.056 h 3 v 6.257 h -3 v 6.056 h 3 v 6.257 h -3 v 3.106"
         id="path1277" />
      <path
         style="fill:none;stroke:#000000;stroke-width:1"
         d="m 214.1,455.2 h -3.124 v 3 h -6.275 v -3 h -6.074 v 3 h -6.274 v -3 h -6.074 v 3 h -6.275 v -3 h -6.074 v 3 h -6.274 v -3 h -6.075 v 3 h -6.274 v -3 h -6.074 v 3 h -6.274 v -3 h -6.075 v 3 h -6.274 v -3 h -6.074 v 3 h -6.275 v -3 h -6.074 v 3 h -6.274 v -3 h -6.0744 v 3 h -6.2743 v -3 H 87.49 v 3 h -6.2743 v -3 h -6.0743 v 3 h -6.2743 v -3 h -6.0742 v 3 h -6.2743 v -3 h -6.0743 v 3 H 44.17 v -3 h -6.0743 v 3 h -6.2743 v -3 h -6.0743 v 3 h -6.2742 v -3 h -6.0743 v 3 H 7.12429 v -3 H 4"
         id="path1279" />
      <path
         style="fill:none;stroke:#000000;stroke-width:1"
         d="m 4,455.2 v -3.106 H 1 v -6.257 h 3 v -6.056 H 1 v -6.257 h 3 v -6.056 H 1 v -6.256 h 3 v -6.057 H 1 v -6.256 h 3 v -6.057 H 1 v -6.256 h 3 v -6.057 H 1 v -6.256 h 3 v -6.056 H 1 v -6.257 h 3 v -6.056 H 1 v -6.257 h 3 v -6.056 H 1 v -6.256 h 3 v -6.057 H 1 v -6.256 h 3 v -6.057 H 1 v -6.256 h 3 v -6.056 H 1 v -6.257 H 4 V 304.34 H 1 v -6.257 h 3 v -6.056 H 1 v -6.256 h 3 v -6.057 H 1 v -6.256 h 3 v -6.057 H 1 v -6.256 h 3 v -6.057 H 1 v -6.256 h 3 v -6.056 H 1 v -6.257 h 3 v -6.056 H 1 v -6.257 H 4 V 221.1"
         id="path1281" />
    </g>
    <g
       id="panel4341">
      <path
         style="fill:none;stroke:#000000;stroke-width:1"
         d="M 0 972.483 L 108.1 972.483 L 108.1 975.383 L 0 975.383 L 0 972.483"
         id="path1284" />
      <path
         style="fill:none;stroke:#000000;stroke-width:1"
         d="M 0 1051.52 L 108.1 1051.52 L 108.1 1054.42 L 0 1054.42 L 0 1051.52"
         id="path1286" />
      <path
         style="fill:none;stroke:#000000;stroke-width:1"
         d="M 3 896.4 L 6.12429 896.4 L 6.12429 896.4 L 12.3986 896.4 L 12.3986 896.4 L 18.4729 896.4 L 18.4729 896.4 L 24.7471 896.4 L 24.7471 896.4 L 30.8214 896.4 L 30.8214 896.4 L 37.0957 896.4 L 37.0957 896.4 L 43.17 896.4 L 43.17 896.4 L 49.4443 896.4 L 49.4443 896.4 L 55.5186 896.4 L 55.5186 896.4 L 61.7929 896.4 L 61.7929 896.4 L 67.8671 896.4 L 67.8671 896.4 L 74.1414 896.4 L 74.1414 896.4 L 80.2157 896.4 L 80.2157 896.4 L 86.49 896.4 L 86.49 896.4 L 92.5643 896.4 L 92.5643 896.4 L 98.8386 896.4 L 98.8386 896.4 L 104.913 896.4 L 104.913 896.4 L 111.187 896.4 L 111.187 896.4 L 117.261 896.4 L 117.261 896.4 L 123.536 896.4 L 123.536 896.4 L 129.61 896.4 L 129.61 896.4 L 135.884 896.4 L 135.884 896.4 L 141.959 896.4 L 141.959 896.4 L 148.233 896.4 L 148.233 896.4 L 154.307 896.4 L 154.307 896.4 L 160.581 896.4 L 160.581 896.4 L 166.656 896.4 L 166.656 896.4 L 172.93 896.4 L 172.93 896.4 L 179.004 896.4 L 179.004 896.4 L 185.279 896.4 L 185.279 896.4 L 191.353 896.4 L 191.353 896.4 L 197.627 896.4 L 197.627 896.4 L 203.701 896.4 L 203.701 896.4 L 209.976 896.4 L 209.976 896.4 L 213.1 896.4"
         id="path1288" />
      <path
         style="fill:none;stroke:#000000;stroke-width:1"
         d="M 213.1 896.4 L 213.1 899.506 L 213.1 899.506 L 213.1 905.763 L 213.1 905.763 L 213.1 911.819 L 213.1 911.819 L 213.1 918.076 L 213.1 918.076 L 213.1 924.132 L 213.1 924.132 L 213.1 930.388 L 213.1 930.388 L 213.1 936.445 L 213.1 936.445 L 213.1 942.701 L 213.1 942.701 L 213.1 948.758 L 213.1 948.758 L 213.1 955.014 L 213.1 955.014 L 213.1 961.071 L 213.1 961.071 L 213.1 967.327 L 213.1 967.327 L 213.1 973.383 L 213.1 973.383 L 213.1 979.64 L 213.1 979.64 L 213.1 985.696 L 213.1 985.696 L 213.1 991.953 L 213.1 991.953 L 213.1 998.009 L 213.1 998.009 L 213.1 1004.27 L 213.1 1004.27 L 213.1 1010.32 L 213.1 1010.32 L 213.1 1016.58 L 213.1 1016.58 L 213.1 1022.63 L 213.1 1022.63 L 213.1 1028.89 L 213.1 1028.89 L 213.1 1034.95 L 213.1 1034.95 L 213.1 1041.2 L 213.1 1041.2 L 213.1 1047.26 L 213.1 1047.26 L 213.1 1053.52 L 213.1 1053.52 L 213.1 1059.57 L 213.1 1059.57 L 213.1 1065.83 L 213.1 1065.83 L 213.1 1071.89 L 213.1 1071.89 L 213.1 1078.14 L 213.1 1078.14 L 213.1 1084.2 L 213.1 1084.2 L 213.1 1090.46 L 213.1 1090.46 L 213.1 1096.51 L 213.1 1096.51 L 213.1 1102.77 L 213.1 1102.77 L 213.1 1108.82 L 213.1 1108.82 L 213.1 1115.08 L 213.1 1115.08 L 213.1 1121.14 L 213.1 1121.14 L 213.1 1127.39 L 213.1 1127.39 L 213.1 1130.5"
         id="path1290" />
      <path
         style="fill:none;stroke:#000000;stroke-width:1"
         d="M 213.1 1130.5 L 209.976 1130.5 L 209.976 1130.5 L 203.701 1130.5 L 203.701 1130.5 L 197.627 1130.5 L 197.627 1130.5 L 191.353 1130.5 L 191.353 1130.5 L 185.279 1130.5 L 185.279 1130.5 L 179.004 1130.5 L 179.004 1130.5 L 172.93 1130.5 L 172.93 1130.5 L 166.656 1130.5 L 166.656 1130.5 L 160.581 1130.5 L 160.581 1130.5 L 154.307 1130.5 L 154.307 1130.5 L 148.233 1130.5 L 148.233 1130.5 L 141.959 1130.5 L 141.959 1130.5 L 135.884 1130.5 L 135.884 1130.5 L 129.61 1130.5 L 129.61 1130.5 L 123.536 1130.5 L 123.536 1130.5 L 117.261 1130.5 L 117.261 1130.5 L 111.187 1130.5 L 111.187 1130.5 L 104.913 1130.5 L 104.913 1130.5 L 98.8386 1130.5 L 98.8386 1130.5 L 92.5643 1130.5 L 92.5643 1130.5 L 86.49 1130.5 L 86.49 1130.5 L 80.2157 1130.5 L 80.2157 1130.5 L 74.1414 1130.5 L 74.1414 1130.5 L 67.8671 1130.5 L 67.8671 1130.5 L 61.7929 1130.5 L 61.7929 1130.5 L 55.5186 1130.5 L 55.5186 1130.5 L 49.4443 1130.5 L 49.4443 1130.5 L 43.17 1130.5 L 43.17 1130.5 L 37.0957 1130.5 L 37.0957 1130.5 L 30.8214 1130.5 L 30.8214 1130.5 L 24.7471 1130.5 L 24.7471 1130.5 L 18.4729 1130.5 L 18.4729 1130.5 L 12.3986 1130.5 L 12.3986 1130.5 L 6.12429 1130.5 L 6.12429 1130.5 L 3 1130.5"
         id="path1292" />
      <path
         style="fill:none;stroke:#000000;stroke-width:1"
         d="M 3 1130.5 L 3 1127.39 L 3 1127.39 L 3 1121.14 L 3 1121.14 L 3 1115.08 L 3 1115.08 L 3 1108.82 L 3 1108.82 L 3 1102.77 L 3 1102.77 L 3 1096.51 L 3 1096.51 L 3 1090.46 L 3 1090.46 L 3 1084.2 L 3 1084.2 L 3 1078.14 L 3 1078.14 L 3 1071.89 L 3 1071.89 L 3 1065.83 L 3 1065.83 L 3 1059.57 L 3 1059.57 L 3 1053.52 L 3 1053.52 L 3 1047.26 L 3 1047.26 L 3 1041.2 L 3 1041.2 L 3 1034.95 L 3 1034.95 L 3 1028.89 L 3 1028.89 L 3 1022.63 L 3 1022.63 L 3 1016.58 L 3 1016.58 L 3 1010.32 L 3 1010.32 L 3 1004.27 L 3 1004.27 L 3 998.009 L 3 998.009 L 3 991.953 L 3 991.953 L 3 985.696 L 3 985.696 L 3 979.64 L 3 979.64 L 3 973.383 L 3 973.383 L 3 967.327 L 3 967.327 L 3 961.071 L 3 961.071 L 3 955.014 L 3 955.014 L 3 948.758 L 3 948.758 L 3 942.701 L 3 942.701 L 3 936.445 L 3 936.445 L 3 930.388 L 3 930.388 L 3 924.132 L 3 924.132 L 3 918.076 L 3 918.076 L 3 911.819 L 3 911.819 L 3 905.763 L 3 905.763 L 3 899.506 L 3 899.506 L 3 896.4"
         id="path1294" />
    </g>
    <g
       id="panel8789">
      <path
         style="fill:none;stroke:#000000;stroke-width:1"
         d="M 217.1 972.483 L 325.2 972.483 L 325.2 975.383 L 217.1 975.383 L 217.1 972.483"
         id="path1297" />
      <path
         style="fill:none;stroke:#000000;stroke-width:1"
         d="M 217.1 1051.52 L 325.2 1051.52 L 325.2 1054.42 L 217.1 1054.42 L 217.1 1051.52"
         id="path1299" />
      <path
         style="fill:none;stroke:#000000;stroke-width:1"
         d="M 220.1 896.4 L 223.224 896.4 L 223.224 896.4 L 229.499 896.4 L 229.499 896.4 L 235.573 896.4 L 235.573 896.4 L 241.847 896.4 L 241.847 896.4 L 247.921 896.4 L 247.921 896.4 L 254.196 896.4 L 254.196 896.4 L 260.27 896.4 L 260.27 896.4 L 266.544 896.4 L 266.544 896.4 L 272.619 896.4 L 272.619 896.4 L 278.893 896.4 L 278.893 896.4 L 284.967 896.4 L 284.967 896.4 L 291.241 896.4 L 291.241 896.4 L 297.316 896.4 L 297.316 896.4 L 303.59 896.4 L 303.59 896.4 L 309.664 896.4 L 309.664 896.4 L 315.939 896.4 L 315.939 896.4 L 322.013 896.4 L 322.013 896.4 L 328.287 896.4 L 328.287 896.4 L 334.361 896.4 L 334.361 896.4 L 340.636 896.4 L 340.636 896.4 L 346.71 896.4 L 346.71 896.4 L 352.984 896.4 L 352.984 896.4 L 359.059 896.4 L 359.059 896.4 L 365.333 896.4 L 365.333 896.4 L 371.407 896.4 L 371.407 896.4 L 377.681 896.4 L 377.681 896.4 L 383.756 896.4 L 383.756 896.4 L 390.03 896.4 L 390.03 896.4 L 396.104 896.4 L 396.104 896.4 L 402.379 896.4 L 402.379 896.4 L 408.453 896.4 L 408.453 896.4 L 414.727 896.4 L 414.727 896.4 L 420.801 896.4 L 420.801 896.4 L 427.076 896.4 L 427.076 896.4 L 430.2 896.4"
         id="path1301" />
      <path
         style="fill:none;stroke:#000000;stroke-width:1"
         d="M 430.2 896.4 L 430.2 899.506 L 430.2 899.506 L 430.2 905.763 L 430.2 905.763 L 430.2 911.819 L 430.2 911.819 L 430.2 918.076 L 430.2 918.076 L 430.2 924.132 L 430.2 924.132 L 430.2 930.388 L 430.2 930.388 L 430.2 936.445 L 430.2 936.445 L 430.2 942.701 L 430.2 942.701 L 430.2 948.758 L 430.2 948.758 L 430.2 955.014 L 430.2 955.014 L 430.2 961.071 L 430.2 961.071 L 430.2 967.327 L 430.2 967.327 L 430.2 973.383 L 430.2 973.383 L 430.2 979.64 L 430.2 979.64 L 430.2 985.696 L 430.2 985.696 L 430.2 991.953 L 430.2 991.953 L 430.2 998.009 L 430.2 998.009 L 430.2 1004.27 L 430.2 1004.27 L 430.2 1010.32 L 430.2 1010.32 L 430.2 1016.58 L 430.2 1016.58 L 430.2 1022.63 L 430.2 1022.63 L 430.2 1028.89 L 430.2 1028.89 L 430.2 1034.95 L 430.2 1034.95 L 430.2 1041.2 L 430.2 1041.2 L 430.2 1047.26 L 430.2 1047.26 L 430.2 1053.52 L 430.2 1053.52 L 430.2 1059.57 L 430.2 1059.57 L 430.2 1065.83 L 430.2 1065.83 L 430.2 1071.89 L 430.2 1071.89 L 430.2 1078.14 L 430.2 1078.14 L 430.2 1084.2 L 430.2 1084.2 L 430.2 1090.46 L 430.2 1090.46 L 430.2 1096.51 L 430.2 1096.51 L 430.2 1102.77 L 430.2 1102.77 L 430.2 1108.82 L 430.2 1108.82 L 430.2 1115.08 L 430.2 1115.08 L 430.2 1121.14 L 430.2 1121.14 L 430.2 1127.39 L 430.2 1127.39 L 430.2 1130.5"
         id="path1303" />
      <path
         style="fill:none;stroke:#000000;stroke-width:1"
         d="M 430.2 1130.5 L 427.076 1130.5 L 427.076 1130.5 L 420.801 1130.5 L 420.801 1130.5 L 414.727 1130.5 L 414.727 1130.5 L 408.453 1130.5 L 408.453 1130.5 L 402.379 1130.5 L 402.379 1130.5 L 396.104 1130.5 L 396.104 1130.5 L 390.03 1130.5 L 390.03 1130.5 L 383.756 1130.5 L 383.756 1130.5 L 377.681 1130.5 L 377.681 1130.5 L 371.407 1130.5 L 371.407 1130.5 L 365.333 1130.5 L 365.333 1130.5 L 359.059 1130.5 L 359.059 1130.5 L 352.984 1130.5 L 352.984 1130.5 L 346.71 1130.5 L 346.71 1130.5 L 340.636 1130.5 L 340.636 1130.5 L 334.361 1130.5 L 334.361 1130.5 L 328.287 1130.5 L 328.287 1130.5 L 322.013 1130.5 L 322.013 1130.5 L 315.939 1130.5 L 315.939 1130.5 L 309.664 1130.5 L 309.664 1130.5 L 303.59 1130.5 L 303.59 1130.5 L 297.316 1130.5 L 297.316 1130.5 L 291.241 1130.5 L 291.241 1130.5 L 284.967 1130.5 L 284.967 1130.5 L 278.893 1130.5 L 278.893 1130.5 L 272.619 1130.5 L 272.619 1130.5 L 266.544 1130.5 L 266.544 1130.5 L 260.27 1130.5 L 260.27 1130.5 L 254.196 1130.5 L 254.196 1130.5 L 247.921 1130.5 L 247.921 1130.5 L 241.847 1130.5 L 241.847 1130.5 L 235.573 1130.5 L 235.573 1130.5 L 229.499 1130.5 L 229.499 1130.5 L 223.224 1130.5 L 223.224 1130.5 L 220.1 1130.5"
         id="path1305" />
      <path
         style="fill:none;stroke:#000000;stroke-width:1"
         d="M 220.1 1130.5 L 220.1 1127.39 L 220.1 1127.39 L 220.1 1121.14 L 220.1 1121.14 L 220.1 1115.08 L 220.1 1115.08 L 220.1 1108.82 L 220.1 1108.82 L 220.1 1102.77 L 220.1 1102.77 L 220.1 1096.51 L 220.1 1096.51 L 220.1 1090.46 L 220.1 1090.46 L 220.1 1084.2 L 220.1 1084.2 L 220.1 1078.14 L 220.1 1078.14 L 220.1 1071.89 L 220.1 1071.89 L 220.1 1065.83 L 220.1 1065.83 L 220.1 1059.57 L 220.1 1059.57 L 220.1 1053.52 L 220.1 1053.52 L 220.1 1047.26 L 220.1 1047.26 L 220.1 1041.2 L 220.1 1041.2 L 220.1 1034.95 L 220.1 1034.95 L 220.1 1028.89 L 220.1 1028.89 L 220.1 1022.63 L 220.1 1022.63 L 220.1 1016.58 L 220.1 1016.58 L 220.1 1010.32 L 220.1 1010.32 L 220.1 1004.27 L 220.1 1004.27 L 220.1 998.009 L 220.1 998.009 L 220.1 991.953 L 220.1 991.953 L 220.1 985.696 L 220.1 985.696 L 220.1 979.64 L 220.1 979.64 L 220.1 973.383 L 220.1 973.383 L 220.1 967.327 L 220.1 967.327 L 220.1 961.071 L 220.1 961.071 L 220.1 955.014 L 220.1 955.014 L 220.1 948.758 L 220.1 948.758 L 220.1 942.701 L 220.1 942.701 L 220.1 936.445 L 220.1 936.445 L 220.1 930.388 L 220.1 930.388 L 220.1 924.132 L 220.1 924.132 L 220.1 918.076 L 220.1 918.076 L 220.1 911.819 L 220.1 911.819 L 220.1 905.763 L 220.1 905.763 L 220.1 899.506 L 220.1 899.506 L 220.1 896.4"
         id="path1307" />
    </g>
    <g
       id="panel8173">
      <path
         style="fill:none;stroke:#000000;stroke-width:1"
         d="M 434.2 972.483 L 542.3 972.483 L 542.3 975.383 L 434.2 975.383 L 434.2 972.483"
         id="path1310" />
      <path
         style="fill:none;stroke:#000000;stroke-width:1"
         d="M 434.2 1051.52 L 542.3 1051.52 L 542.3 1054.42 L 434.2 1054.42 L 434.2 1051.52"
         id="path1312" />
      <path
         style="fill:none;stroke:#000000;stroke-width:1"
         d="M 437.2 896.4 L 440.324 896.4 L 440.324 896.4 L 446.599 896.4 L 446.599 896.4 L 452.673 896.4 L 452.673 896.4 L 458.947 896.4 L 458.947 896.4 L 465.021 896.4 L 465.021 896.4 L 471.296 896.4 L 471.296 896.4 L 477.37 896.4 L 477.37 896.4 L 483.644 896.4 L 483.644 896.4 L 489.719 896.4 L 489.719 896.4 L 495.993 896.4 L 495.993 896.4 L 502.067 896.4 L 502.067 896.4 L 508.341 896.4 L 508.341 896.4 L 514.416 896.4 L 514.416 896.4 L 520.69 896.4 L 520.69 896.4 L 526.764 896.4 L 526.764 896.4 L 533.039 896.4 L 533.039 896.4 L 539.113 896.4 L 539.113 896.4 L 545.387 896.4 L 545.387 896.4 L 551.461 896.4 L 551.461 896.4 L 557.736 896.4 L 557.736 896.4 L 563.81 896.4 L 563.81 896.4 L 570.084 896.4 L 570.084 896.4 L 576.159 896.4 L 576.159 896.4 L 582.433 896.4 L 582.433 896.4 L 588.507 896.4 L 588.507 896.4 L 594.781 896.4 L 594.781 896.4 L 600.856 896.4 L 600.856 896.4 L 607.13 896.4 L 607.13 896.4 L 613.204 896.4 L 613.204 896.4 L 619.479 896.4 L 619.479 896.4 L 625.553 896.4 L 625.553 896.4 L 631.827 896.4 L 631.827 896.4 L 637.901 896.4 L 637.901 896.4 L 644.176 896.4 L 644.176 896.4 L 647.3 896.4"
         id="path1314" />
      <path
         style="fill:none;stroke:#000000;stroke-width:1"
         d="M 647.3 896.4 L 647.3 899.506 L 647.3 899.506 L 647.3 905.763 L 647.3 905.763 L 647.3 911.819 L 647.3 911.819 L 647.3 918.076 L 647.3 918.076 L 647.3 924.132 L 647.3 924.132 L 647.3 930.388 L 647.3 930.388 L 647.3 936.445 L 647.3 936.445 L 647.3 942.701 L 647.3 942.701 L 647.3 948.758 L 647.3 948.758 L 647.3 955.014 L 647.3 955.014 L 647.3 961.071 L 647.3 961.071 L 647.3 967.327 L 647.3 967.327 L 647.3 973.383 L 647.3 973.383 L 647.3 979.64 L 647.3 979.64 L 647.3 985.696 L 647.3 985.696 L 647.3 991.953 L 647.3 991.953 L 647.3 998.009 L 647.3 998.009 L 647.3 1004.27 L 647.3 1004.27 L 647.3 1010.32 L 647.3 1010.32 L 647.3 1016.58 L 647.3 1016.58 L 647.3 1022.63 L 647.3 1022.63 L 647.3 1028.89 L 647.3 1028.89 L 647.3 1034.95 L 647.3 1034.95 L 647.3 1041.2 L 647.3 1041.2 L 647.3 1047.26 L 647.3 1047.26 L 647.3 1053.52 L 647.3 1053.52 L 647.3 1059.57 L 647.3 1059.57 L 647.3 1065.83 L 647.3 1065.83 L 647.3 1071.89 L 647.3 1071.89 L 647.3 1078.14 L 647.3 1078.14 L 647.3 1084.2 L 647.3 1084.2 L 647.3 1090.46 L 647.3 1090.46 L 647.3 1096.51 L 647.3 1096.51 L 647.3 1102.77 L 647.3 1102.77 L 647.3 1108.82 L 647.3 1108.82 L 647.3 1115.08 L 647.3 1115.08 L 647.3 1121.14 L 647.3 1121.14 L 647.3 1127.39 L 647.3 1127.39 L 647.3 1130.5"
         id="path1316" />
      <path
         style="fill:none;stroke:#000000;stroke-width:1"
         d="M 647.3 1130.5 L 644.176 1130.5 L 644.176 1130.5 L 637.901 1130.5 L 637.901 1130.5 L 631.827 1130.5 L 631.827 1130.5 L 625.553 1130.5 L 625.553 1130.5 L 619.479 1130.5 L 619.479 1130.5 L 613.204 1130.5 L 613.204 1130.5 L 607.13 1130.5 L 607.13 1130.5 L 600.856 1130.5 L 600.856 1130.5 L 594.781 1130.5 L 594.781 1130.5 L 588.507 1130.5 L 588.507 1130.5 L 582.433 1130.5 L 582.433 1130.5 L 576.159 1130.5 L 576.159 1130.5 L 570.084 1130.5 L 570.084 1130.5 L 563.81 1130.5 L 563.81 1130.5 L 557.736 1130.5 L 557.736 1130.5 L 551.461 1130.5 L 551.461 1130.5 L 545.387 1130.5 L 545.387 1130.5 L 539.113 1130.5 L 539.113 1130.5 L 533.039 1130.5 L 533.039 1130.5 L 526.764 1130.5 L 526.764 1130.5 L 520.69 1130.5 L 520.69 1130.5 L 514.416 1130.5 L 514.416 1130.5 L 508.341 1130.5 L 508.341 1130.5 L 502.067 1130.5 L 502.067 1130.5 L 495.993 1130.5 L 495.993 1130.5 L 489.719 1130.5 L 489.719 1130.5 L 483.644 1130.5 L 483.644 1130.5 L 477.37 1130.5 L 477.37 1130.5 L 471.296 1130.5 L 471.296 1130.5 L 465.021 1130.5 L 465.021 1130.5 L 458.947 1130.5 L 458.947 1130.5 L 452.673 1130.5 L 452.673 1130.5 L 446.599 1130.5 L 446.599 1130.5 L 440.324 1130.5 L 440.324 1130.5 L 437.2 1130.5"
         id="path1318" />
      <path
         style="fill:none;stroke:#000000;stroke-width:1"
         d="M 437.2 1130.5 L 437.2 1127.39 L 437.2 1127.39 L 437.2 1121.14 L 437.2 1121.14 L 437.2 1115.08 L 437.2 1115.08 L 437.2 1108.82 L 437.2 1108.82 L 437.2 1102.77 L 437.2 1102.77 L 437.2 1096.51 L 437.2 1096.51 L 437.2 1090.46 L 437.2 1090.46 L 437.2 1084.2 L 437.2 1084.2 L 437.2 1078.14 L 437.2 1078.14 L 437.2 1071.89 L 437.2 1071.89 L 437.2 1065.83 L 437.2 1065.83 L 437.2 1059.57 L 437.2 1059.57 L 437.2 1053.52 L 437.2 1053.52 L 437.2 1047.26 L 437.2 1047.26 L 437.2 1041.2 L 437.2 1041.2 L 437.2 1034.95 L 437.2 1034.95 L 437.2 1028.89 L 437.2 1028.89 L 437.2 1022.63 L 437.2 1022.63 L 437.2 1016.58 L 437.2 1016.58 L 437.2 1010.32 L 437.2 1010.32 L 437.2 1004.27 L 437.2 1004.27 L 437.2 998.009 L 437.2 998.009 L 437.2 991.953 L 437.2 991.953 L 437.2 985.696 L 437.2 985.696 L 437.2 979.64 L 437.2 979.64 L 437.2 973.383 L 437.2 973.383 L 437.2 967.327 L 437.2 967.327 L 437.2 961.071 L 437.2 961.071 L 437.2 955.014 L 437.2 955.014 L 437.2 948.758 L 437.2 948.758 L 437.2 942.701 L 437.2 942.701 L 437.2 936.445 L 437.2 936.445 L 437.2 930.388 L 437.2 930.388 L 437.2 924.132 L 437.2 924.132 L 437.2 918.076 L 437.2 918.076 L 437.2 911.819 L 437.2 911.819 L 437.2 905.763 L 437.2 905.763 L 437.2 899.506 L 437.2 899.506 L 437.2 896.4"
         id="path1320" />
    </g>
    <g
       id="panel7746"
       transform="rotate(30,1052.9445,-246.78834)">
      <path
         style="fill:none;stroke:#000000;stroke-width:1"
         d="m 342.2,221.1 h 3.124 v -3 h 6.275 v 3 h 6.074 v -3 h 6.274 v 3 h 6.074 v -3 h 6.275 v 3 h 6.074 v -3 h 6.274 v 3 h 6.075 v -3 h 6.274 v 3 h 6.074 v -3 h 6.274 v 3 h 6.075 v -3 h 6.274 v 3 h 6.074 v -3 h 6.275 v 3 h 6.074 v -3 h 6.274 v 3 h 6.074 v -3 h 6.275 v 3 h 6.074 v -3 h 6.274 v 3 h 6.075 v -3 h 6.274 v 3 h 6.074 v -3 h 6.274 v 3 h 6.075 v -3 h 6.274 v 3 h 6.074 v -3 h 6.275 v 3 h 6.074 v -3 h 6.274 v 3 h 6.074 v -3 h 6.275 v 3 h 3.124"
         id="path1332" />
      <path
         style="fill:none;stroke:#000000;stroke-width:1"
         d="m 552.3,221.1 v 3.106 h 3 v 6.257 h -3 v 6.056 h 3 v 6.257 h -3 v 6.056 h 3 v 6.256 h -3 v 6.057 h 3 v 6.256 h -3 v 6.057 h 3 v 6.256 h -3 v 6.057 h 3 v 6.256 h -3 v 6.056 h 3 v 6.257 h -3 v 6.056 h 3 v 6.257 h -3 v 6.056 h 3 v 6.256 h -3 v 6.057 h 3 v 6.256 h -3 v 6.057 h 3 v 6.256 h -3 v 6.056 h 3 v 6.257 h -3 v 6.056 h 3 v 6.257 h -3 v 6.056 h 3 v 6.256 h -3 v 6.057 h 3 v 6.256 h -3 v 6.057 h 3 v 6.256 h -3 v 6.057 h 3 v 6.256 h -3 v 6.056 h 3 v 6.257 h -3 v 6.056 h 3 v 6.257 h -3 v 3.106"
         id="path1334" />
      <path
         style="fill:none;stroke:#000000;stroke-width:1"
         d="m 552.3,455.2 h -3.124 v 3 h -6.275 v -3 h -6.074 v 3 h -6.274 v -3 h -6.074 v 3 h -6.275 v -3 h -6.074 v 3 h -6.274 v -3 h -6.075 v 3 h -6.274 v -3 h -6.074 v 3 h -6.274 v -3 h -6.075 v 3 h -6.274 v -3 h -6.074 v 3 h -6.275 v -3 h -6.074 v 3 h -6.274 v -3 h -6.074 v 3 h -6.275 v -3 h -6.074 v 3 h -6.274 v -3 h -6.075 v 3 h -6.274 v -3 h -6.074 v 3 h -6.274 v -3 h -6.075 v 3 h -6.274 v -3 h -6.074 v 3 h -6.275 v -3 h -6.074 v 3 h -6.274 v -3 h -6.074 v 3 h -6.275 v -3 H 342.2"
         id="path1336" />
      <path
         style="fill:none;stroke:#000000;stroke-width:1"
         d="m 342.2,455.2 v -3.106 h -3 v -6.257 h 3 v -6.056 h -3 v -6.257 h 3 v -6.056 h -3 v -6.256 h 3 v -6.057 h -3 v -6.256 h 3 v -6.057 h -3 v -6.256 h 3 v -6.057 h -3 v -6.256 h 3 v -6.056 h -3 v -6.257 h 3 v -6.056 h -3 v -6.257 h 3 v -6.056 h -3 v -6.256 h 3 v -6.057 h -3 v -6.256 h 3 v -6.057 h -3 v -6.256 h 3 v -6.056 h -3 v -6.257 h 3 v -6.056 h -3 v -6.257 h 3 v -6.056 h -3 v -6.256 h 3 v -6.057 h -3 v -6.256 h 3 v -6.057 h -3 v -6.256 h 3 v -6.057 h -3 v -6.256 h 3 v -6.056 h -3 v -6.257 h 3 v -6.056 h -3 v -6.257 h 3 V 221.1"
         id="path1338" />
    </g>
    <g
       id="panel6872">
      <path
         style="fill:none;stroke:#000000;stroke-width:1"
         d="M 556.3 218.1 L 562.671 218.1 L 562.671 221.1 L 568.892 221.1 L 568.892 218.1 L 575.313 218.1 L 575.313 221.1 L 581.534 221.1 L 581.534 218.1 L 587.955 218.1 L 587.955 221.1 L 594.176 221.1 L 594.176 218.1 L 600.597 218.1 L 600.597 221.1 L 606.818 221.1 L 606.818 218.1 L 613.239 218.1 L 613.239 221.1 L 619.461 221.1 L 619.461 218.1 L 625.882 218.1 L 625.882 221.1 L 632.103 221.1 L 632.103 218.1 L 638.524 218.1 L 638.524 221.1 L 644.745 221.1 L 644.745 218.1 L 651.166 218.1 L 651.166 221.1 L 657.387 221.1 L 657.387 218.1 L 663.808 218.1 L 663.808 221.1 L 670.029 221.1 L 670.029 218.1 L 676.4 218.1"
         id="path1341" />
      <path
         style="fill:none;stroke:#000000;stroke-width:1"
         d="M 676.4 218.1 L 676.4 224.306 L 673.4 224.306 L 673.4 230.363 L 676.4 230.363 L 676.4 236.619 L 673.4 236.619 L 673.4 242.676 L 676.4 242.676 L 676.4 248.932 L 673.4 248.932 L 673.4 254.988 L 676.4 254.988 L 676.4 261.245 L 673.4 261.245 L 673.4 267.301 L 676.4 267.301 L 676.4 273.558 L 673.4 273.558 L 673.4 279.614 L 676.4 279.614 L 676.4 285.871 L 673.4 285.871 L 673.4 291.927 L 676.4 291.927 L 676.4 298.183 L 673.4 298.183 L 673.4 304.24 L 676.4 304.24 L 676.4 310.496 L 673.4 310.496 L 673.4 316.553 L 676.4 316.553 L 676.4 322.809 L 673.4 322.809 L 673.4 328.865 L 676.4 328.865 L 676.4 335.122 L 673.4 335.122 L 673.4 341.178 L 676.4 341.178 L 676.4 347.435 L 673.4 347.435 L 673.4 353.491 L 676.4 353.491 L 676.4 359.747 L 673.4 359.747 L 673.4 365.804 L 676.4 365.804 L 676.4 372.06 L 673.4 372.06 L 673.4 378.117 L 676.4 378.117 L 676.4 384.373 L 673.4 384.373 L 673.4 390.429 L 676.4 390.429 L 676.4 396.686 L 673.4 396.686 L 673.4 402.742 L 676.4 402.742 L 676.4 408.999 L 673.4 408.999 L 673.4 415.055 L 676.4 415.055 L 676.4 421.312 L 673.4 421.312 L 673.4 427.368 L 676.4 427.368 L 676.4 433.624 L 673.4 433.624 L 673.4 439.681 L 676.4 439.681 L 676.4 445.937 L 673.4 445.937 L 673.4 451.994 L 676.4 451.994 L 676.4 458.2"
         id="path1343" />
      <path
         style="fill:none;stroke:#000000;stroke-width:1"
         d="M 676.4 458.2 L 670.029 458.2 L 670.029 455.2 L 663.808 455.2 L 663.808 458.2 L 657.387 458.2 L 657.387 455.2 L 651.166 455.2 L 651.166 458.2 L 644.745 458.2 L 644.745 455.2 L 638.524 455.2 L 638.524 458.2 L 632.103 458.2 L 632.103 455.2 L 625.882 455.2 L 625.882 458.2 L 619.461 458.2 L 619.461 455.2 L 613.239 455.2 L 613.239 458.2 L 606.818 458.2 L 606.818 455.2 L 600.597 455.2 L 600.597 458.2 L 594.176 458.2 L 594.176 455.2 L 587.955 455.2 L 587.955 458.2 L 581.534 458.2 L 581.534 455.2 L 575.313 455.2 L 575.313 458.2 L 568.892 458.2 L 568.892 455.2 L 562.671 455.2 L 562.671 458.2 L 556.3 458.2"
         id="path1345" />
      <path
         style="fill:none;stroke:#000000;stroke-width:1"
         d="M 556.3 458.2 L 556.3 451.994 L 559.3 451.994 L 559.3 445.937 L 556.3 445.937 L 556.3 439.681 L 559.3 439.681 L 559.3 433.624 L 556.3 433.624 L 556.3 427.368 L 559.3 427.368 L 559.3 421.312 L 556.3 421.312 L 556.3 415.055 L 559.3 415.055 L 559.3 408.999 L 556.3 408.999 L 556.3 402.742 L 559.3 402.742 L 559.3 396.686 L 556.3 396.686 L 556.3 390.429 L 559.3 390.429 L 559.3 384.373 L 556.3 384.373 L 556.3 378.117 L 559.3 378.117 L 559.3 372.06 L 556.3 372.06 L 556.3 365.804 L 559.3 365.804 L 559.3 359.747 L 556.3 359.747 L 556.3 353.491 L 559.3 353.491 L 559.3 347.435 L 556.3 347.435 L 556.3 341.178 L 559.3 341.178 L 559.3 335.122 L 556.3 335.122 L 556.3 328.865 L 559.3 328.865 L 559.3 322.809 L 556.3 322.809 L 556.3 316.553 L 559.3 316.553 L 559.3 310.496 L 556.3 310.496 L 556.3 304.24 L 559.3 304.24 L 559.3 298.183 L 556.3 298.183 L 556.3 291.927 L 559.3 291.927 L 559.3 285.871 L 556.3 285.871 L 556.3 279.614 L 559.3 279.614 L 559.3 273.558 L 556.3 273.558 L 556.3 267.301 L 559.3 267.301 L 559.3 261.245 L 556.3 261.245 L 556.3 254.988 L 559.3 254.988 L 559.3 248.932 L 556.3 248.932 L 556.3 242.676 L 559.3 242.676 L 559.3 236.619 L 556.3 236.619 L 556.3 230.363 L 559.3 230.363 L 559.3 224.306 L 556.3 224.306 L 556.3 218.1"
         id="path1347" />
    </g>
    <g
       id="panel4256"
       transform="translate(-135.8999,-135)">
      <path
         style="fill:none;stroke:#000000;stroke-width:1"
         d="m 218.1,4 h 6.271 V 1 h 6.421 v 3 h 6.221 V 1 h 6.421 v 3 h 6.221 V 1 h 6.421 v 3 h 6.221 V 1 h 6.421 v 3 h 6.221 V 1 h 6.422 v 3 h 6.221 V 1 h 6.421 v 3 h 6.221 V 1 h 6.421 v 3 h 6.221 V 1 h 6.421 v 3 h 6.221 V 1 h 6.421 v 3 h 6.271"
         id="path1350" />
      <path
         style="fill:none;stroke:#000000;stroke-width:1"
         d="m 338.2,4 v 3.22429 h -3 v 6.07431 h 3 v 6.2743 h -3 v 6.0742 h 3 v 6.2743 h -3 v 6.0743 h 3 V 44.27 h -3 v 6.0743 h 3 v 6.2743 h -3 v 6.0743 h 3 v 6.2742 h -3 v 6.0743 h 3 v 6.2743 h -3 V 87.39 h 3 v 6.2743 h -3 v 6.0743 h 3 v 6.2744 h -3 v 6.074 h 3 v 6.274 h -3 v 6.075 h 3 v 6.274 h -3 v 6.074 h 3 v 6.275 h -3 v 6.074 h 3 v 6.274 h -3 v 6.074 h 3 v 6.275 h -3 v 6.074 h 3 v 6.274 h -3 v 6.075 h 3 v 6.274 h -3 v 6.074 h 3 v 6.274 h -3 v 6.075 h 3 v 3.224"
         id="path1352" />
      <path
         style="fill:none;stroke:#000000;stroke-width:1"
         d="m 338.2,214.1 h -6.271 v 3 h -6.421 v -3 h -6.221 v 3 h -6.421 v -3 h -6.221 v 3 h -6.421 v -3 h -6.221 v 3 h -6.421 v -3 h -6.221 v 3 h -6.422 v -3 h -6.221 v 3 h -6.421 v -3 h -6.221 v 3 h -6.421 v -3 h -6.221 v 3 h -6.421 v -3 h -6.221 v 3 h -6.421 v -3 H 218.1"
         id="path1354" />
      <path
         style="fill:none;stroke:#000000;stroke-width:1"
         d="m 218.1,214.1 v -3.224 h 3 v -6.075 h -3 v -6.274 h 3 v -6.074 h -3 v -6.274 h 3 v -6.075 h -3 v -6.274 h 3 v -6.074 h -3 v -6.275 h 3 v -6.074 h -3 v -6.274 h 3 v -6.074 h -3 v -6.275 h 3 v -6.074 h -3 v -6.274 h 3 v -6.075 h -3 v -6.274 h 3 v -6.074 h -3 v -6.2744 h 3 v -6.0743 h -3 V 87.39 h 3 v -6.0743 h -3 v -6.2743 h 3 v -6.0743 h -3 v -6.2742 h 3 v -6.0743 h -3 v -6.2743 h 3 V 44.27 h -3 v -6.2743 h 3 v -6.0743 h -3 v -6.2743 h 3 v -6.0742 h -3 v -6.2743 h 3 V 7.22429 h -3 V 4"
         id="path1356" />
    </g>
    <g
       id="panel9157-3"
       transform="rotate(90,80.9985,81.9985)">
      <path
         style="fill:none;stroke:#000000;stroke-width:1"
         d="m 4,85.1 h 3.11154 v -3 h 6.26156 v 3 h 6.0615 v -3 h 6.2616 v 3 h 6.0615 v -3 h 6.2615 v 3 h 6.0616 v -3 h 6.2615 v 3 h 6.0615 v -3 h 6.2616 v 3 h 6.0615 v -3 h 6.2616 v 3 H 78.1"
         id="path1070-6" />
      <path
         style="fill:none;stroke:#000000;stroke-width:1"
         d="m 78.1,85.1 v 3.1064 h 3 v 6.2564 h -3 v 6.0562 h 3 v 6.257 h -3 v 6.056 h 3 v 6.256 h -3 v 6.057 h 3 v 6.256 h -3 v 6.057 h 3 v 6.256 h -3 v 6.057 h 3 v 6.256 h -3 v 6.056 h 3 v 6.257 h -3 v 6.056 h 3 v 6.257 h -3 v 6.056 h 3 v 6.256 h -3 v 6.057 h 3 v 6.256 h -3 v 6.057 h 3 v 6.256 h -3 v 6.056 h 3 v 6.257 h -3 v 6.056 h 3 v 6.257 h -3 v 6.056 h 3 v 6.256 h -3 v 6.057 h 3 v 6.256 h -3 v 6.057 h 3 v 6.256 h -3 v 6.057 h 3 v 6.256 h -3 v 6.056 h 3 v 6.257 h -3 v 6.056 h 3 v 6.257 h -3 v 3.106"
         id="path1072-7" />
      <path
         style="fill:none;stroke:#000000;stroke-width:1"
         d="m 78.1,319.2 h -3.1115 v 3 h -6.2616 v -3 h -6.0615 v 3 h -6.2616 v -3 h -6.0615 v 3 h -6.2615 v -3 h -6.0616 v 3 h -6.2615 v -3 h -6.0615 v 3 h -6.2616 v -3 h -6.0615 v 3 H 7.11154 v -3 H 4"
         id="path1074-5" />
      <path
         style="fill:none;stroke:#000000;stroke-width:1"
         d="m 4,319.2 v -3.106 H 1 v -6.257 h 3 v -6.056 H 1 v -6.257 h 3 v -6.056 H 1 v -6.256 h 3 v -6.057 H 1 v -6.256 h 3 v -6.057 H 1 v -6.256 h 3 v -6.057 H 1 v -6.256 h 3 v -6.056 H 1 v -6.257 h 3 v -6.056 H 1 v -6.257 h 3 v -6.056 H 1 v -6.256 h 3 v -6.057 H 1 v -6.256 h 3 v -6.057 H 1 v -6.256 h 3 v -6.056 H 1 v -6.257 H 4 V 168.34 H 1 v -6.257 h 3 v -6.056 H 1 v -6.256 h 3 v -6.057 H 1 v -6.256 h 3 v -6.057 H 1 v -6.256 h 3 v -6.057 H 1 v -6.256 h 3 v -6.056 H 1 v -6.257 H 4 V 94.4628 H 1 V 88.2064 H 4 V 85.1"
         id="path1076-3" />
    </g>
  </g>
</svg>
